<svg width="22" height="22" viewBox="0 0 22 22" fill="none" xmlns="http://www.w3.org/2000/svg">
<path d="M11.192 0.492188C9.06505 0.492187 6.98588 1.1229 5.21739 2.30456C3.4489 3.48623 2.07054 5.16577 1.25659 7.13081C0.442648 9.09585 0.229683 11.2581 0.644628 13.3442C1.05957 15.4303 2.08379 17.3464 3.58777 18.8504C5.09174 20.3544 7.00792 21.3786 9.09399 21.7936C11.1801 22.2085 13.3423 21.9955 15.3074 21.1816C17.2724 20.3676 18.952 18.9893 20.1336 17.2208C21.3153 15.4523 21.946 13.3731 21.946 11.2462C21.946 8.39405 20.813 5.65873 18.7962 3.64196C16.7795 1.62519 14.0441 0.492188 11.192 0.492188ZM5.81499 19.0322C5.76715 18.5478 5.82147 18.0587 5.97442 17.5966C6.12738 17.1345 6.37557 16.7097 6.70297 16.3495C7.03037 15.9893 7.42969 15.7018 7.87514 15.5055C8.32058 15.3093 8.80224 15.2087 9.28899 15.2102H13.096C13.5827 15.2087 14.0644 15.3093 14.5098 15.5055C14.9553 15.7018 15.3546 15.9893 15.682 16.3495C16.0094 16.7097 16.2576 17.1345 16.4106 17.5966C16.5635 18.0587 16.6178 18.5478 16.57 19.0322C14.9908 20.1273 13.1148 20.7141 11.193 20.7141C9.27121 20.7141 7.39423 20.1273 5.81499 19.0322ZM17.815 17.9912C17.6459 16.8577 17.0749 15.8228 16.2062 15.0753C15.3375 14.3277 14.229 13.9174 13.083 13.9192H9.28899C8.14315 13.9187 7.03521 14.3296 6.16677 15.0771C5.29832 15.8246 4.72708 16.859 4.55699 17.9922C3.21568 16.6758 2.29666 14.9899 1.91706 13.1492C1.53746 11.3086 1.71446 9.39664 2.42551 7.65699C3.13656 5.91733 4.34946 4.42876 5.90964 3.38098C7.46982 2.3332 9.30663 1.77366 11.186 1.77366C13.0654 1.77366 14.9022 2.3332 16.4623 3.38098C18.0225 4.42876 19.2354 5.91733 19.9465 7.65699C20.6575 9.39664 20.8345 11.3086 20.4549 13.1492C20.0753 14.9899 19.1563 16.6748 17.815 17.9912Z" fill="#99ACC2"/>
<path d="M11.1922 4.90137C10.4315 4.90137 9.68794 5.12693 9.05547 5.54954C8.423 5.97214 7.93005 6.5728 7.63895 7.27557C7.34786 7.97833 7.27169 8.75163 7.42009 9.49768C7.56849 10.2437 7.93479 10.929 8.47266 11.4669C9.01053 12.0048 9.69582 12.3711 10.4419 12.5195C11.1879 12.6679 11.9612 12.5917 12.664 12.3006C13.3668 12.0095 13.9674 11.5166 14.39 10.8841C14.8126 10.2516 15.0382 9.50803 15.0382 8.74737C15.0382 7.72735 14.633 6.7491 13.9117 6.02783C13.1905 5.30657 12.2122 4.90137 11.1922 4.90137ZM11.1922 11.3014C10.6868 11.3014 10.1927 11.1515 9.7725 10.8706C9.35229 10.5898 9.02481 10.1906 8.83149 9.72366C8.63817 9.25668 8.58768 8.74285 8.68643 8.24718C8.78518 7.7515 9.02872 7.29625 9.38624 6.939C9.74377 6.58176 10.1992 6.33858 10.695 6.24022C11.1907 6.14186 11.7045 6.19274 12.1713 6.38643C12.6382 6.58012 13.0371 6.90791 13.3176 7.32834C13.5981 7.74877 13.7476 8.24295 13.7472 8.74837C13.7467 9.42565 13.4772 10.075 12.9981 10.5537C12.519 11.0325 11.8695 11.3014 11.1922 11.3014Z" fill="#99ACC2"/>
</svg>
