<svg width="20" height="22" viewBox="0 0 20 22" fill="none" xmlns="http://www.w3.org/2000/svg">
<g id="contacts-book (1)">
<path id="Path 2319" d="M3.324 9.3681H0.665C0.488631 9.3681 0.319486 9.29804 0.194774 9.17332C0.0700623 9.04861 0 8.87947 0 8.7031C0 8.52673 0.0700623 8.35758 0.194774 8.23287C0.319486 8.10816 0.488631 8.0381 0.665 8.0381H3.324C3.50037 8.0381 3.66951 8.10816 3.79423 8.23287C3.91894 8.35758 3.989 8.52673 3.989 8.7031C3.989 8.87947 3.91894 9.04861 3.79423 9.17332C3.66951 9.29804 3.50037 9.3681 3.324 9.3681ZM3.324 12.0271H0.665C0.488631 12.0271 0.319486 11.957 0.194774 11.8323C0.0700623 11.7076 0 11.5385 0 11.3621C0 11.1857 0.0700623 11.0166 0.194774 10.8919C0.319486 10.7672 0.488631 10.6971 0.665 10.6971H3.324C3.50037 10.6971 3.66951 10.7672 3.79423 10.8919C3.91894 11.0166 3.989 11.1857 3.989 11.3621C3.989 11.5385 3.91894 11.7076 3.79423 11.8323C3.66951 11.957 3.50037 12.0271 3.324 12.0271ZM3.324 14.6861H0.665C0.488631 14.6861 0.319486 14.616 0.194774 14.4913C0.0700623 14.3666 0 14.1975 0 14.0211C0 13.8447 0.0700623 13.6756 0.194774 13.5509C0.319486 13.4262 0.488631 13.3561 0.665 13.3561H3.324C3.50037 13.3561 3.66951 13.4262 3.79423 13.5509C3.91894 13.6756 3.989 13.8447 3.989 14.0211C3.989 14.1975 3.91894 14.3666 3.79423 14.4913C3.66951 14.616 3.50037 14.6861 3.324 14.6861ZM17.951 21.9991H5.984C5.80763 21.9991 5.63849 21.929 5.51377 21.8043C5.38906 21.6796 5.319 21.5105 5.319 21.3341V1.3901C5.319 1.21373 5.38906 1.04458 5.51377 0.919872C5.63849 0.79516 5.80763 0.725098 5.984 0.725098H17.951C18.4797 0.726418 18.9864 0.937029 19.3602 1.31088C19.7341 1.68473 19.9447 2.1914 19.946 2.7201V20.0061C19.9447 20.5348 19.7341 21.0415 19.3602 21.4153C18.9864 21.7892 18.4797 21.9998 17.951 22.0011V21.9991ZM6.651 20.6691H17.951C18.1274 20.6691 18.2965 20.599 18.4212 20.4743C18.5459 20.3496 18.616 20.1805 18.616 20.0041V2.7201C18.616 2.54373 18.5459 2.37458 18.4212 2.24987C18.2965 2.12516 18.1274 2.0551 17.951 2.0551H6.649L6.651 20.6691Z" fill="#6A78D1"/>
<path id="Path 2320" d="M5.98408 22.0001H3.32508C2.79655 21.9988 2.29003 21.7883 1.91621 21.4147C1.54239 21.041 1.33166 20.5346 1.33008 20.0061V2.7201C1.3314 2.1914 1.54201 1.68473 1.91586 1.31088C2.28971 0.937029 2.79638 0.726418 3.32508 0.725098H5.98408C6.16045 0.725098 6.32959 0.79516 6.4543 0.919872C6.57902 1.04458 6.64908 1.21373 6.64908 1.3901V21.3361C6.64881 21.5123 6.57863 21.6812 6.45395 21.8057C6.32927 21.9302 6.16027 22.0001 5.98408 22.0001ZM3.32508 2.0551C3.14871 2.0551 2.97956 2.12516 2.85485 2.24987C2.73014 2.37458 2.66008 2.54373 2.66008 2.7201V20.0061C2.66008 20.1825 2.73014 20.3516 2.85485 20.4763C2.97956 20.601 3.14871 20.6711 3.32508 20.6711H5.31908V2.0551H3.32508ZM12.6301 10.6981C12.2357 10.6971 11.8505 10.5793 11.5231 10.3595C11.1957 10.1396 10.9407 9.82772 10.7905 9.46309C10.6403 9.09847 10.6015 8.6975 10.679 8.31084C10.7566 7.92417 10.947 7.56917 11.2262 7.29066C11.5054 7.01216 11.8609 6.82265 12.2477 6.74607C12.6346 6.6695 13.0354 6.7093 13.3997 6.86044C13.7639 7.01158 14.0752 7.26729 14.2942 7.59526C14.5132 7.92322 14.6301 8.30874 14.6301 8.7031C14.6301 8.96551 14.5783 9.22534 14.4777 9.46771C14.3772 9.71008 14.2298 9.93023 14.044 10.1155C13.8582 10.3009 13.6377 10.4477 13.3951 10.5477C13.1524 10.6476 12.8925 10.6988 12.6301 10.6981ZM12.6301 8.0391C12.4986 8.0391 12.37 8.0781 12.2606 8.15117C12.1513 8.22424 12.066 8.3281 12.0157 8.44961C11.9654 8.57113 11.9522 8.70484 11.9779 8.83383C12.0035 8.96283 12.0668 9.08132 12.1599 9.17432C12.2529 9.26733 12.3713 9.33066 12.5003 9.35632C12.6293 9.38198 12.7631 9.36881 12.8846 9.31848C13.0061 9.26815 13.1099 9.18291 13.183 9.07355C13.2561 8.96419 13.2951 8.83562 13.2951 8.7041C13.2952 8.61668 13.2781 8.5301 13.2447 8.44931C13.2114 8.36851 13.1624 8.29508 13.1007 8.23322C13.0389 8.17137 12.9655 8.1223 12.8848 8.08881C12.804 8.05533 12.7175 8.0391 12.6301 8.0391ZM15.9541 16.0171H9.30808C9.13171 16.0171 8.96256 15.947 8.83785 15.8223C8.71314 15.6976 8.64308 15.5285 8.64308 15.3521V14.6871C8.64308 13.8055 8.99328 12.96 9.61666 12.3367C10.24 11.7133 11.0855 11.3631 11.9671 11.3631H13.2971C14.1787 11.3631 15.0241 11.7133 15.6475 12.3367C16.2709 12.96 16.6211 13.8055 16.6211 14.6871V15.3521C16.6211 15.5283 16.5512 15.6973 16.4267 15.822C16.3022 15.9467 16.1333 16.0168 15.9571 16.0171H15.9541ZM9.97008 14.6871H15.2891C15.2878 14.1584 15.0771 13.6517 14.7033 13.2779C14.3294 12.904 13.8228 12.6934 13.2941 12.6921H11.9641C11.4361 12.6945 10.9304 12.9055 10.5574 13.2793C10.1845 13.653 9.97439 14.1591 9.97308 14.6871H9.97008Z" fill="#6A78D1"/>
</g>
</svg>
