<svg width="24" height="23" viewBox="0 0 24 23" fill="none" xmlns="http://www.w3.org/2000/svg">
<path fill-rule="evenodd" clip-rule="evenodd" d="M2.10261e-07 12.7251C-6.86501e-05 12.6096 0.0167767 12.4947 0.0500002 12.3841L2.791 3.2541C3.01005 2.52354 3.45868 1.88301 4.07039 1.42747C4.68209 0.971937 5.42431 0.72564 6.187 0.725099H17.464C18.2273 0.724556 18.9704 0.970249 19.5829 1.42568C20.1954 1.88111 20.6447 2.52199 20.864 3.2531L23.604 12.3841C23.6372 12.4947 23.654 12.6096 23.654 12.7251V18.4641C23.6539 18.9304 23.5618 19.3922 23.3831 19.8229C23.2043 20.2537 22.9424 20.645 22.6123 20.9744C22.2823 21.3038 21.8905 21.565 21.4594 21.7428C21.0283 21.9207 20.5664 22.0119 20.1 22.0111H3.548C2.60701 22.0111 1.70456 21.6373 1.03919 20.9719C0.373806 20.3065 2.10261e-07 19.4041 2.10261e-07 18.4631V12.7251ZM17.464 2.4991H6.187C5.80538 2.49891 5.43386 2.62178 5.12761 2.84949C4.82137 3.07719 4.59671 3.39758 4.487 3.7631L1.852 12.5501H7.552C7.77151 12.5503 7.98664 12.6116 8.17331 12.7271C8.35999 12.8426 8.51084 13.0078 8.609 13.2041L9.462 14.9041C9.46303 14.9064 9.46473 14.9083 9.46688 14.9095C9.46903 14.9108 9.47152 14.9113 9.474 14.9111H14.189C14.1912 14.9112 14.1934 14.9107 14.1953 14.9096C14.1973 14.9086 14.1989 14.907 14.2 14.9051L15.051 13.2001C15.1492 13.0036 15.3002 12.8383 15.4871 12.7228C15.674 12.6073 15.8893 12.5461 16.109 12.5461H21.809L19.162 3.7631C19.0523 3.39758 18.8276 3.07719 18.5214 2.84949C18.2151 2.62178 17.8436 2.49891 17.462 2.4991H17.464ZM21.877 14.3251H16.469L15.78 15.7031C15.6314 16.0001 15.403 16.2498 15.1204 16.4241C14.8377 16.5985 14.5121 16.6906 14.18 16.6901H9.467C9.13491 16.6906 8.80927 16.5985 8.52663 16.4241C8.24399 16.2498 8.01556 16.0001 7.867 15.7031L7.182 14.3251H1.774V18.4641C1.774 18.9346 1.9609 19.3858 2.29359 19.7185C2.62628 20.0512 3.07751 20.2381 3.548 20.2381H20.1C20.5705 20.2381 21.0217 20.0512 21.3544 19.7185C21.6871 19.3858 21.874 18.9346 21.874 18.4641L21.877 14.3251Z" fill="#99ACC2"/>
</svg>
