<svg width="22" height="23" viewBox="0 0 22 23" fill="none" xmlns="http://www.w3.org/2000/svg">
<path d="M10.888 8.7521C10.3222 8.7523 9.76915 8.92026 9.29879 9.23475C8.82843 9.54924 8.46188 9.99614 8.2455 10.5189C8.02911 11.0417 7.97259 11.617 8.0831 12.1719C8.1936 12.7268 8.46616 13.2365 8.86632 13.6365C9.26648 14.0365 9.77626 14.3089 10.3312 14.4192C10.8862 14.5295 11.4614 14.4728 11.9841 14.2562C12.5068 14.0396 12.9536 13.6729 13.2679 13.2025C13.5822 12.732 13.75 12.1789 13.75 11.6131C13.75 11.2373 13.676 10.8652 13.5321 10.518C13.3883 10.1708 13.1775 9.85539 12.9117 9.58971C12.6459 9.32403 12.3304 9.11331 11.9832 8.96959C11.6359 8.82587 11.2638 8.75197 10.888 8.7521ZM10.888 13.4751C10.5197 13.4751 10.1597 13.3659 9.85353 13.1613C9.54733 12.9567 9.30867 12.6659 9.16774 12.3257C9.02681 11.9854 8.98993 11.611 9.06178 11.2498C9.13363 10.8886 9.31096 10.5569 9.57137 10.2965C9.83177 10.0361 10.1636 9.85872 10.5247 9.78688C10.8859 9.71503 11.2603 9.7519 11.6006 9.89283C11.9408 10.0338 12.2316 10.2724 12.4362 10.5786C12.6408 10.8848 12.75 11.2448 12.75 11.6131C12.75 12.1069 12.5538 12.5805 12.2046 12.9297C11.8554 13.2789 11.3818 13.4751 10.888 13.4751ZM10.888 0.725098C10.3222 0.725296 9.76915 0.893259 9.29879 1.20775C8.82843 1.52224 8.46188 1.96914 8.2455 2.49193C8.02911 3.01473 7.97259 3.58995 8.0831 4.14486C8.1936 4.69978 8.46616 5.20947 8.86632 5.60948C9.26648 6.0095 9.77626 6.28189 10.3312 6.3922C10.8862 6.50251 11.4614 6.44579 11.9841 6.22922C12.5068 6.01265 12.9536 5.64595 13.2679 5.17548C13.5822 4.70501 13.75 4.15191 13.75 3.5861C13.75 3.2103 13.676 2.83819 13.5321 2.49101C13.3883 2.14383 13.1775 1.82839 12.9117 1.56271C12.6459 1.29703 12.3304 1.08631 11.9832 0.942591C11.6359 0.798871 11.2638 0.724966 10.888 0.725098ZM10.888 5.4481C10.5197 5.4481 10.1597 5.33889 9.85353 5.13429C9.54733 4.9297 9.30867 4.63889 9.16774 4.29865C9.02681 3.95842 8.98993 3.58403 9.06178 3.22284C9.13363 2.86165 9.31096 2.52987 9.57137 2.26947C9.83177 2.00906 10.1636 1.83172 10.5247 1.75988C10.8859 1.68803 11.2603 1.7249 11.6006 1.86583C11.9408 2.00676 12.2316 2.24542 12.4362 2.55163C12.6408 2.85783 12.75 3.21783 12.75 3.5861C12.75 4.07993 12.5538 4.55354 12.2046 4.90273C11.8554 5.25192 11.3818 5.4481 10.888 5.4481ZM10.888 16.7791C10.3222 16.7793 9.76915 16.9473 9.29879 17.2617C8.82843 17.5762 8.46188 18.0231 8.2455 18.5459C8.02911 19.0687 7.97259 19.6439 8.0831 20.1989C8.1936 20.7538 8.46616 21.2635 8.86632 21.6635C9.26648 22.0635 9.77626 22.3359 10.3312 22.4462C10.8862 22.5565 11.4614 22.4998 11.9841 22.2832C12.5068 22.0666 12.9536 21.6999 13.2679 21.2295C13.5822 20.759 13.75 20.2059 13.75 19.6401C13.7505 19.264 13.6769 18.8914 13.5333 18.5438C13.3897 18.1961 13.1789 17.8802 12.9131 17.6141C12.6473 17.348 12.3316 17.1369 11.9841 16.993C11.6366 16.849 11.2641 16.775 10.888 16.7751V16.7791ZM10.888 21.5021C10.5197 21.5021 10.1597 21.3929 9.85353 21.1883C9.54733 20.9837 9.30867 20.6929 9.16774 20.3527C9.02681 20.0124 8.98993 19.638 9.06178 19.2768C9.13363 18.9156 9.31096 18.5839 9.57137 18.3235C9.83177 18.0631 10.1636 17.8857 10.5247 17.8139C10.8859 17.742 11.2603 17.7789 11.6006 17.9198C11.9408 18.0608 12.2316 18.2994 12.4362 18.6056C12.6408 18.9118 12.75 19.2718 12.75 19.6401C12.75 20.1339 12.5538 20.6075 12.2046 20.9567C11.8554 21.3059 11.3818 21.5021 10.888 21.5021ZM2.861 8.7521C2.29515 8.7521 1.742 8.91989 1.27151 9.23426C0.801026 9.54863 0.434324 9.99546 0.217782 10.5182C0.00123972 11.041 -0.0554177 11.6163 0.0549746 12.1713C0.165367 12.7262 0.437851 13.236 0.837969 13.6361C1.23809 14.0362 1.74787 14.3087 2.30285 14.4191C2.85783 14.5295 3.43308 14.4729 3.95586 14.2563C4.47864 14.0398 4.92547 13.6731 5.23984 13.2026C5.55421 12.7321 5.722 12.1789 5.722 11.6131C5.722 10.8543 5.42058 10.1266 4.88403 9.59007C4.34749 9.05352 3.61979 8.7521 2.861 8.7521ZM2.861 13.4751C2.49273 13.4751 2.13273 13.3659 1.82653 13.1613C1.52033 12.9567 1.28167 12.6659 1.14074 12.3257C0.999807 11.9854 0.962933 11.611 1.03478 11.2498C1.10662 10.8886 1.28396 10.5569 1.54437 10.2965C1.80477 10.0361 2.13655 9.85872 2.49774 9.78688C2.85894 9.71503 3.23332 9.7519 3.57356 9.89283C3.91379 10.0338 4.2046 10.2724 4.4092 10.5786C4.6138 10.8848 4.723 11.2448 4.723 11.6131C4.723 12.1069 4.52683 12.5805 4.17763 12.9297C3.82844 13.2789 3.35483 13.4751 2.861 13.4751ZM2.861 0.725098C2.29515 0.725098 1.742 0.892892 1.27151 1.20726C0.801026 1.52163 0.434324 1.96846 0.217782 2.49124C0.00123972 3.01402 -0.0554177 3.58927 0.0549746 4.14425C0.165367 4.69923 0.437851 5.20901 0.837969 5.60913C1.23809 6.00925 1.74787 6.28173 2.30285 6.39212C2.85783 6.50252 3.43308 6.44586 3.95586 6.22932C4.47864 6.01277 4.92547 5.64607 5.23984 5.17558C5.55421 4.70509 5.722 4.15195 5.722 3.5861C5.722 2.82731 5.42058 2.09961 4.88403 1.56307C4.34749 1.02652 3.61979 0.725098 2.861 0.725098ZM2.861 5.4481C2.49273 5.4481 2.13273 5.33889 1.82653 5.13429C1.52033 4.9297 1.28167 4.63889 1.14074 4.29865C0.999807 3.95842 0.962933 3.58403 1.03478 3.22284C1.10662 2.86165 1.28396 2.52987 1.54437 2.26947C1.80477 2.00906 2.13655 1.83172 2.49774 1.75988C2.85894 1.68803 3.23332 1.7249 3.57356 1.86583C3.91379 2.00676 4.2046 2.24542 4.4092 2.55163C4.6138 2.85783 4.723 3.21783 4.723 3.5861C4.723 4.07993 4.52683 4.55354 4.17763 4.90273C3.82844 5.25192 3.35483 5.4481 2.861 5.4481ZM2.861 16.7791C2.29515 16.7791 1.742 16.9469 1.27151 17.2613C0.801026 17.5756 0.434324 18.0225 0.217782 18.5452C0.00123972 19.068 -0.0554177 19.6433 0.0549746 20.1983C0.165367 20.7532 0.437851 21.263 0.837969 21.6631C1.23809 22.0632 1.74787 22.3357 2.30285 22.4461C2.85783 22.5565 3.43308 22.4999 3.95586 22.2833C4.47864 22.0668 4.92547 21.7001 5.23984 21.2296C5.55421 20.7591 5.722 20.206 5.722 19.6401C5.72253 19.264 5.64891 18.8916 5.50537 18.544C5.36183 18.1964 5.15117 17.8806 4.88545 17.6145C4.61973 17.3484 4.30416 17.1373 3.95678 16.9933C3.60941 16.8492 3.23705 16.7751 2.861 16.7751V16.7791ZM2.861 21.5021C2.49273 21.5021 2.13273 21.3929 1.82653 21.1883C1.52033 20.9837 1.28167 20.6929 1.14074 20.3527C0.999807 20.0124 0.962933 19.638 1.03478 19.2768C1.10662 18.9156 1.28396 18.5839 1.54437 18.3235C1.80477 18.0631 2.13655 17.8857 2.49774 17.8139C2.85894 17.742 3.23332 17.7789 3.57356 17.9198C3.91379 18.0608 4.2046 18.2994 4.4092 18.6056C4.6138 18.9118 4.723 19.2718 4.723 19.6401C4.723 20.1339 4.52683 20.6075 4.17763 20.9567C3.82844 21.3059 3.35483 21.5021 2.861 21.5021ZM18.915 8.7521C18.3491 8.7521 17.796 8.91989 17.3255 9.23426C16.855 9.54863 16.4883 9.99546 16.2718 10.5182C16.0552 11.041 15.9986 11.6163 16.109 12.1713C16.2194 12.7262 16.4919 13.236 16.892 13.6361C17.2921 14.0362 17.8019 14.3087 18.3568 14.4191C18.9118 14.5295 19.4871 14.4729 20.0099 14.2563C20.5326 14.0398 20.9795 13.6731 21.2938 13.2026C21.6082 12.7321 21.776 12.1789 21.776 11.6131C21.776 10.8543 21.4746 10.1266 20.938 9.59007C20.4015 9.05352 19.6738 8.7521 18.915 8.7521ZM18.915 13.4751C18.5467 13.4751 18.1867 13.3659 17.8805 13.1613C17.5743 12.9567 17.3357 12.6659 17.1947 12.3257C17.0538 11.9854 17.0169 11.611 17.0888 11.2498C17.1606 10.8886 17.338 10.5569 17.5984 10.2965C17.8588 10.0361 18.1906 9.85872 18.5517 9.78688C18.9129 9.71503 19.2873 9.7519 19.6276 9.89283C19.9678 10.0338 20.2586 10.2724 20.4632 10.5786C20.6678 10.8848 20.777 11.2448 20.777 11.6131C20.777 12.1069 20.5808 12.5805 20.2316 12.9297C19.8824 13.2789 19.4088 13.4751 18.915 13.4751ZM18.915 6.4471C19.4807 6.44631 20.0334 6.27784 20.5034 5.96299C20.9734 5.64814 21.3394 5.20104 21.5554 4.67819C21.7713 4.15534 21.8274 3.58021 21.7165 3.0255C21.6057 2.47078 21.3329 1.96137 20.9326 1.56166C20.5323 1.16194 20.0226 0.88985 19.4677 0.779782C18.9128 0.669713 18.3378 0.726604 17.8152 0.943263C17.2927 1.15992 16.8461 1.52663 16.5319 1.99703C16.2177 2.46743 16.05 3.02042 16.05 3.5861C16.05 3.96215 16.1241 4.33451 16.2682 4.68188C16.4122 5.02925 16.6233 5.34483 16.8894 5.61055C17.1555 5.87627 17.4713 6.08692 17.8189 6.23047C18.1665 6.37401 18.539 6.44762 18.915 6.4471ZM18.915 1.7241C19.2831 1.72469 19.6428 1.8344 19.9487 2.03936C20.2545 2.24432 20.4927 2.53533 20.6331 2.87562C20.7736 3.21591 20.81 3.5902 20.7379 3.95119C20.6657 4.31219 20.4881 4.64368 20.2276 4.90379C19.9671 5.16389 19.6353 5.34093 19.2742 5.41254C18.913 5.48414 18.5388 5.44709 18.1988 5.30607C17.8587 5.16505 17.5681 4.9264 17.3636 4.62026C17.1591 4.31412 17.05 3.95424 17.05 3.5861C17.05 3.34132 17.0983 3.09895 17.192 2.87285C17.2858 2.64674 17.4232 2.44135 17.5964 2.2684C17.7696 2.09546 17.9753 1.95837 18.2015 1.86497C18.4278 1.77157 18.6702 1.7237 18.915 1.7241ZM18.915 16.7791C18.3491 16.7791 17.796 16.9469 17.3255 17.2613C16.855 17.5756 16.4883 18.0225 16.2718 18.5452C16.0552 19.068 15.9986 19.6433 16.109 20.1983C16.2194 20.7532 16.4919 21.263 16.892 21.6631C17.2921 22.0632 17.8019 22.3357 18.3568 22.4461C18.9118 22.5565 19.4871 22.4999 20.0099 22.2833C20.5326 22.0668 20.9795 21.7001 21.2938 21.2296C21.6082 20.7591 21.776 20.206 21.776 19.6401C21.7765 19.264 21.7029 18.8916 21.5594 18.544C21.4158 18.1964 21.2052 17.8806 20.9394 17.6145C20.6737 17.3484 20.3582 17.1373 20.0108 16.9933C19.6634 16.8492 19.2911 16.7751 18.915 16.7751V16.7791ZM18.915 21.5021C18.5467 21.5021 18.1867 21.3929 17.8805 21.1883C17.5743 20.9837 17.3357 20.6929 17.1947 20.3527C17.0538 20.0124 17.0169 19.638 17.0888 19.2768C17.1606 18.9156 17.338 18.5839 17.5984 18.3235C17.8588 18.0631 18.1906 17.8857 18.5517 17.8139C18.9129 17.742 19.2873 17.7789 19.6276 17.9198C19.9678 18.0608 20.2586 18.2994 20.4632 18.6056C20.6678 18.9118 20.777 19.2718 20.777 19.6401C20.777 20.1339 20.5808 20.6075 20.2316 20.9567C19.8824 21.3059 19.4088 21.5021 18.915 21.5021Z" fill="#99ACC2"/>
</svg>
