<svg width="72" height="71" viewBox="0 0 72 71" fill="none" xmlns="http://www.w3.org/2000/svg">
<g id="dial-icon">
<path id="Ellipse 3" d="M30.578 70.142C47.4658 70.142 61.156 56.4517 61.156 39.564C61.156 22.6762 47.4658 8.98596 30.578 8.98596C13.6902 8.98596 0 22.6762 0 39.564C0 56.4517 13.6902 70.142 30.578 70.142Z" fill="#1EC6D8"/>
<path id="Path 1" d="M70.5172 46.18C73.0869 36.5148 71.7181 26.2249 66.711 17.5676C61.7039 8.91031 53.4674 2.59248 43.8082 0H43.6832L33.3242 38.941L69.7682 48.676C70.0182 47.8 70.2682 47.053 70.5172 46.18Z" fill="#1EC6D8"/>
<path id="Path 2" d="M60.9072 44.183C62.6477 37.133 61.5234 29.6805 57.7804 23.4578C54.0374 17.2351 47.9808 12.7494 40.9372 10.983H40.8122L33.8232 39.44L60.4082 45.93C60.5322 45.431 60.7822 44.806 60.9072 44.183Z" fill="#61DFE5"/>
<path id="Ellipse 4" d="M30.5779 59.7839C41.7445 59.7839 50.7969 50.7316 50.7969 39.5649C50.7969 28.3983 41.7445 19.3459 30.5779 19.3459C19.4112 19.3459 10.3589 28.3983 10.3589 39.5649C10.3589 50.7316 19.4112 59.7839 30.5779 59.7839Z" fill="#17A2B8"/>
<path id="Path 3" d="M42.4352 44.807L42.3102 48.177C42.2842 48.7861 42.0223 49.3613 41.5797 49.7807C41.1372 50.2 40.5488 50.4308 39.9392 50.424H39.6922C36.1764 49.962 32.8309 48.6324 29.9572 46.555C27.2317 44.7271 24.9673 42.292 23.3422 39.441C21.5216 36.3991 20.4107 32.9857 20.0922 29.455C20.064 29.1573 20.0977 28.8571 20.1912 28.5731C20.2847 28.2891 20.436 28.0275 20.6355 27.8048C20.835 27.5821 21.0784 27.4031 21.3504 27.2791C21.6225 27.155 21.9172 27.0886 22.2162 27.084H22.4662L25.8362 27.209C26.3893 27.2141 26.9218 27.4196 27.335 27.7873C27.7482 28.1551 28.014 28.6602 28.0832 29.209C28.1997 30.3171 28.4512 31.4069 28.8322 32.454C28.9534 32.8686 28.9594 33.3084 28.8494 33.7261C28.7395 34.1439 28.5178 34.5238 28.2082 34.825L26.7082 36.198C28.2614 39.1011 30.5405 41.5521 33.3232 43.312L34.8232 41.939C35.1328 41.6418 35.5261 41.4467 35.95 41.3798C36.3739 41.313 36.8081 41.3776 37.1942 41.565C38.2362 41.9873 39.326 42.2808 40.4392 42.439C41.0084 42.511 41.5297 42.7945 41.8995 43.2333C42.2693 43.672 42.4605 44.2338 42.4352 44.807Z" fill="white"/>
</g>
</svg>
