<svg width="21" height="20" viewBox="0 0 21 20" fill="none" xmlns="http://www.w3.org/2000/svg">
<g id="briefcase">
<path id="Path 46" d="M19.1388 4.951C18.3308 4.058 16.9818 3.611 15.0238 3.611H14.7958V3.573C14.7958 1.973 14.7958 0 11.2228 0H9.77776C6.20476 0 6.20476 1.986 6.20476 3.573V3.62H5.97676C4.00976 3.62 2.66976 4.067 1.86176 4.96C1.49461 5.44 1.2322 5.99166 1.09147 6.57937C0.950748 7.16708 0.934835 7.77776 1.04476 8.372L1.05476 8.439L1.12876 9.212C1.13535 9.2822 1.15764 9.35002 1.19399 9.41043C1.23034 9.47084 1.27982 9.52231 1.33876 9.561C1.56676 9.71 1.94776 9.956 2.17676 10.083C2.30976 10.169 2.45276 10.245 2.59476 10.321C4.22284 11.2095 5.99051 11.8138 7.82176 12.108C7.90776 13.001 8.29676 14.047 10.3778 14.047C12.4588 14.047 12.8678 13.011 12.9338 12.089C14.873 11.7734 16.7374 11.1032 18.4338 10.112C18.4908 10.083 18.5338 10.055 18.5768 10.026C18.9646 9.802 19.3402 9.55731 19.7018 9.293C19.7548 9.25455 19.7992 9.2054 19.8321 9.14874C19.865 9.09207 19.8857 9.02914 19.8928 8.964L19.9078 8.828L19.9558 8.381C19.9658 8.324 19.9658 8.281 19.9748 8.21C20.0668 7.63849 20.0401 7.05413 19.8963 6.4934C19.7525 5.93267 19.4946 5.40761 19.1388 4.951ZM11.5388 11.461C11.5388 12.468 11.5388 12.62 10.3698 12.62C9.20076 12.62 9.19576 12.44 9.19576 11.47V10.27H11.5338L11.5388 11.461ZM7.56376 3.611V3.573C7.56376 1.957 7.56376 1.359 9.77776 1.359H11.2228C13.4368 1.359 13.4368 1.967 13.4368 3.573V3.62H7.56376V3.611Z" fill="#496583"/>
<path id="Path 47" d="M18.9329 11.371C19.0096 11.3348 19.0946 11.3194 19.1792 11.3263C19.2639 11.3333 19.3451 11.3624 19.415 11.4108C19.4848 11.4591 19.5406 11.5249 19.577 11.6017C19.6133 11.6784 19.6288 11.7634 19.6219 11.848L19.2809 15.606C19.0809 17.506 18.3019 19.445 14.1209 19.445H6.87586C2.69386 19.445 1.91486 17.506 1.71586 15.615L1.39186 12.053C1.38476 11.9691 1.39969 11.8849 1.43518 11.8086C1.47068 11.7322 1.5255 11.6665 1.59421 11.6179C1.66293 11.5693 1.74315 11.5395 1.82693 11.5315C1.91072 11.5234 1.99515 11.5374 2.07186 11.572C3.47066 12.2303 4.91266 12.7926 6.38786 13.255C6.46485 13.2761 6.53623 13.3139 6.59691 13.3658C6.65758 13.4176 6.70605 13.4823 6.73886 13.555C7.31586 14.789 8.56686 15.445 10.3729 15.445C11.1006 15.5227 11.835 15.3817 12.4823 15.0401C13.1296 14.6985 13.6604 14.1717 14.0069 13.527C14.0397 13.4543 14.0882 13.3897 14.1489 13.3378C14.2096 13.286 14.2809 13.2482 14.3579 13.227C15.9272 12.7238 17.4565 12.1033 18.9329 11.371Z" fill="#496583"/>
</g>
</svg>
