<svg width="16" height="16" viewBox="0 0 16 16" fill="none" xmlns="http://www.w3.org/2000/svg">
<g id="Layer 2">
<path id="Path 2082" d="M8.16812 0.148927C6.69522 0.149718 5.25562 0.587208 4.03133 1.40609C2.80704 2.22496 1.85303 3.38846 1.28992 4.74947C0.726814 6.11048 0.579889 7.6079 0.867724 9.05241C1.15556 10.4969 1.86523 11.8236 2.90701 12.8649C3.94879 13.9061 5.2759 14.615 6.72056 14.9021C8.16522 15.1892 9.66256 15.0414 11.0233 14.4776C12.384 13.9138 13.547 12.9591 14.3652 11.7344C15.1834 10.5097 15.6201 9.06983 15.6201 7.59693C15.6201 6.6185 15.4273 5.64967 15.0528 4.74578C14.6782 3.84188 14.1293 3.02064 13.4372 2.32898C12.7452 1.63732 11.9237 1.08879 11.0196 0.714724C10.1155 0.340662 9.14655 0.148401 8.16812 0.148927ZM8.16812 13.8039C6.9405 13.8039 5.74044 13.4399 4.7197 12.7579C3.69896 12.0758 2.9034 11.1064 2.4336 9.97224C1.96381 8.83806 1.84089 7.59004 2.08039 6.386C2.31989 5.18196 2.91105 4.07598 3.77911 3.20792C4.64718 2.33985 5.75316 1.74869 6.9572 1.50919C8.16124 1.26969 9.40926 1.39261 10.5434 1.86241C11.6776 2.3322 12.647 3.12777 13.3291 4.1485C14.0111 5.16924 14.3751 6.3693 14.3751 7.59693C14.3751 9.24313 13.7212 10.8219 12.5571 11.9859C11.3931 13.15 9.81432 13.8039 8.16812 13.8039Z" fill="white"/>
<path id="Path 2083" d="M8.16816 6.17006C8.00346 6.17006 7.84551 6.23548 7.72905 6.35194C7.61259 6.4684 7.54716 6.62636 7.54716 6.79106V11.0121C7.5536 11.1723 7.62178 11.3239 7.73745 11.435C7.85311 11.5461 8.00728 11.6081 8.16766 11.6081C8.32805 11.6081 8.48221 11.5461 8.59787 11.435C8.71354 11.3239 8.78173 11.1723 8.78816 11.0121V6.79006C8.7879 6.6257 8.72249 6.46816 8.60627 6.35194C8.49006 6.23573 8.33251 6.17032 8.16816 6.17006ZM8.16816 3.62506C8.00007 3.63142 7.8408 3.70192 7.72308 3.82206C7.60535 3.9422 7.53811 4.10287 7.53516 4.27106V4.37106C7.53486 4.45201 7.55143 4.53214 7.5838 4.60634C7.61618 4.68055 7.66365 4.74719 7.7232 4.80204C7.78275 4.85688 7.85306 4.89872 7.92967 4.9249C8.00628 4.95107 8.0875 4.961 8.16816 4.95406C8.33089 4.94787 8.48527 4.88046 8.60042 4.76531C8.71556 4.65017 8.78298 4.49578 8.78916 4.33306V4.18306C8.78965 4.10413 8.77341 4.02599 8.74153 3.95378C8.70964 3.88158 8.66282 3.81694 8.60416 3.76414C8.54549 3.71133 8.47631 3.67154 8.40116 3.6474C8.32601 3.62326 8.24661 3.6163 8.16816 3.62506Z" fill="white"/>
</g>
</svg>
