<svg width="19" height="15" viewBox="0 0 19 15" fill="none" xmlns="http://www.w3.org/2000/svg">
<g id="email">
<path id="Path 50" d="M18.2466 2.68373L17.5536 1.99072L11.1306 8.41373C10.7355 8.79975 10.205 9.01587 9.65259 9.01587C9.10019 9.01587 8.56972 8.79975 8.17459 8.41373L1.75159 2.02773L1.05859 2.72073L5.83959 7.50172L1.05859 12.2827L1.75159 12.9757L6.53159 8.19473L7.48059 9.14372C7.76157 9.43023 8.09646 9.65833 8.46597 9.81485C8.83548 9.97137 9.2323 10.0532 9.63359 10.0557C10.0349 10.0532 10.4317 9.97137 10.8012 9.81485C11.1707 9.65833 11.5056 9.43023 11.7866 9.14372L12.7356 8.19473L17.5166 12.9757L18.2096 12.2827L13.4286 7.50172L18.2456 2.68472" fill="#496583"/>
<path id="Path 51" d="M16.8967 14.2159H2.48271C2.07686 14.2135 1.6883 14.0513 1.40132 13.7643C1.11434 13.4773 0.952069 13.0887 0.949707 12.6829V2.39189C0.952069 1.98604 1.11434 1.59748 1.40132 1.3105C1.6883 1.02352 2.07686 0.861249 2.48271 0.858887H16.8977C17.3036 0.861249 17.6921 1.02352 17.9791 1.3105C18.2661 1.59748 18.4283 1.98604 18.4307 2.39189V12.6829C18.4283 13.0887 18.2661 13.4773 17.9791 13.7643C17.6921 14.0513 17.3026 14.2135 16.8967 14.2159ZM2.44971 1.84489C2.38219 1.84339 2.31507 1.85557 2.2524 1.88072C2.18972 1.90587 2.13278 1.94346 2.08503 1.99121C2.03728 2.03896 1.9997 2.09589 1.97455 2.15857C1.9494 2.22125 1.9372 2.28838 1.93871 2.3559V12.6469C1.9372 12.7144 1.9494 12.7815 1.97455 12.8442C1.9997 12.9069 2.03728 12.9638 2.08503 13.0116C2.13278 13.0593 2.18972 13.0969 2.2524 13.1221C2.31507 13.1472 2.38219 13.1594 2.44971 13.1579H16.8647C16.9322 13.1594 16.9993 13.1472 17.062 13.1221C17.1247 13.0969 17.1816 13.0593 17.2294 13.0116C17.2771 12.9638 17.3147 12.9069 17.3399 12.8442C17.365 12.7815 17.3772 12.7144 17.3757 12.6469V2.35989C17.3772 2.29238 17.365 2.22526 17.3399 2.16258C17.3147 2.09991 17.2771 2.04296 17.2294 1.99521C17.1816 1.94746 17.1247 1.90987 17.062 1.88472C16.9993 1.85957 16.9322 1.84739 16.8647 1.84889L2.44971 1.84489Z" fill="#496583"/>
</g>
</svg>
