<svg width="19" height="20" viewBox="0 0 19 20" fill="none" xmlns="http://www.w3.org/2000/svg">
<path id="&#240;&#159;&#148;&#185;Icon-Color" fill-rule="evenodd" clip-rule="evenodd" d="M16.1557 2.55186H15.2057V1.60186C15.2057 1.3499 15.1056 1.10826 14.9275 0.930104C14.7493 0.751944 14.5077 0.651855 14.2557 0.651855C14.0038 0.651855 13.7621 0.751944 13.584 0.930104C13.4058 1.10826 13.3057 1.3499 13.3057 1.60186V2.55186H5.70571V1.60186C5.70571 1.3499 5.60562 1.10826 5.42746 0.930104C5.2493 0.751944 5.00766 0.651855 4.75571 0.651855C4.50375 0.651855 4.26212 0.751944 4.08396 0.930104C3.9058 1.10826 3.80571 1.3499 3.80571 1.60186V2.55186H2.84971C2.60074 2.55212 2.35427 2.60151 2.12443 2.69721C1.89459 2.79291 1.6859 2.93303 1.51032 3.10954C1.33474 3.28605 1.19572 3.49548 1.10123 3.72582C1.00675 3.95617 0.958654 4.20289 0.959707 4.45186L0.949707 17.7579C0.949707 18.2618 1.14988 18.745 1.5062 19.1014C1.86252 19.4577 2.3458 19.6579 2.84971 19.6579H16.1497C16.6531 19.6563 17.1355 19.4556 17.4915 19.0996C17.8474 18.7436 18.0481 18.2613 18.0497 17.7579V4.45186C18.0481 3.94947 17.8483 3.46801 17.4936 3.11221C17.1389 2.7564 16.6581 2.55502 16.1557 2.55186ZM16.1557 16.8069C16.1549 17.0586 16.0546 17.2997 15.8766 17.4777C15.6986 17.6557 15.4574 17.7561 15.2057 17.7569H3.80071C3.54899 17.7561 3.30782 17.6557 3.12983 17.4777C2.95184 17.2997 2.8515 17.0586 2.85071 16.8069V7.30686H16.1507L16.1557 16.8069ZM4.75571 9.20686H6.64971V11.1069H4.74971L4.75571 9.20686ZM8.55571 9.20686H10.4557V11.1069H8.54971L8.55571 9.20686ZM12.3557 9.20686H14.2557V11.1069H12.3497L12.3557 9.20686Z" fill="#496583"/>
</svg>
