<svg width="35" height="40" viewBox="0 0 35 40" fill="none" xmlns="http://www.w3.org/2000/svg">
<g id="_x31_68-hubspot">
<g id="Group 382">
<path id="Path 37" d="M18.4221 16.6999C16.6972 18.3272 15.6316 20.5325 15.4287 22.8951C15.2259 25.2578 15.8998 27.6124 17.3221 29.5099L13.6481 33.2099C13.3153 33.088 12.9636 33.0254 12.6091 33.0249C12.0158 33.0249 11.4358 33.2009 10.9424 33.5305C10.4491 33.8602 10.0645 34.3287 9.83748 34.8769C9.61042 35.4251 9.55101 36.0283 9.66677 36.6102C9.78252 37.1921 10.0682 37.7267 10.4878 38.1462C10.9074 38.5658 11.4419 38.8515 12.0238 38.9673C12.6058 39.083 13.209 39.0236 13.7572 38.7966C14.3053 38.5695 14.7739 38.185 15.1035 37.6916C15.4332 37.1983 15.6091 36.6183 15.6091 36.0249C15.6115 35.7192 15.5638 35.4152 15.4681 35.1249L19.1791 31.3999C20.348 32.2943 21.7058 32.9097 23.1488 33.1993C24.5918 33.4889 26.0819 33.445 27.5054 33.0709C28.9288 32.6968 30.248 32.0025 31.3622 31.0408C32.4763 30.0791 33.3561 28.8756 33.9342 27.5222C34.5123 26.1687 34.7736 24.701 34.698 23.2311C34.6224 21.7613 34.212 20.3281 33.4981 19.0411C32.7842 17.754 31.7857 16.6471 30.5788 15.8048C29.3719 14.9625 27.9884 14.4071 26.5341 14.1809V9.60893C27.1618 9.34895 27.6969 8.90642 28.0701 8.3387C28.4433 7.77098 28.6374 7.10425 28.6271 6.42493C28.6382 5.9613 28.5565 5.50014 28.3868 5.06856C28.2171 4.63699 27.9627 4.24371 27.6387 3.91188C27.3148 3.58004 26.9277 3.31635 26.5003 3.13632C26.073 2.95628 25.6139 2.86353 25.1501 2.86353C24.6864 2.86353 24.2273 2.95628 23.7999 3.13632C23.3725 3.31635 22.9855 3.58004 22.6615 3.91188C22.3375 4.24371 22.0832 4.63699 21.9135 5.06856C21.7437 5.50014 21.662 5.9613 21.6731 6.42493C21.6629 7.10425 21.8569 7.77098 22.2301 8.3387C22.6033 8.90642 23.1384 9.34895 23.7661 9.60893V14.1509C22.6592 14.3004 21.5867 14.6419 20.5971 15.1599C18.5491 13.6099 11.8761 8.79993 8.06112 5.89993C8.31056 5.01995 8.24518 4.08052 7.87624 3.24359C7.5073 2.40665 6.85793 1.72466 6.04007 1.31517C5.22221 0.905684 4.28711 0.794366 3.39597 1.00041C2.50484 1.20645 1.7135 1.71694 1.1584 2.44387C0.603289 3.1708 0.319192 4.06863 0.355078 4.98257C0.390963 5.89651 0.744583 6.7693 1.35498 7.45047C1.96537 8.13164 2.7943 8.57851 3.69884 8.71404C4.60339 8.84958 5.52688 8.66528 6.31012 8.19293L18.4221 16.6999ZM25.0651 28.8419C24.0523 28.8419 23.0622 28.5416 22.22 27.9789C21.3779 27.4162 20.7215 26.6164 20.3339 25.6807C19.9463 24.7449 19.8449 23.7152 20.0425 22.7219C20.2401 21.7285 20.7278 20.816 21.444 20.0998C22.1602 19.3837 23.0727 18.8959 24.0661 18.6983C25.0594 18.5007 26.0891 18.6021 27.0248 18.9897C27.9606 19.3773 28.7604 20.0337 29.3231 20.8759C29.8858 21.718 30.1861 22.7081 30.1861 23.7209C30.1866 24.3939 30.0545 25.0604 29.7974 25.6823C29.5402 26.3042 29.163 26.8693 28.6873 27.3453C28.2117 27.8214 27.6468 28.199 27.0251 28.4567C26.4035 28.7143 25.7371 28.8469 25.0641 28.8469L25.0651 28.8419Z" fill="#FF7A59"/>
</g>
</g>
</svg>
