<svg width="188" height="145" viewBox="0 0 188 145" fill="none" xmlns="http://www.w3.org/2000/svg">
<g id="No Contacts">
<path id="Path 2042" d="M86.709 25.3731L2.24297 80.3931C1.5418 80.8476 0.96793 81.4732 0.575472 82.2108C0.183014 82.9485 -0.0151013 83.774 -0.000193277 84.6095C0.0147148 85.4449 0.242154 86.2628 0.660681 86.986C1.07921 87.7092 1.67503 88.3139 2.39197 88.7431L93.569 142.793C95.1653 143.747 96.998 144.232 98.8572 144.192C100.716 144.152 102.527 143.59 104.081 142.569L185.268 88.9691C185.953 88.5201 186.513 87.9047 186.896 87.1806C187.279 86.4564 187.472 85.647 187.457 84.828C187.442 84.009 187.22 83.2071 186.811 82.4973C186.402 81.7875 185.82 81.1929 185.119 80.7691L92.675 25.2991C91.776 24.7439 90.7377 24.4561 89.6812 24.4692C88.6248 24.4823 87.5938 24.7958 86.709 25.3731Z" fill="#E4E9FF"/>
<g id="phonebook1svg">
<path id="Path 2023" d="M76.3485 102.599L15.5135 67.1122C15.3112 66.998 15.082 66.94 14.8497 66.9443C14.6174 66.9487 14.3905 67.0153 14.1926 67.1371C13.9947 67.2589 13.8331 67.4315 13.7246 67.6369C13.6161 67.8424 13.5646 68.0732 13.5755 68.3052L13.7995 73.3002C13.7995 73.7472 19.2415 78.4442 19.6145 78.6682L76.4235 111.098C76.6166 111.208 76.8349 111.266 77.057 111.266C77.2792 111.266 77.4975 111.208 77.6905 111.098L103.039 97.0822C103.339 96.8582 103.188 96.4112 103.561 96.5602L109.078 98.3492C110.122 98.7222 108.631 99.6912 107.065 100.064L79.1065 116.316C78.9135 116.426 78.6952 116.484 78.473 116.484C78.2509 116.484 78.0326 116.426 77.8395 116.316L12.9795 79.6362C12.7069 79.4901 12.4944 79.2525 12.3795 78.9652L9.09952 69.5712C9.03794 69.3891 9.01287 69.1966 9.02574 69.0048C9.03861 68.813 9.08917 68.6255 9.17452 68.4532L12.0825 63.6822C12.192 63.4983 12.3456 63.3447 12.5295 63.2352L87.2295 19.9952C87.4226 19.8854 87.6409 19.8276 87.863 19.8276C88.0852 19.8276 88.3035 19.8854 88.4965 19.9952L116.16 35.5022C116.389 35.6338 116.57 35.8345 116.678 36.0756C116.786 36.3168 116.814 36.5858 116.76 36.8442L107.292 86.7943C107.262 86.9871 107.185 87.1696 107.068 87.3257C106.951 87.4818 106.797 87.6066 106.621 87.6892L77.4665 102.752C77.0885 102.847 76.6886 102.793 76.3485 102.603V102.599Z" fill="#EAECEF"/>
<path id="Path 2043" d="M101.349 90.4009L79.1396 103.075L15.2856 66.3809H13.8374L15.2856 75.6749L17.5786 77.9679L77.3257 111.885L105.811 95.4689L101.349 90.4009Z" fill="white"/>
<path id="Path 2024" d="M100.428 68.8262L65.3925 49.4432L64.7925 46.9832L88.9475 32.7432L93.0475 33.4142L113.325 45.5662L121.973 53.5432L106.019 68.0062L102.59 69.4972L100.428 68.8262Z" fill="#DDE4EB"/>
<path id="Rectangle 603" d="M47.8309 61.1258L47.0854 62.417L77.7522 80.123L78.4977 78.8318L47.8309 61.1258Z" fill="#CBD6E5"/>
<path id="Rectangle 604" d="M51.184 68.1341L50.4385 69.4253L67.8061 79.4528L68.5516 78.1616L51.184 68.1341Z" fill="#CBD6E5"/>
<path id="Path 2025" d="M102.293 70.3921C101.075 70.4218 99.8703 70.1395 98.7927 69.5721L65.9857 50.6361C65.5176 50.4098 65.1187 50.0623 64.8303 49.6297C64.5419 49.1971 64.3746 48.6952 64.3457 48.1761C64.3972 47.5283 64.6262 46.9073 65.0076 46.3813C65.389 45.8552 65.9081 45.4444 66.5077 45.1941L86.4877 33.6381C88.8737 32.2961 92.3777 32.1471 94.4647 33.3381L116.682 46.1611L115.936 47.4281L93.7197 34.6071C92.6914 34.1424 91.5679 33.9274 90.4407 33.9795C89.3136 34.0316 88.2147 34.3495 87.2337 34.9071L67.2537 46.4611C66.3587 46.9831 65.8377 47.5791 65.8377 48.1761C65.868 48.4363 65.9668 48.6839 66.1241 48.8935C66.2813 49.1031 66.4913 49.2672 66.7327 49.3691L99.5327 68.3051C100.561 68.7698 101.685 68.9848 102.812 68.9327C103.939 68.8805 105.038 68.5627 106.019 68.0051L115.86 62.3391L116.606 63.6061L106.765 69.2721C105.392 70.0165 103.854 70.4018 102.293 70.3921Z" fill="#CBD6E5"/>
<path id="Rectangle 605" d="M87.6591 41.0608L86.9136 42.3521L108.736 54.9516L109.481 53.6603L87.6591 41.0608Z" fill="#CBD6E5"/>
<path id="Rectangle 606" d="M88.768 48.5218L88.0225 49.813L97.3198 55.181L98.0653 53.8898L88.768 48.5218Z" fill="#CBD6E5"/>
<path id="Rectangle 607" d="M77.2992 46.387L76.5537 47.6782L103.928 63.4832L104.673 62.192L77.2992 46.387Z" fill="#CBD6E5"/>
<path id="Path 2027" d="M77.3915 112.887C77.2625 112.899 77.133 112.873 77.0185 112.812L18.2715 78.9662C16.6248 77.8994 15.2534 76.4589 14.2688 74.7618C13.2842 73.0648 12.7143 71.1592 12.6055 69.2002V68.0822C12.6066 67.528 12.6819 66.9764 12.8295 66.4422C12.8547 66.2997 12.9281 66.1702 13.0373 66.0752C13.1464 65.9802 13.2849 65.9255 13.4295 65.9202C14.6106 65.7716 15.8051 66.0635 16.7845 66.7402L78.5845 102.301L116.305 80.3822L117.051 81.6492L78.9515 103.716C78.8408 103.789 78.7111 103.828 78.5785 103.828C78.4459 103.828 78.3162 103.789 78.2055 103.716L76.9385 102.97C76.8763 103.54 76.8512 104.113 76.8635 104.685C76.8723 107.126 77.3009 109.547 78.1305 111.842C78.1943 112.03 78.1835 112.236 78.1003 112.416C78.0171 112.596 77.8679 112.738 77.6835 112.811C77.6085 112.886 77.5345 112.886 77.3835 112.886L77.3915 112.887ZM14.1715 67.3322C14.1715 67.5562 14.0965 67.8542 14.0965 68.0782V69.1962C14.2056 70.8965 14.7065 72.5484 15.56 74.023C16.4135 75.4975 17.5965 76.7547 19.0165 77.6962L76.1985 110.574C75.6654 108.681 75.3896 106.726 75.3785 104.759C75.3785 103.939 75.4535 103.119 75.5275 102.224L15.9605 67.9322C15.4118 67.6112 14.8027 67.4069 14.1715 67.3322Z" fill="#CBD6E5"/>
<path id="Path 2028" d="M78.5846 118.18C78.4589 118.162 78.3343 118.137 78.2116 118.105L16.0356 82.3211C13.9824 80.9776 12.2724 79.1719 11.0428 77.0486C9.81314 74.9253 9.09795 72.5435 8.95456 70.0941V68.9011C8.908 67.8319 9.16675 66.7716 9.70056 65.8441C10.335 64.7866 11.2343 63.9129 12.3096 63.3091L87.9096 19.5471C88.0202 19.474 88.1499 19.4351 88.2826 19.4351C88.4152 19.4351 88.5449 19.474 88.6556 19.5471L116.986 35.8741L116.24 37.1411L88.2826 21.0411L13.0546 64.5771C12.2044 65.0669 11.4877 65.7582 10.9676 66.5901C10.5447 67.2574 10.3353 68.0377 10.3676 68.8271V70.0941C10.4869 72.2906 11.1231 74.4279 12.2242 76.3321C13.3254 78.2364 14.8604 79.8539 16.7046 81.0531L78.5046 116.614L116.005 94.8451L116.751 96.1121L78.9546 118.031C78.8532 118.124 78.7218 118.177 78.5846 118.18Z" fill="#CBD6E5"/>
<path id="Rectangle 608" d="M116.101 89.137L77.0884 111.475L77.8293 112.769L116.842 90.4309L116.101 89.137Z" fill="#CBD6E5"/>
<g id="Group 805">
<path id="Path 2030" d="M176.993 13.8818L177.142 58.2408C177.09 59.1788 176.821 60.0918 176.355 60.9076C175.889 61.7234 175.24 62.4195 174.458 62.9408L112.952 98.4278C111.461 99.3228 110.268 98.5768 110.194 96.8618L110.045 52.4998L176.993 13.8818Z" fill="white"/>
<path id="Path 2031" d="M175.056 7.02311C176.547 6.12811 177.74 6.8741 177.814 8.5891V14.4041L110.792 53.0221V47.2071C110.843 46.2691 111.113 45.3561 111.579 44.5403C112.045 43.7246 112.694 43.0285 113.476 42.5071L175.056 7.02311Z" fill="#DDE4EB"/>
<path id="Path 2032" d="M115.712 42.658C116.532 42.211 117.203 42.509 117.203 43.553C117.18 44.0752 117.033 44.5845 116.774 45.0383C116.514 45.4921 116.15 45.8774 115.712 46.162C114.892 46.609 114.221 46.237 114.221 45.267C114.237 44.7433 114.381 44.2315 114.641 43.7766C114.901 43.3217 115.269 42.9376 115.712 42.658ZM122.198 38.93C123.018 38.408 123.689 38.781 123.689 39.825C123.657 40.345 123.506 40.8508 123.247 41.3032C122.989 41.7555 122.63 42.1424 122.198 42.434C121.378 42.881 120.707 42.509 120.707 41.539C120.698 41.0103 120.832 40.4889 121.094 40.0298C121.356 39.5707 121.738 39.1907 122.198 38.93ZM128.609 35.202C129.429 34.68 130.1 35.053 130.1 36.097C130.068 36.617 129.917 37.1228 129.658 37.5752C129.4 38.0275 129.041 38.4144 128.609 38.706C127.789 39.153 127.118 38.781 127.118 37.811C127.14 37.2888 127.287 36.7795 127.547 36.3257C127.806 35.8719 128.17 35.4866 128.609 35.202ZM126.149 56.151C128.013 55.107 129.504 55.927 129.504 58.015C129.44 59.1795 129.103 60.3126 128.52 61.3228C127.937 62.333 127.125 63.1918 126.149 63.83C124.36 64.874 122.794 64.054 122.794 61.892C122.874 60.7417 123.219 59.6254 123.8 58.6299C124.382 57.6344 125.186 56.7855 126.149 56.151Z" fill="#CBD6E5"/>
<path id="Path 2033" d="M133.753 73.0762C134.097 72.8483 134.38 72.5383 134.575 72.174C134.771 71.8096 134.872 71.4025 134.871 70.9892C134.2 66.5162 130.547 64.8762 126.148 67.4892C121.748 70.0242 118.171 75.8392 117.574 81.0572C117.499 81.8772 118.021 82.3242 118.692 81.8772L133.752 73.0772M126.152 56.3032C124.943 57.0852 123.936 58.1405 123.211 59.3838C122.485 60.627 122.063 62.0234 121.977 63.4602C121.977 66.1442 123.841 67.1882 126.152 65.9202C127.369 65.1295 128.381 64.062 129.107 62.8051C129.832 61.5482 130.25 60.1375 130.327 58.6882C130.327 56.0042 128.463 54.9612 126.152 56.3032Z" fill="#CBD6E5"/>
<path id="Path 2034" d="M161.189 43.7769V47.3559L140.165 59.5079V55.9289L161.189 43.7769Z" fill="#CBD6E5"/>
<path id="Path 2035" d="M147.844 43.0322V46.5322L140.165 51.0052L140.09 47.5052L147.844 43.0322Z" fill="#CBD6E5"/>
<path id="Path 2036" d="M171.999 29.0898V32.5898L153.137 43.4788V39.9788L171.999 29.0898Z" fill="#CBD6E5"/>
<path id="Path 2037" d="M171.999 37.5889V41.2419L164.469 45.5659V41.9129L171.999 37.5889Z" fill="#CBD6E5"/>
<path id="Path 2038" d="M148.589 59.2842V62.7842L140.165 67.7042V64.1252L148.589 59.2842Z" fill="#CBD6E5"/>
<path id="Path 2039" d="M171.999 45.79V49.29L151.199 61.29V57.79L171.999 45.79Z" fill="#CBD6E5"/>
<path id="Path 2040" d="M177.146 4.63706L168.197 0.164062L101.846 39.6771L103.188 92.9071L111.016 98.7221L110.266 43.9721L177.146 4.63706Z" fill="#EAECEF"/>
<path id="Path 2041" d="M103.038 96.3361L109.822 100.287C110.431 100.694 111.151 100.905 111.883 100.892C112.616 100.879 113.327 100.641 113.922 100.212L175.428 64.6511C176.522 63.9649 177.434 63.0227 178.083 61.9058C178.733 60.789 179.101 59.5309 179.156 58.2401L179.007 8.06612C179.067 7.37471 178.922 6.6809 178.591 6.07115C178.259 5.46141 177.756 4.96268 177.143 4.63712L170.21 0.61112C169.597 0.318958 168.92 0.186303 168.242 0.225462C167.565 0.264621 166.908 0.474324 166.333 0.835119L104.828 36.3221C103.733 37.0084 102.822 37.9505 102.172 39.0674C101.523 40.1843 101.155 41.4423 101.1 42.7331L101.249 92.9071C101.214 93.5862 101.362 94.2621 101.677 94.8649C101.991 95.4677 102.461 95.9756 103.038 96.3361ZM104.976 42.7361C104.996 42.4825 105.046 42.2322 105.125 41.9901L109.525 44.5991C109.294 45.1943 109.167 45.8249 109.152 46.4631C109.227 65.3251 109.077 19.8481 109.227 95.3691L105.201 93.0581C105.126 85.6771 104.977 39.8281 104.977 42.7351L104.976 42.7361ZM175.5 6.79912C176.022 6.79912 176.1 7.47012 176.1 7.84312V13.1361C77.1686 70.2431 124.137 43.1811 110.941 50.7101V46.4611C110.992 45.6868 111.22 44.9346 111.608 44.2624C111.996 43.5902 112.533 43.0161 113.178 42.5841C177.293 5.68412 174.907 6.79912 175.504 6.79912H175.5ZM173.934 62.1911C109.446 99.3181 112.428 97.9761 111.608 97.9761C111.086 97.9761 111.008 97.3761 111.008 96.9321C110.784 30.2821 110.933 61.9671 110.859 53.0951C124.059 45.4951 77.0116 72.6281 176.018 15.5211L176.1 58.3141C176.083 59.0877 175.877 59.8454 175.5 60.5212C175.123 61.1969 174.587 61.7703 173.938 62.1911H173.934ZM106.691 39.6761L168.2 4.19012C168.229 4.1617 168.264 4.14022 168.303 4.12724C168.342 4.11426 168.383 4.11012 168.424 4.11512L172.301 6.35212L112.283 41.0181C111.486 41.5198 110.801 42.1794 110.27 42.9561L105.946 40.3451C106.173 40.0997 106.422 39.8758 106.691 39.6761Z" fill="#CBD6E5"/>
</g>
</g>
</g>
</svg>
