<svg width="17" height="17" viewBox="0 0 17 17" fill="none" xmlns="http://www.w3.org/2000/svg">
<path id="phone-call (1)" d="M16.3569 12.3008C16.3129 12.2658 13.1439 9.98178 12.2739 10.1458C11.8589 10.2188 11.6209 10.5028 11.1449 11.0698C11.0679 11.1618 10.8839 11.3808 10.7449 11.5368C10.4438 11.4385 10.15 11.3189 9.8659 11.1788C8.399 10.4648 7.21384 9.27968 6.4999 7.81278C6.35973 7.52871 6.24009 7.23495 6.1419 6.93378C6.2989 6.78978 6.5179 6.60578 6.6119 6.52678C7.1759 6.05278 7.4599 5.81578 7.5339 5.39878C7.6809 4.53678 5.3999 1.34578 5.3749 1.31678C5.27123 1.16888 5.13599 1.04586 4.97896 0.956616C4.82193 0.867377 4.64703 0.814149 4.4669 0.800781C3.5419 0.800781 0.899902 4.22778 0.899902 4.80078C0.899902 4.83478 0.947902 8.24378 5.1529 12.5198C9.4249 16.7198 12.8339 16.7678 12.8669 16.7678C13.4449 16.7678 16.8669 14.1258 16.8669 13.2008C16.8536 13.0213 16.8006 12.847 16.7117 12.6905C16.6228 12.5339 16.5003 12.3991 16.3529 12.2958L16.3569 12.3008Z" fill="#496583"/>
</svg>
