<svg width="19" height="20" viewBox="0 0 19 20" fill="none" xmlns="http://www.w3.org/2000/svg">
<g id="user">
<path id="Path 48" opacity="0.4" d="M9.60482 9.65006C10.5429 9.65006 11.4599 9.37189 12.2399 8.85073C13.0199 8.32956 13.6278 7.5888 13.9868 6.72213C14.3458 5.85546 14.4397 4.9018 14.2567 3.98175C14.0737 3.0617 13.6219 2.21658 12.9586 1.55326C12.2953 0.889937 11.4502 0.43821 10.5301 0.2552C9.61008 0.0721904 8.65642 0.166118 7.78975 0.525104C6.92308 0.88409 6.18232 1.49201 5.66116 2.27199C5.13999 3.05198 4.86182 3.96899 4.86182 4.90706C4.86182 6.16499 5.36152 7.37139 6.25101 8.26087C7.14049 9.15036 8.34689 9.65006 9.60482 9.65006Z" fill="#496583"/>
<path id="Path 49" d="M9.6059 12.021C4.8539 12.021 0.983904 15.208 0.983904 19.135C0.983371 19.1974 0.995267 19.2593 1.0189 19.317C1.04253 19.3748 1.07742 19.4272 1.12155 19.4714C1.16567 19.5155 1.21813 19.5504 1.27588 19.574C1.33363 19.5976 1.39551 19.6095 1.4579 19.609H17.7579C17.8203 19.6095 17.8822 19.5976 17.9399 19.574C17.9977 19.5504 18.0501 19.5155 18.0943 19.4714C18.1384 19.4272 18.1733 19.3748 18.1969 19.317C18.2205 19.2593 18.2324 19.1974 18.2319 19.135C18.2279 15.208 14.3579 12.021 9.6059 12.021Z" fill="#496583"/>
</g>
</svg>
