<svg width="25" height="25" viewBox="0 0 25 25" fill="none" xmlns="http://www.w3.org/2000/svg">
<path id="search (1)" fill-rule="evenodd" clip-rule="evenodd" d="M2.60823 3.71497C4.17609 2.10794 6.28353 1.13848 8.524 0.993564C10.7645 0.848649 12.9792 1.53856 14.7411 2.93022C16.5029 4.32188 17.6869 6.31667 18.0648 8.5298C18.4426 10.7429 17.9875 13.0176 16.7872 14.915L23.6732 21.609C24.025 21.9512 24.2265 22.4192 24.2332 22.91C24.24 23.4008 24.0515 23.8742 23.7092 24.226C23.367 24.5778 22.899 24.7792 22.4082 24.786C21.9174 24.7927 21.444 24.6042 21.0922 24.262L14.2062 17.568C12.3441 18.8299 10.0798 19.3559 7.85203 19.044C5.62427 18.7321 3.59153 17.6045 2.14752 15.8797C0.703513 14.1548 -0.0489958 11.9555 0.0357492 9.70755C0.120494 7.45965 1.03645 5.3232 2.60623 3.71198L2.60823 3.71497ZM4.50824 5.57097C5.3941 4.66018 6.53016 4.03253 7.77273 3.7674C9.01531 3.50226 10.3086 3.61155 11.4891 4.08144C12.6695 4.55133 13.6842 5.36071 14.4046 6.40724C15.1251 7.45378 15.519 8.69045 15.5366 9.96088C15.5543 11.2313 15.1948 12.4784 14.5036 13.5445C13.8125 14.6107 12.8207 15.4479 11.6537 15.9503C10.4867 16.4528 9.19695 16.5979 7.94749 16.3673C6.69804 16.1367 5.54501 15.5408 4.63423 14.655C4.02979 14.0666 3.54718 13.3649 3.21393 12.59C2.88067 11.8151 2.70331 10.9822 2.69198 10.1387C2.68066 9.29529 2.83558 8.45789 3.1479 7.67432C3.46022 6.89075 3.92382 6.17637 4.51224 5.57198L4.50824 5.57097Z" fill="#00A5BB"/>
</svg>
