<svg width="19" height="20" viewBox="0 0 19 20" fill="none" xmlns="http://www.w3.org/2000/svg">
<g id="user-tag">
<path id="Path 52" opacity="0.4" d="M15.2047 16.7792H14.4827C14.1089 16.7776 13.7385 16.8498 13.3927 16.9917C13.047 17.1336 12.7326 17.3425 12.4677 17.6062L10.8427 19.2122C10.4835 19.5641 10.0006 19.7612 9.49771 19.7612C8.99481 19.7612 8.51195 19.5641 8.15271 19.2122L6.52871 17.6062C5.99266 17.0751 5.26825 16.7778 4.51371 16.7792H3.80071C3.42807 16.7813 3.05868 16.7099 2.71365 16.5691C2.36863 16.4283 2.05474 16.2209 1.78995 15.9587C1.52516 15.6965 1.31465 15.3847 1.17048 15.0411C1.0263 14.6975 0.951278 14.3288 0.949707 13.9562V3.58916C0.951278 3.21652 1.0263 2.84785 1.17048 2.50423C1.31465 2.16061 1.52516 1.84879 1.78995 1.5866C2.05474 1.3244 2.36863 1.11699 2.71365 0.976208C3.05868 0.83543 3.42807 0.764052 3.80071 0.766159H15.2007C15.5733 0.764052 15.9427 0.83543 16.2878 0.976208C16.6328 1.11699 16.9467 1.3244 17.2115 1.5866C17.4763 1.84879 17.6868 2.16061 17.8309 2.50423C17.9751 2.84785 18.0501 3.21652 18.0517 3.58916V13.9562C18.0469 14.7076 17.7447 15.4265 17.2111 15.9555C16.6776 16.4846 15.9561 16.7808 15.2047 16.7792Z" fill="#496583"/>
<path id="Path 53" d="M9.50257 8.74929C9.94042 8.74929 10.3684 8.61947 10.7325 8.37623C11.0966 8.133 11.3803 7.78728 11.5479 7.38278C11.7155 6.97829 11.7595 6.53317 11.6741 6.10373C11.5888 5.67428 11.378 5.27978 11.0685 4.97011C10.7589 4.66044 10.3645 4.44949 9.93512 4.36395C9.50571 4.27841 9.06058 4.32211 8.65601 4.48953C8.25143 4.65695 7.90558 4.94057 7.66219 5.30453C7.41879 5.66849 7.28877 6.09645 7.28857 6.53429C7.28844 6.82512 7.34561 7.11313 7.45682 7.38186C7.56802 7.65059 7.73108 7.89478 7.93669 8.10047C8.14229 8.30617 8.3864 8.46934 8.65508 8.58066C8.92376 8.69199 9.21174 8.74929 9.50257 8.74929Z" fill="#496583"/>
<path id="Path 54" d="M12.0486 13.17C12.2223 13.1702 12.3927 13.123 12.5415 13.0335C12.6904 12.9439 12.8119 12.8155 12.8931 12.662C12.9743 12.5084 13.012 12.3356 13.0022 12.1622C12.9925 11.9888 12.9355 11.8214 12.8376 11.678C12.4523 11.1609 11.9478 10.7446 11.3669 10.4647C10.786 10.1847 10.1461 10.0493 9.50159 10.07C8.85728 10.049 8.21744 10.1841 7.63659 10.4638C7.05574 10.7434 6.55108 11.1593 6.16559 11.676C6.0671 11.8194 6.00972 11.9871 5.99965 12.1608C5.98958 12.3345 6.0272 12.5076 6.10846 12.6615C6.18972 12.8154 6.3115 12.9441 6.46064 13.0337C6.60978 13.1233 6.78059 13.1704 6.95459 13.17H12.0486Z" fill="#496583"/>
</g>
</svg>
