<svg width="19" height="20" viewBox="0 0 19 20" fill="none" xmlns="http://www.w3.org/2000/svg">
<g id="add-user (2)">
<path id="Path 2344" d="M7.88113 8.05176C8.67226 8.05176 9.44562 7.81716 10.1034 7.37764C10.7612 6.93811 11.2739 6.3134 11.5766 5.58249C11.8794 4.85159 11.9586 4.04732 11.8043 3.2714C11.6499 2.49547 11.269 1.78274 10.7096 1.22333C10.1501 0.663922 9.43742 0.282959 8.66149 0.128618C7.88557 -0.0257224 7.0813 0.0534909 6.3504 0.356241C5.61949 0.658992 4.99478 1.17168 4.55525 1.82948C4.11573 2.48728 3.88113 3.26063 3.88113 4.05176C3.87968 4.57745 3.98215 5.09825 4.18266 5.58421C4.38316 6.07017 4.67774 6.5117 5.04947 6.88342C5.42119 7.25515 5.86272 7.54973 6.34868 7.75023C6.83464 7.95074 7.35544 8.05321 7.88113 8.05176ZM10.3001 15.1008C10.2992 14.0361 10.6588 13.0025 11.3203 12.1683C11.9818 11.3341 12.9063 10.7485 13.9431 10.5068C13.4024 9.83967 12.745 9.27621 12.0031 8.84376C11.9371 8.80479 11.8618 8.78424 11.7851 8.78424C11.7085 8.78424 11.6332 8.80479 11.5671 8.84376C10.4946 9.61659 9.20611 10.0324 7.88413 10.0324C6.56216 10.0324 5.27368 9.61659 4.20113 8.84376C4.13867 8.79559 4.06201 8.76947 3.98313 8.76947C3.90425 8.76947 3.8276 8.79559 3.76513 8.84376C2.60921 9.54473 1.65474 10.5334 0.994878 11.7133C0.335011 12.8931 -0.00771876 14.2239 0.000131899 15.5758C0.0172599 15.9734 0.130677 16.361 0.33064 16.7052C0.530603 17.0494 0.811134 17.3399 1.14813 17.5518C2.61313 18.6208 5.26713 19.0958 7.84113 19.0958C9.19947 19.1008 10.5542 18.9545 11.8801 18.6598C11.3808 18.2114 10.9819 17.6625 10.7096 17.0492C10.4373 16.4358 10.2978 15.7718 10.3001 15.1008Z" fill="white"/>
<path id="Path 2345" d="M15.0093 11.1797C14.2261 11.1797 13.4605 11.4119 12.8093 11.8471C12.158 12.2822 11.6505 12.9007 11.3508 13.6243C11.051 14.3479 10.9726 15.1441 11.1254 15.9122C11.2782 16.6804 11.6554 17.386 12.2092 17.9398C12.763 18.4936 13.4686 18.8708 14.2368 19.0236C15.0049 19.1764 15.8011 19.098 16.5247 18.7983C17.2483 18.4985 17.8668 17.991 18.3019 17.3397C18.7371 16.6885 18.9693 15.9229 18.9693 15.1397C18.9661 14.0904 18.5479 13.085 17.806 12.343C17.064 11.6011 16.0586 11.1829 15.0093 11.1797ZM16.5493 15.4967H15.4053V16.6057C15.3917 16.701 15.3442 16.7883 15.2715 16.8514C15.1987 16.9145 15.1056 16.9493 15.0093 16.9493C14.913 16.9493 14.8199 16.9145 14.7472 16.8514C14.6744 16.7883 14.6269 16.701 14.6133 16.6057V15.4967H13.5043C13.4476 15.5048 13.3898 15.5006 13.3348 15.4844C13.2799 15.4682 13.229 15.4404 13.1858 15.4028C13.1425 15.3653 13.1078 15.3189 13.084 15.2667C13.0602 15.2146 13.0479 15.158 13.0479 15.1007C13.0479 15.0434 13.0602 14.9868 13.084 14.9346C13.1078 14.8825 13.1425 14.8361 13.1858 14.7986C13.229 14.761 13.2799 14.7332 13.3348 14.717C13.3898 14.7008 13.4476 14.6966 13.5043 14.7047H14.6133V13.5957C14.6052 13.539 14.6094 13.4812 14.6256 13.4262C14.6418 13.3712 14.6696 13.3204 14.7072 13.2771C14.7447 13.2338 14.7911 13.1991 14.8433 13.1754C14.8954 13.1516 14.952 13.1393 15.0093 13.1393C15.0666 13.1393 15.1232 13.1516 15.1754 13.1754C15.2275 13.1991 15.2739 13.2338 15.3115 13.2771C15.349 13.3204 15.3768 13.3712 15.393 13.4262C15.4092 13.4812 15.4134 13.539 15.4053 13.5957V14.7047H16.5143C16.5678 14.7008 16.6216 14.7085 16.6719 14.7272C16.7221 14.746 16.7678 14.7753 16.8057 14.8133C16.8437 14.8512 16.873 14.8969 16.8918 14.9472C16.9105 14.9974 16.9182 15.0512 16.9143 15.1047C16.9179 15.1548 16.9111 15.2051 16.8944 15.2525C16.8776 15.2999 16.8513 15.3433 16.8171 15.3801C16.7829 15.4169 16.7414 15.4462 16.6953 15.4663C16.6493 15.4863 16.5996 15.4967 16.5493 15.4967Z" fill="white"/>
</g>
</svg>
