<svg width="60" height="60" viewBox="0 0 60 60" fill="none" xmlns="http://www.w3.org/2000/svg">
<g id="Frame" clip-path="url(#clip0_321_2)">
<g id="Group 1001">
<g id="Rectangle 670">
<path id="Vector" d="M60 30C60 13.4315 46.5685 0 30 0C13.4315 0 0 13.4315 0 30C0 46.5685 13.4315 60 30 60C46.5685 60 60 46.5685 60 30Z" fill="white"/>
<path id="Vector_2" d="M59.5 30C59.5 13.7076 46.2924 0.5 30 0.5C13.7076 0.5 0.5 13.7076 0.5 30C0.5 46.2924 13.7076 59.5 30 59.5C46.2924 59.5 59.5 46.2924 59.5 30Z" stroke="#DDE5EC"/>
</g>
<path id="backspace (1)" d="M28.9686 30.4449L25.5556 27.0319C25.4122 26.8817 25.3332 26.6814 25.3356 26.4737C25.338 26.2661 25.4216 26.0676 25.5684 25.9208C25.7153 25.7739 25.9137 25.6904 26.1214 25.688C26.3291 25.6856 26.5294 25.7645 26.6796 25.9079L30.0926 29.3209L33.5056 25.9079C33.6558 25.7645 33.8561 25.6856 34.0638 25.688C34.2715 25.6904 34.4699 25.7739 34.6168 25.9208C34.7636 26.0676 34.8472 26.2661 34.8496 26.4737C34.852 26.6814 34.773 26.8817 34.6296 27.0319L31.2146 30.4449L34.6276 33.8579C34.7042 33.9311 34.7654 34.0188 34.8077 34.116C34.8499 34.2132 34.8723 34.3178 34.8735 34.4237C34.8747 34.5297 34.8548 34.6348 34.8148 34.7329C34.7748 34.831 34.7156 34.9201 34.6407 34.995C34.5658 35.07 34.4767 35.1291 34.3786 35.1691C34.2805 35.2091 34.1753 35.2291 34.0694 35.2278C33.9635 35.2266 33.8588 35.2042 33.7617 35.162C33.6645 35.1198 33.5768 35.0585 33.5036 34.9819L30.0906 31.5689L26.6776 34.9819C26.5274 35.1253 26.3271 35.2043 26.1194 35.2019C25.9117 35.1995 25.7133 35.1159 25.5664 34.9691C25.4196 34.8222 25.336 34.6238 25.3336 34.4161C25.3312 34.2085 25.4102 34.0081 25.5536 33.8579L28.9686 30.4449ZM11.2026 29.9309L19.9466 19.5969C20.0212 19.5087 20.1142 19.4378 20.219 19.3893C20.3239 19.3408 20.4381 19.3157 20.5536 19.3159H38.0416C39.3068 19.3164 40.5201 19.8191 41.415 20.7134C42.3099 21.6078 42.8133 22.8207 42.8146 24.0859V36.8049C42.8133 38.0696 42.3103 39.2821 41.416 40.1764C40.5218 41.0706 39.3093 41.5736 38.0446 41.5749H20.5536C20.4381 41.5751 20.3239 41.5501 20.219 41.5016C20.1142 41.453 20.0212 41.3822 19.9466 41.2939L11.2026 30.9589C11.0818 30.8149 11.0156 30.6329 11.0156 30.4449C11.0156 30.2569 11.0818 30.075 11.2026 29.9309ZM20.9216 39.9839H38.0416C38.8847 39.9829 39.6929 39.6475 40.289 39.0513C40.8852 38.4552 41.2205 37.647 41.2216 36.8039V24.0859C41.2205 23.2429 40.8852 22.4346 40.289 21.8385C39.6929 21.2424 38.8847 20.907 38.0416 20.9059H20.9216L12.8516 30.4449L20.9216 39.9839Z" fill="#33475B"/>
</g>
</g>
<defs>
<clipPath id="clip0_321_2">
<rect width="60" height="60" fill="white"/>
</clipPath>
</defs>
</svg>
