<svg width="75" height="75" viewBox="0 0 75 75" fill="none" xmlns="http://www.w3.org/2000/svg">
<g id="Group 988">
<g id="Ellipse 179">
<path id="Vector" d="M37.5 75C58.2107 75 75 58.2107 75 37.5C75 16.7893 58.2107 0 37.5 0C16.7893 0 0 16.7893 0 37.5C0 58.2107 16.7893 75 37.5 75Z" fill="url(#paint0_linear_164_113)"/>
</g>
<path id="call" d="M21.8612 24.525C21.6693 31.7829 24.3374 38.8255 29.2901 44.1344C34.2428 49.4433 41.0835 52.5933 48.3372 52.905H50.2372C50.9121 52.8604 51.5479 52.5722 52.0261 52.0939C52.5044 51.6156 52.7927 50.9799 52.8372 50.305L53.0102 44.594C53.0181 44.2737 52.9607 43.9551 52.8417 43.6576C52.7227 43.3601 52.5445 43.0899 52.318 42.8633C52.0914 42.6367 51.8212 42.4585 51.5237 42.3395C51.2261 42.2205 50.9076 42.1632 50.5872 42.171C48.6612 42.1972 46.7403 41.9645 44.8762 41.479C44.4634 41.3369 44.0195 41.3102 43.5926 41.4016C43.1656 41.4931 42.7717 41.6993 42.4532 41.998L38.8192 44.767C35.0855 43.0233 32.084 40.0218 30.3402 36.288L33.1092 32.654C33.4261 32.3088 33.6545 31.8919 33.775 31.4391C33.8955 30.9863 33.9045 30.5111 33.8012 30.054C33.2312 28.207 32.9969 26.2727 33.1092 24.343C33.1164 24.0231 33.0585 23.7051 32.9392 23.4082C32.8199 23.1112 32.6416 22.8416 32.4151 22.6156C32.1886 22.3895 31.9186 22.2118 31.6215 22.0931C31.3243 21.9744 31.0061 21.9172 30.6862 21.925L24.6292 22.098C23.9603 22.1265 23.3212 22.3826 22.8178 22.824C22.3144 23.2654 21.9769 23.8656 21.8612 24.525Z" fill="white"/>
</g>
<defs>
<linearGradient id="paint0_linear_164_113" x1="10.8" y1="12.9" x2="62.175" y2="65.55" gradientUnits="userSpaceOnUse">
<stop stop-color="#00F0B2"/>
<stop offset="1" stop-color="#01DEE2"/>
</linearGradient>
</defs>
</svg>
