<svg width="77" height="77" viewBox="0 0 77 77" fill="none" xmlns="http://www.w3.org/2000/svg">
<g id="Group 232">
<path id="Ellipse 13" d="M38.5 77C59.763 77 77 59.763 77 38.5C77 17.237 59.763 0 38.5 0C17.237 0 0 17.237 0 38.5C0 59.763 17.237 77 38.5 77Z" fill="#FF5969"/>
<path id="call" d="M18.4775 35.9508C20.0138 34.4715 21.8313 33.3157 23.8225 32.5518C26.0655 31.6691 28.3992 31.0371 30.7811 30.6673C33.3254 30.2806 35.894 30.075 38.4674 30.0522C41.0369 30.0635 43.602 30.2651 46.1416 30.6553C48.5022 31.0239 50.815 31.6516 53.038 32.527C55.0346 33.3055 56.856 34.474 58.3958 35.9643C59.3304 36.8913 60.0824 37.9858 60.6126 39.1908C61.1565 40.466 61.4085 41.8467 61.3501 43.2319C61.3751 44.0779 61.2301 44.9202 60.9236 45.7091C60.6172 46.498 60.1556 47.2173 59.5661 47.8246C59.0845 48.3043 58.5048 48.6741 57.8669 48.9086C57.1704 49.1722 56.4139 49.2354 55.6833 49.091L48.7954 47.9179C48.2322 47.8356 47.6817 47.6823 47.157 47.4618C46.6563 47.2733 46.1995 46.984 45.8149 46.6119C45.3405 46.128 45.0081 45.5231 44.854 44.8632C44.6955 44.252 44.6208 43.6221 44.632 42.9908L44.5945 41.2789C44.5548 41.2592 44.5137 41.2427 44.4714 41.2294C43.6915 41.0394 42.8961 40.9199 42.0949 40.8723C40.8023 40.786 39.6065 40.7245 38.4617 40.7125C37.0207 40.7252 35.8511 40.762 34.8166 40.8603C33.987 40.9056 33.1649 41.042 32.3651 41.2669L32.3283 41.1806L32.3156 42.9668C32.3289 43.6286 32.2412 44.2886 32.0554 44.924C31.9101 45.4989 31.6279 46.0302 31.2329 46.4724C30.8379 46.9147 30.3418 47.2549 29.787 47.4639C29.2667 47.6723 28.7258 47.825 28.1733 47.9193L21.1772 49.1016C20.4562 49.2533 19.7065 49.1889 19.022 48.9163C18.4254 48.6691 17.8819 48.3095 17.4211 47.8571C16.8231 47.2537 16.3647 46.5264 16.0783 45.7266C15.7871 44.9362 15.6208 44.1053 15.5854 43.2637C15.4915 41.8838 15.7193 40.5009 16.2508 39.224C16.7741 37.9991 17.5303 36.8874 18.4775 35.9508ZM57.7184 45.9769C58.0674 45.6031 58.3377 45.163 58.5133 44.6827C58.689 44.2024 58.7664 43.6918 58.7409 43.181C58.7897 42.172 58.6091 41.1651 58.2126 40.2359C57.8213 39.3269 57.2566 38.5029 56.5502 37.8098C55.261 36.568 53.7366 35.5965 52.0665 34.9524C50.027 34.1492 47.9033 33.5792 45.7357 33.2532C43.3357 32.8776 40.9108 32.684 38.4815 32.6741C36.0442 32.6858 33.6112 32.8791 31.2026 33.2525C29.0157 33.5771 26.8743 34.1569 24.8224 34.98C21.8164 36.187 19.6371 37.9477 18.6882 40.2515C18.3096 41.171 18.1493 42.1658 18.2201 43.1577C18.2445 43.7468 18.3609 44.3285 18.5652 44.8816C18.716 45.3214 18.9642 45.7215 19.2914 46.0519C19.5042 46.2644 19.7607 46.4282 20.043 46.532C20.2745 46.606 20.5219 46.6145 20.7579 46.5567L27.754 45.3744C28.1169 45.3152 28.4721 45.2161 28.8133 45.0789C29.016 45.0452 29.2016 44.9444 29.3401 44.7925C29.4786 44.6407 29.562 44.4467 29.5769 44.2417C29.6984 43.8302 29.7524 43.4018 29.7368 42.9731L29.7495 41.1134C29.7654 40.6588 29.9059 40.2173 30.1557 39.8371C30.4055 39.4569 30.7549 39.1526 31.1658 38.9575L31.6459 38.7729C32.6236 38.5028 33.6263 38.3337 34.6384 38.268C35.7344 38.1818 36.9662 38.1323 38.5056 38.1202C39.7246 38.133 40.9812 38.1818 42.3395 38.2772C43.351 38.3348 44.3539 38.4957 45.3327 38.7573L45.8503 38.9794C46.1108 39.1187 46.351 39.2928 46.5645 39.497C46.7801 39.7065 46.9513 39.9575 47.0677 40.2347C47.1841 40.512 47.2433 40.8099 47.2419 41.1106L47.2794 42.995C47.2726 43.4136 47.318 43.8314 47.4144 44.2388C47.4543 44.4467 47.5524 44.6389 47.6973 44.7932C47.8424 44.9203 48.0091 45.0204 48.1894 45.0888C48.5279 45.2125 48.8788 45.2993 49.2359 45.3476L56.1295 46.532C56.4102 46.5823 56.6991 46.5569 56.9667 46.4584C57.2478 46.3515 57.5037 46.1875 57.7184 45.9769ZM32.3219 41.1742L31.6827 40.1404L32.2123 41.3347C32.2419 41.3185 32.2673 41.2955 32.2863 41.2676C32.3053 41.2397 32.3176 41.2077 32.3219 41.1742Z" fill="white"/>
</g>
</svg>
