<svg width="20" height="14" viewBox="0 0 20 14" fill="none" xmlns="http://www.w3.org/2000/svg">
<g id="america-flag">
<path id="Path 2377" d="M19.6759 13.1042H0.170898V7.54623L6.3459 5.04623L9.1629 0.63623H19.6759V13.1042Z" fill="#F0F5F9"/>
<path id="Path 2378" d="M19.676 1.60423H8.229L8.771 0.95923L9.163 0.63623H19.676V1.60423Z" fill="#D11536"/>
<path id="Rectangle 678" d="M19.676 2.61914H8.229V3.58714H19.676V2.61914Z" fill="#D11536"/>
<path id="Rectangle 679" d="M19.676 4.60107H8.229V5.56907H19.676V4.60107Z" fill="#D11536"/>
<path id="Rectangle 680" d="M19.6759 6.58545H0.170898V7.55345H19.6759V6.58545Z" fill="#D11536"/>
<path id="Rectangle 681" d="M19.6759 8.56836H0.170898V9.53636H19.6759V8.56836Z" fill="#D11536"/>
<path id="Rectangle 682" d="M19.6759 10.5503H0.170898V11.5183H19.6759V10.5503Z" fill="#D11536"/>
<path id="Rectangle 683" d="M19.6759 12.5332H0.170898V13.5012H19.6759V12.5332Z" fill="#D11536"/>
<path id="Rectangle 684" d="M9.1629 0.63623H0.170898V7.54823H9.1629V0.63623Z" fill="#002868"/>
<path id="Path 2379" d="M1.10369 1.2041L1.24269 1.4841L1.55069 1.5281L1.32869 1.7461L1.38069 2.0521L1.10469 1.9071L0.828691 2.0521L0.881691 1.7461L0.658691 1.5291L0.966691 1.4851L1.10369 1.2041Z" fill="#F0F5F9"/>
<path id="Path 2380" d="M2.88399 1.2041L3.02299 1.4841L3.33099 1.5281L3.10899 1.7461L3.16099 2.0521L2.88499 1.9071L2.60899 2.0521L2.66199 1.7461L2.43799 1.5281L2.74699 1.4841L2.88399 1.2041Z" fill="#F0F5F9"/>
<path id="Path 2381" d="M4.66573 1.2041L4.80473 1.4841L5.11273 1.5281L4.89073 1.7461L4.94273 2.0521L4.66673 1.9071L4.39073 2.0521L4.44373 1.7461L4.21973 1.5281L4.52873 1.4841L4.66573 1.2041Z" fill="#F0F5F9"/>
<path id="Path 2382" d="M6.44791 1.2041L6.58691 1.4841L6.89491 1.5281L6.6729 1.7461L6.72491 2.0521L6.44891 1.9071L6.1729 2.0521L6.22591 1.7461L6.00391 1.5281L6.3119 1.4841L6.44791 1.2041Z" fill="#F0F5F9"/>
<path id="Path 2383" d="M8.23311 1.2041L8.37211 1.4841L8.68011 1.5281L8.45811 1.7461L8.51011 2.0521L8.23411 1.9071L7.95811 2.0521L8.01111 1.7461L7.78711 1.5281L8.09611 1.4841L8.23311 1.2041Z" fill="#F0F5F9"/>
<path id="Path 2384" d="M5.61399 2.36914L5.75099 2.64814L6.05999 2.69414L5.83599 2.91214L5.88899 3.21814L5.61299 3.07314L5.33699 3.21814L5.38899 2.91214L5.16699 2.69414L5.47499 2.64814L5.61399 2.36914Z" fill="#F0F5F9"/>
<path id="Path 2385" d="M3.77608 2.36914L3.91308 2.64814L4.22208 2.69414L4.00008 2.90914L4.05308 3.21514L3.77708 3.07014L3.50108 3.21514L3.55408 2.90914L3.33008 2.69114L3.63808 2.64514L3.77608 2.36914Z" fill="#F0F5F9"/>
<path id="Path 2386" d="M7.44983 2.36914L7.58883 2.64814L7.89684 2.69414L7.67484 2.91214L7.72784 3.21814L7.45084 3.07314L7.17683 3.21814L7.22884 2.91214L7.00684 2.69414L7.31483 2.64814L7.44983 2.36914Z" fill="#F0F5F9"/>
<path id="Path 2387" d="M8.23311 3.74805L8.37211 4.02805L8.68011 4.07205L8.45811 4.29005L8.51011 4.59605L8.23411 4.45105L7.95811 4.59605L8.01111 4.29005L7.78711 4.07205L8.09611 4.02805L8.23311 3.74805Z" fill="#F0F5F9"/>
<path id="Path 2388" d="M7.44983 4.91211L7.58883 5.19211L7.89684 5.23611L7.67484 5.45411L7.72784 5.76011L7.45084 5.61511L7.17683 5.76011L7.22884 5.45411L7.00684 5.23611L7.31483 5.19211L7.44983 4.91211Z" fill="#F0F5F9"/>
<path id="Path 2389" d="M8.23314 6.29102L8.37214 6.57101L8.68013 6.61501L8.45813 6.83302L8.51013 7.13902L8.23314 6.99101L7.95713 7.13601L8.01013 6.83001L7.78613 6.61201L8.09513 6.56801L8.23314 6.29102Z" fill="#F0F5F9"/>
<path id="Path 2390" d="M1.93772 2.36914L2.07672 2.64814L2.38472 2.69414L2.16072 2.91214L2.21372 3.21814L1.93772 3.07314L1.66172 3.21814L1.71472 2.91214L1.49072 2.69414L1.79972 2.64814L1.93772 2.36914Z" fill="#F0F5F9"/>
<path id="Path 2391" d="M1.10369 3.72021L1.24269 4.00022L1.55069 4.04422L1.32869 4.26221L1.38069 4.56821L1.10469 4.42322L0.828691 4.56821L0.881691 4.26221L0.658691 4.04522L0.966691 4.00122L1.10369 3.72021Z" fill="#F0F5F9"/>
<path id="Path 2392" d="M2.88399 3.72021L3.02299 4.00022L3.33099 4.04422L3.10899 4.26221L3.16099 4.56821L2.88499 4.42322L2.60899 4.56821L2.66199 4.26221L2.43799 4.04422L2.74699 4.00022L2.88399 3.72021Z" fill="#F0F5F9"/>
<path id="Path 2393" d="M4.66573 3.72021L4.80473 4.00022L5.11273 4.04422L4.89073 4.26221L4.94273 4.56821L4.66673 4.42322L4.39073 4.56821L4.44373 4.26221L4.21973 4.04422L4.52873 4.00022L4.66573 3.72021Z" fill="#F0F5F9"/>
<path id="Path 2394" d="M6.44791 3.72021L6.58691 4.00022L6.89491 4.04422L6.6729 4.26221L6.72491 4.56821L6.44891 4.42322L6.1729 4.56821L6.22591 4.26221L6.00391 4.04422L6.3119 4.00022L6.44791 3.72021Z" fill="#F0F5F9"/>
<path id="Path 2395" d="M5.61399 4.88428L5.75099 5.16428L6.05999 5.20828L5.83599 5.42628L5.88899 5.73228L5.61299 5.58728L5.33699 5.73228L5.38899 5.42628L5.16699 5.20828L5.47499 5.16428L5.61399 4.88428Z" fill="#F0F5F9"/>
<path id="Path 2396" d="M3.77612 4.88428L3.91312 5.16428L4.22212 5.20828L3.99813 5.42628L4.05112 5.73228L3.77512 5.58728L3.49912 5.73228L3.55212 5.42628L3.32812 5.20828L3.63612 5.16428L3.77612 4.88428Z" fill="#F0F5F9"/>
<path id="Path 2397" d="M1.93772 4.88428L2.07672 5.16428L2.38472 5.20828L2.16072 5.42628L2.21372 5.73228L1.93772 5.58728L1.66172 5.73228L1.71472 5.42628L1.49072 5.20828L1.79972 5.16428L1.93772 4.88428Z" fill="#F0F5F9"/>
<path id="Path 2398" d="M1.10369 6.23828L1.24269 6.51728L1.55069 6.56128L1.32869 6.77928L1.38069 7.08728L1.10469 6.94228L0.828691 7.08728L0.881691 6.77928L0.658691 6.56128L0.966691 6.51728L1.10369 6.23828Z" fill="#F0F5F9"/>
<path id="Path 2399" d="M2.88399 6.23828L3.02299 6.51728L3.33099 6.56128L3.10899 6.77928L3.16099 7.08728L2.88499 6.94228L2.60899 7.08728L2.66199 6.77928L2.43799 6.56128L2.74699 6.51728L2.88399 6.23828Z" fill="#F0F5F9"/>
<path id="Path 2400" d="M4.66573 6.23828L4.80473 6.51728L5.11273 6.56128L4.89073 6.77928L4.94273 7.08728L4.66673 6.94228L4.39073 7.08728L4.44373 6.77928L4.21973 6.56128L4.52873 6.51728L4.66573 6.23828Z" fill="#F0F5F9"/>
<path id="Path 2401" d="M6.44791 6.23828L6.58691 6.51728L6.89491 6.56128L6.6729 6.77928L6.72491 7.08728L6.44891 6.94228L6.1729 7.08728L6.22591 6.77928L6.00391 6.56128L6.3119 6.51728L6.44791 6.23828Z" fill="#F0F5F9"/>
</g>
</svg>
