<svg width="60" height="60" viewBox="0 0 60 60" fill="none" xmlns="http://www.w3.org/2000/svg">
<g id="Group 46">
<g id="Ellipse 14">
<path id="Vector" d="M30 60C46.5685 60 60 46.5685 60 30C60 13.4315 46.5685 0 30 0C13.4315 0 0 13.4315 0 30C0 46.5685 13.4315 60 30 60Z" fill="#EAF0F6"/>
<path id="Vector_2" d="M30 59.5C46.2924 59.5 59.5 46.2924 59.5 30C59.5 13.7076 46.2924 0.5 30 0.5C13.7076 0.5 0.5 13.7076 0.5 30C0.5 46.2924 13.7076 59.5 30 59.5Z" stroke="#CBD6E2"/>
</g>
<g id="forward">
<path id="Path 42" opacity="0.4" d="M15.6941 24.3663V34.9433C15.6952 35.4383 15.8264 35.9243 16.0745 36.3527C16.3226 36.781 16.6789 37.1366 17.1077 37.3839C17.5365 37.6312 18.0227 37.7615 18.5177 37.7618C19.0127 37.762 19.4991 37.6322 19.9281 37.3853L24.5081 34.7413L29.0881 32.0973L29.7961 31.6973V27.6173L29.0881 27.2173L24.5081 24.5733L19.9281 21.9243C19.4991 21.6774 19.0127 21.5476 18.5177 21.5479C18.0227 21.5481 17.5365 21.6784 17.1077 21.9257C16.6789 22.173 16.3226 22.5286 16.0745 22.957C15.8264 23.3853 15.6952 23.8713 15.6941 24.3663Z" fill="#506E91"/>
<path id="Path 43" d="M29.7961 24.3662V34.9432C29.7961 35.4371 29.9259 35.9222 30.1725 36.3501C30.4192 36.7779 30.7741 37.1334 31.2015 37.3808C31.6289 37.6282 32.1139 37.7588 32.6077 37.7596C33.1016 37.7604 33.5869 37.6312 34.0151 37.3852L38.6101 34.7412L43.1911 32.0972C43.6167 31.8473 43.9696 31.4904 44.2148 31.0621C44.46 30.6337 44.589 30.1488 44.589 29.6552C44.589 29.1616 44.46 28.6767 44.2148 28.2483C43.9696 27.82 43.6167 27.4631 43.1911 27.2132L38.6101 24.5682L34.0151 21.9242C33.5869 21.6781 33.1016 21.549 32.6077 21.5498C32.1139 21.5506 31.6289 21.6812 31.2015 21.9286C30.7741 22.176 30.4192 22.5315 30.1725 22.9593C29.9259 23.3872 29.7961 23.8723 29.7961 24.3662Z" fill="#506E91"/>
</g>
</g>
</svg>
