<svg width="18" height="14" viewBox="0 0 18 14" fill="none" xmlns="http://www.w3.org/2000/svg">
<path id="hamburger-menu" fill-rule="evenodd" clip-rule="evenodd" d="M0.75 1.5H16.75C16.9489 1.5 17.1397 1.42098 17.2803 1.28033C17.421 1.13968 17.5 0.948912 17.5 0.75C17.5 0.551088 17.421 0.360322 17.2803 0.21967C17.1397 0.0790175 16.9489 0 16.75 0H0.75C0.551088 0 0.360322 0.0790175 0.21967 0.21967C0.0790175 0.360322 0 0.551088 0 0.75C0 0.948912 0.0790175 1.13968 0.21967 1.28033C0.360322 1.42098 0.551088 1.5 0.75 1.5ZM0.75 7.5H16.75C16.9489 7.5 17.1397 7.42098 17.2803 7.28033C17.421 7.13968 17.5 6.94891 17.5 6.75C17.5 6.55109 17.421 6.36032 17.2803 6.21967C17.1397 6.07902 16.9489 6 16.75 6H0.75C0.551088 6 0.360322 6.07902 0.21967 6.21967C0.0790175 6.36032 0 6.55109 0 6.75C0 6.94891 0.0790175 7.13968 0.21967 7.28033C0.360322 7.42098 0.551088 7.5 0.75 7.5ZM0.75 13.5H16.75C16.9489 13.5 17.1397 13.421 17.2803 13.2803C17.421 13.1397 17.5 12.9489 17.5 12.75C17.5 12.5511 17.421 12.3603 17.2803 12.2197C17.1397 12.079 16.9489 12 16.75 12H0.75C0.551088 12 0.360322 12.079 0.21967 12.2197C0.0790175 12.3603 0 12.5511 0 12.75C0 12.9489 0.0790175 13.1397 0.21967 13.2803C0.360322 13.421 0.551088 13.5 0.75 13.5Z" fill="#33475B"/>
</svg>
