<svg width="60" height="60" viewBox="0 0 60 60" fill="none" xmlns="http://www.w3.org/2000/svg">
<g id="Group 46">
<g id="Ellipse 14">
<path id="Vector" d="M30 60.001C46.5685 60.001 60 46.5695 60 30.001C60 13.4324 46.5685 0.000976562 30 0.000976562C13.4315 0.000976562 0 13.4324 0 30.001C0 46.5695 13.4315 60.001 30 60.001Z" fill="#EAF0F6"/>
<path id="Vector_2" d="M30 59.501C46.2924 59.501 59.5 46.2934 59.5 30.001C59.5 13.7086 46.2924 0.500977 30 0.500977C13.7076 0.500977 0.5 13.7086 0.5 30.001C0.5 46.2934 13.7076 59.501 30 59.501Z" stroke="#CBD6E2"/>
</g>
<g id="Icons">
<path id="&#240;&#159;&#148;&#185;-Secondary-Color" fill-rule="evenodd" clip-rule="evenodd" d="M18.9221 38.9203L21.7931 36.0493H41.8931V18.8203H18.9221V38.9203ZM34.7131 26.0003H37.5841V28.8713H34.7131V26.0003ZM28.9711 26.0003H31.8421V28.8713H28.9711V26.0003ZM23.2291 26.0003H26.1001V28.8713H23.2291V26.0003Z" fill="#EAF0F6"/>
<path id="&#240;&#159;&#148;&#185;-Primary-Color" fill-rule="evenodd" clip-rule="evenodd" d="M41.892 15.9492H18.922C18.1613 15.9516 17.4324 16.2548 16.8945 16.7927C16.3566 17.3306 16.0534 18.0595 16.051 18.8202V44.6612L21.793 38.9192H41.893C42.6534 38.9166 43.3819 38.6134 43.9195 38.0757C44.4572 37.538 44.7604 36.8096 44.763 36.0492V18.8202C44.7607 18.0595 44.4574 17.3306 43.9195 16.7927C43.3816 16.2548 42.6527 15.9516 41.892 15.9492ZM41.892 36.0492H21.793L18.922 38.9182V18.8202H41.892V36.0492ZM23.229 25.9982H26.1V28.8692H23.229V25.9982ZM28.971 25.9982H31.842V28.8692H28.971V25.9982ZM34.713 25.9982H37.584V28.8692H34.714L34.713 25.9982Z" fill="#506E91"/>
</g>
</g>
</svg>
