<svg width="60" height="60" viewBox="0 0 60 60" fill="none" xmlns="http://www.w3.org/2000/svg">
<g id="Group 46">
<g id="Ellipse 14">
<path id="Vector" d="M30 60C46.5685 60 60 46.5685 60 30C60 13.4315 46.5685 0 30 0C13.4315 0 0 13.4315 0 30C0 46.5685 13.4315 60 30 60Z" fill="#EAF0F6"/>
<path id="Vector_2" d="M30 59.5C46.2924 59.5 59.5 46.2924 59.5 30C59.5 13.7076 46.2924 0.5 30 0.5C13.7076 0.5 0.5 13.7076 0.5 30C0.5 46.2924 13.7076 59.5 30 59.5Z" stroke="#CBD6E2"/>
</g>
<g id="Icons">
<path id="&#240;&#159;&#148;&#185;Icon-Color" fill-rule="evenodd" clip-rule="evenodd" d="M34.296 28.8512V22.3512C34.2978 21.4646 33.9603 20.6109 33.3527 19.9653C32.7451 19.3196 31.9134 18.9309 31.0283 18.879C30.1433 18.8271 29.2719 19.1158 28.5929 19.686C27.9139 20.2561 27.4789 21.0645 27.377 21.9452L34.296 28.8512ZM37.871 29.3152C37.6386 29.315 37.4138 29.398 37.2372 29.5491C37.0605 29.7003 36.9438 29.9095 36.908 30.1392C36.8546 30.5059 36.7693 30.8673 36.653 31.2192L38.127 32.6932C38.4844 31.9843 38.7309 31.2248 38.858 30.4412C38.8758 30.3008 38.8637 30.1582 38.8223 30.0228C38.7809 29.8875 38.7113 29.7625 38.618 29.656C38.5247 29.5496 38.4099 29.4642 38.2811 29.4054C38.1523 29.3467 38.0125 29.3159 37.871 29.3152ZM21.19 20.6792C21.0823 20.7866 20.9969 20.9142 20.9386 21.0546C20.8803 21.1951 20.8503 21.3456 20.8503 21.4977C20.8503 21.6498 20.8803 21.8003 20.9386 21.9408C20.9969 22.0812 21.0823 22.2088 21.19 22.3162L27.333 28.4682V28.9682C27.3241 29.6478 27.4942 30.3178 27.8263 30.9107C28.1585 31.5037 28.6409 31.9988 29.225 32.3462C29.9293 32.769 30.7714 32.8982 31.57 32.7062L33.497 34.6332C32.6572 35.0256 31.742 35.2303 30.815 35.2332C29.3557 35.2583 27.9362 34.7565 26.8168 33.8197C25.6975 32.883 24.9534 31.5741 24.721 30.1332C24.6852 29.9035 24.5685 29.6943 24.3919 29.5431C24.2153 29.392 23.9904 29.309 23.758 29.3092C23.6165 29.3099 23.4767 29.3407 23.3479 29.3994C23.2192 29.4582 23.1043 29.5436 23.011 29.65C22.9177 29.7565 22.8481 29.8815 22.8067 30.0168C22.7654 30.1522 22.7532 30.2948 22.771 30.4352C23.0744 32.1288 23.9022 33.6842 25.1374 34.882C26.3726 36.0797 27.9529 36.8591 29.655 37.1102V39.7572C29.655 40.0651 29.7773 40.3604 29.9951 40.5781C30.2128 40.7959 30.5081 40.9182 30.816 40.9182C31.1239 40.9182 31.4192 40.7959 31.637 40.5781C31.8547 40.3604 31.977 40.0651 31.977 39.7572V37.1162C33.0201 36.9585 34.0235 36.6027 34.933 36.0682L38.984 40.1192C39.2011 40.3363 39.4955 40.4582 39.8025 40.4582C40.1095 40.4582 40.4039 40.3363 40.621 40.1192C40.8381 39.9021 40.96 39.6077 40.96 39.3007C40.96 38.9937 40.8381 38.6993 40.621 38.4822L22.827 20.6792C22.7196 20.5715 22.5921 20.4861 22.4516 20.4278C22.3112 20.3695 22.1606 20.3395 22.0085 20.3395C21.8564 20.3395 21.7059 20.3695 21.5654 20.4278C21.425 20.4861 21.2974 20.5715 21.19 20.6792Z" fill="#506E91"/>
</g>
</g>
</svg>
