<svg width="60" height="60" viewBox="0 0 60 60" fill="none" xmlns="http://www.w3.org/2000/svg">
<g id="Group 46">
<g id="Ellipse 14">
<path id="Vector" d="M30 60.001C46.5685 60.001 60 46.5695 60 30.001C60 13.4324 46.5685 0.000976562 30 0.000976562C13.4315 0.000976562 0 13.4324 0 30.001C0 46.5695 13.4315 60.001 30 60.001Z" fill="#EAF0F6"/>
<path id="Vector_2" d="M30 59.501C46.2924 59.501 59.5 46.2934 59.5 30.001C59.5 13.7086 46.2924 0.500977 30 0.500977C13.7076 0.500977 0.5 13.7086 0.5 30.001C0.5 46.2934 13.7076 59.501 30 59.501Z" stroke="#CBD6E2"/>
</g>
<path id="Rectangle 159" d="M30.5 15.001H29.5C21.4919 15.001 15 21.4928 15 29.501C15 37.5091 21.4919 44.001 29.5 44.001H30.5C38.5081 44.001 45 37.5091 45 29.501C45 21.4928 38.5081 15.001 30.5 15.001Z" fill="#506E91"/>
</g>
</svg>
