<svg width="60" height="60" viewBox="0 0 60 60" fill="none" xmlns="http://www.w3.org/2000/svg">
<g id="Group 46">
<g id="Ellipse 14">
<path id="Vector" d="M30 60.001C46.5685 60.001 60 46.5695 60 30.001C60 13.4324 46.5685 0.000976562 30 0.000976562C13.4315 0.000976562 0 13.4324 0 30.001C0 46.5695 13.4315 60.001 30 60.001Z" fill="#EAF0F6"/>
<path id="Vector_2" d="M30 59.501C46.2924 59.501 59.5 46.2934 59.5 30.001C59.5 13.7086 46.2924 0.500977 30 0.500977C13.7076 0.500977 0.5 13.7086 0.5 30.001C0.5 46.2934 13.7076 59.501 30 59.501Z" stroke="#CBD6E2"/>
</g>
<path id="tag" d="M40.869 25.3508L34.621 19.1048C33.9736 18.4557 33.1972 17.9496 32.3419 17.6194C31.4867 17.2892 30.5716 17.1421 29.656 17.1878L22.756 17.5188C21.4302 17.5772 20.1739 18.1283 19.233 19.0642C18.2922 20.0001 17.7344 21.2534 17.669 22.5788L17.338 29.4788C17.2953 30.3941 17.4438 31.3083 17.7738 32.1631C18.1038 33.0179 18.6083 33.7946 19.255 34.4438L25.502 40.6908C26.7376 41.9229 28.4115 42.6148 30.1565 42.6148C31.9015 42.6148 33.5753 41.9229 34.811 40.6908L40.869 34.6318C41.4818 34.0244 41.9682 33.3015 42.3002 32.505C42.6322 31.7086 42.8031 30.8542 42.8031 29.9913C42.8031 29.1284 42.6322 28.2741 42.3002 27.4776C41.9682 26.6811 41.4818 25.9583 40.869 25.3508ZM26.622 30.4258C25.8364 30.4258 25.0684 30.1929 24.4152 29.7564C23.762 29.32 23.2529 28.6996 22.9523 27.9738C22.6517 27.2481 22.573 26.4494 22.7263 25.6789C22.8795 24.9084 23.2578 24.2007 23.8133 23.6452C24.3688 23.0897 25.0766 22.7114 25.8471 22.5581C26.6176 22.4049 27.4162 22.4835 28.142 22.7842C28.8678 23.0848 29.4881 23.5939 29.9246 24.2471C30.361 24.9003 30.594 25.6682 30.594 26.4538C30.5937 27.5072 30.1751 28.5173 29.4303 29.2622C28.6855 30.007 27.6753 30.4256 26.622 30.4258Z" fill="#506E91"/>
</g>
</svg>
