<svg width="25" height="23" viewBox="0 0 25 23" fill="none" xmlns="http://www.w3.org/2000/svg">
<g id="history (5)">
<path id="Path 2321" d="M13.3791 5.7041C13.1318 5.70567 12.8952 5.80458 12.7204 5.9794C12.5456 6.15422 12.4466 6.39087 12.4451 6.6381V10.9441C12.4445 11.3036 12.5329 11.6576 12.7023 11.9746C12.8717 12.2916 13.1169 12.5618 13.4161 12.7611L16.5901 14.8771C16.7458 14.979 16.927 15.0352 17.1131 15.0391C17.3129 15.0389 17.5073 14.9744 17.6675 14.855C17.8277 14.7356 17.9451 14.5677 18.0024 14.3763C18.0596 14.1849 18.0536 13.9801 17.9853 13.7924C17.917 13.6047 17.79 13.4439 17.6231 13.3341L14.4491 11.2181C14.4062 11.1895 14.3713 11.1507 14.3473 11.1051C14.3234 11.0595 14.3113 11.0086 14.3121 10.9571V6.6541C14.3105 6.40687 14.2116 6.17022 14.0368 5.9954C13.862 5.82058 13.6253 5.72167 13.3781 5.7201L13.3791 5.7041Z" fill="#99ACC2"/>
<path id="Path 2322" d="M13.378 0.7251C10.8483 0.725389 8.3975 1.60632 6.44649 3.21665C4.49547 4.82699 3.16589 7.06628 2.68601 9.5501L1.586 8.4501C1.4103 8.27572 1.17252 8.17828 0.924969 8.17922C0.677421 8.18016 0.440385 8.27939 0.266005 8.4551C0.0916252 8.63081 -0.00581379 8.86859 -0.00487611 9.11613C-0.00393843 9.36368 0.095299 9.60072 0.271005 9.7751L2.78501 12.2641C2.87161 12.3509 2.97448 12.4198 3.08773 12.4668C3.20098 12.5138 3.32239 12.538 3.445 12.5381C3.56762 12.538 3.68903 12.5138 3.80228 12.4668C3.91553 12.4198 4.0184 12.3509 4.105 12.2641L6.57 9.7751C6.74505 9.59979 6.84328 9.36213 6.84309 9.11439C6.84291 8.86666 6.74431 8.62914 6.56901 8.4541C6.3937 8.27906 6.15603 8.18082 5.9083 8.18101C5.66056 8.1812 5.42305 8.27979 5.248 8.4551L4.748 8.9551C5.23645 7.35742 6.15889 5.92671 7.41254 4.82239C8.66619 3.71806 10.2018 2.98348 11.8484 2.70049C13.4949 2.41749 15.1877 2.5972 16.7381 3.21957C18.2885 3.84195 19.6357 4.88257 20.6296 6.22549C21.6234 7.5684 22.2249 9.16088 22.3671 10.8255C22.5092 12.4901 22.1864 14.1615 21.4345 15.6535C20.6827 17.1455 19.5315 18.3994 18.109 19.2756C16.6865 20.1518 15.0487 20.6159 13.378 20.6161C12.0264 20.6204 10.6914 20.3179 9.47371 19.7314C8.25598 19.1448 7.18724 18.2896 6.34801 17.2301C6.19445 17.037 5.97047 16.9129 5.72536 16.8849C5.48025 16.857 5.23408 16.9275 5.04101 17.0811C4.84793 17.2347 4.72376 17.4586 4.69582 17.7037C4.66787 17.9489 4.73844 18.195 4.892 18.3881C5.90659 19.6686 7.19881 20.7018 8.67112 21.4098C10.1434 22.1178 11.7573 22.4821 13.391 22.4751C16.2752 22.4734 19.0406 21.326 21.0789 19.2853C23.1171 17.2446 24.2612 14.4778 24.2595 11.5936C24.2578 8.70937 23.1104 5.94396 21.0697 3.90572C19.029 1.86748 16.2622 0.723376 13.378 0.7251Z" fill="#99ACC2"/>
</g>
</svg>
