<svg xmlns="http://www.w3.org/2000/svg" width="71.799" height="70.143" viewBox="0 0 71.799 70.143">
  <g id="dial-icon" transform="translate(-1.4 -2.2)">
    <circle id="Ellipse_3" data-name="Ellipse 3" cx="30.578" cy="30.578" r="30.578" transform="translate(1.4 11.186)" fill="#1ec6d8"/>
    <path id="Path_1" data-name="Path 1" d="M65.293,48.38A37.767,37.767,0,0,0,38.584,2.2h-.125L28.1,41.141l36.444,9.735C64.794,50,65.044,49.253,65.293,48.38Z" transform="translate(6.624 0)" fill="#1ec6d8"/>
    <path id="Path_2" data-name="Path 2" d="M55.584,44.2A27.446,27.446,0,0,0,35.614,11h-.125L28.5,39.457l26.585,6.49C55.209,45.448,55.459,44.823,55.584,44.2Z" transform="translate(6.723 2.183)" fill="#61dfe5"/>
    <circle id="Ellipse_4" data-name="Ellipse 4" cx="20.219" cy="20.219" r="20.219" transform="translate(11.759 21.546)" fill="#17a2b8"/>
    <path id="Path_3" data-name="Path 3" d="M39.843,41.623l-.125,3.37a2.347,2.347,0,0,1-2.371,2.247H37.1a21.37,21.37,0,0,1-9.735-3.869,21.217,21.217,0,0,1-6.615-7.114A23.57,23.57,0,0,1,17.5,26.271,2.167,2.167,0,0,1,19.624,23.9h.25l3.37.125a2.286,2.286,0,0,1,2.247,2,13.676,13.676,0,0,0,.749,3.245,2.377,2.377,0,0,1-.624,2.371l-1.5,1.373a19.051,19.051,0,0,0,6.615,7.114l1.5-1.373a2.1,2.1,0,0,1,2.371-.374,13.814,13.814,0,0,0,3.245.874A2.285,2.285,0,0,1,39.843,41.623Z" transform="translate(3.992 5.384)" fill="#fff"/>
  </g>
</svg>
