<svg width="48" height="46" viewBox="0 0 48 46" fill="none" xmlns="http://www.w3.org/2000/svg">
<g id="Group 931">
<path id="Path 2318" d="M22.6333 15.4599L1.4082 29.2459C1.23189 29.3596 1.08755 29.5163 0.988822 29.7011C0.890093 29.8859 0.84023 30.0928 0.843943 30.3022C0.847656 30.5116 0.904823 30.7165 1.01004 30.8978C1.11526 31.079 1.26507 31.2305 1.4453 31.3379L24.3559 44.8829C24.757 45.1217 25.2174 45.2431 25.6845 45.2332C26.1516 45.2233 26.6064 45.0825 26.997 44.8269L47.3988 31.3959C47.5711 31.2835 47.712 31.1293 47.8083 30.9478C47.9046 30.7663 47.9531 30.5635 47.9494 30.3582C47.9457 30.1529 47.8899 29.9519 47.7871 29.774C47.6843 29.5961 47.538 29.4471 47.3617 29.3409L24.1323 15.4459C23.9066 15.3067 23.6461 15.2342 23.3807 15.2366C23.1154 15.2391 22.8563 15.3165 22.6333 15.4599Z" fill="#8AE2EC"/>
<g id="Layer 2">
<g id="&#60;Layer&#62;">
<path id="Path 2271" fill-rule="evenodd" clip-rule="evenodd" d="M32.0987 25.3729C32.0987 27.9949 32.5068 29.6359 29.4275 31.2339C24.4411 33.8269 15.9583 31.9849 15.8711 27.7639V25.3729C16.1027 31.0439 29.6892 31.6509 31.8761 26.4869L32.0987 25.3729Z" fill="#C1CCD6"/>
<path id="Path 2272" fill-rule="evenodd" clip-rule="evenodd" d="M16.1054 27.052V27.762C16.1725 28.4076 16.4041 29.0254 16.7781 29.5566C17.152 30.0878 17.656 30.5148 18.2421 30.797C19.9496 31.6672 21.833 32.1392 23.7501 32.1773C25.6673 32.2154 27.568 31.8187 29.3089 31.017C31.587 29.831 31.8658 28.69 31.8748 26.991C30.2484 29.808 25.3853 30.746 21.3675 30.021C18.7816 29.552 16.9336 28.485 16.1054 27.046V27.052ZM23.9916 32.684C21.8998 32.7241 19.8337 32.2191 17.9975 31.219C17.3321 30.9041 16.7618 30.4194 16.3445 29.8141C15.9273 29.2088 15.6777 28.5044 15.6211 27.772V25.372C15.6211 25.309 15.6459 25.2485 15.6902 25.2036C15.7344 25.1588 15.7946 25.133 15.8577 25.132C15.8895 25.129 15.9215 25.1327 15.9517 25.143C15.9818 25.1532 16.0095 25.1696 16.0329 25.1912C16.0563 25.2129 16.0748 25.2391 16.0873 25.2684C16.0998 25.2976 16.106 25.3292 16.1054 25.361C16.1886 27.395 18.187 28.961 21.4478 29.551C25.4014 30.261 30.4229 29.261 31.6382 26.391L31.8567 25.325C31.8713 25.2689 31.9056 25.2199 31.9534 25.1869C32.0011 25.1539 32.0592 25.139 32.117 25.1451C32.1747 25.1511 32.2284 25.1777 32.2683 25.2199C32.3081 25.262 32.3314 25.3171 32.334 25.375C32.334 25.659 32.334 25.929 32.3451 26.188C32.3822 28.374 32.4112 29.953 29.5255 31.454C27.8032 32.2915 25.9075 32.7129 23.9916 32.684Z" fill="#33475B"/>
<path id="Path 2273" fill-rule="evenodd" clip-rule="evenodd" d="M18.2424 22.07C20.0209 21.1702 21.9871 20.7013 23.9813 20.7013C25.9756 20.7013 27.9418 21.1702 29.7203 22.07C32.8918 23.896 32.8918 26.855 29.7203 28.682C27.9412 29.5817 25.9746 30.0506 23.9798 30.0506C21.9851 30.0506 20.0185 29.5817 18.2394 28.682C15.0709 26.861 15.0719 23.894 18.2424 22.07Z" fill="white"/>
<path id="Path 2274" fill-rule="evenodd" clip-rule="evenodd" d="M23.9806 20.941C22.0253 20.9029 20.0926 21.3631 18.3655 22.278C17.7094 22.4891 17.1374 22.9022 16.7317 23.458C16.3259 24.0137 16.1073 24.6835 16.1073 25.371C16.1073 26.0585 16.3259 26.7282 16.7317 27.284C17.1374 27.8398 17.7094 28.2529 18.3655 28.464C20.1086 29.3399 22.0332 29.7961 23.9851 29.7961C25.9369 29.7961 27.8616 29.3399 29.6047 28.464C30.2603 28.2515 30.8316 27.8374 31.2368 27.2811C31.6419 26.7249 31.8602 26.055 31.8602 25.3675C31.8602 24.68 31.6419 24.0101 31.2368 23.4538C30.8316 22.8976 30.2603 22.4835 29.6047 22.271C27.8769 21.3577 25.9447 20.8976 23.9896 20.934L23.9806 20.941ZM23.9806 30.287C21.9392 30.3268 19.9216 29.8448 18.1198 28.887C16.5045 27.955 15.6211 26.713 15.6211 25.374C15.6851 24.6199 15.9501 23.8967 16.3885 23.279C16.827 22.6614 17.4229 22.1718 18.1148 21.861C19.9312 20.9438 21.9386 20.4658 23.9745 20.4658C26.0105 20.4658 28.0179 20.9438 29.8343 21.861C31.4456 22.788 32.328 24.037 32.328 25.374C32.328 26.711 31.4376 27.96 29.8343 28.887C28.0347 29.8439 26.0196 30.3258 23.9806 30.287Z" fill="#33475B"/>
<path id="Path 2275" fill-rule="evenodd" clip-rule="evenodd" d="M20.2888 8.44092V9.44792C20.2929 10.3508 20.2147 11.2522 20.0551 12.1409C19.0956 17.4039 16.8906 18.8409 16.8906 25.0759C16.8906 30.2159 31.161 30.5209 31.163 25.0759V23.7759C31.163 19.1349 28.7716 16.3519 27.9985 12.1459C27.8389 11.2548 27.7607 10.3511 27.7649 9.44592V8.44092H20.2888Z" fill="#EAF0F6"/>
<path id="Path 2276" fill-rule="evenodd" clip-rule="evenodd" d="M20.5313 8.681V9.448C20.535 10.3656 20.4558 11.2816 20.2947 12.185C19.9575 13.9316 19.438 15.6383 18.7445 17.277C17.6543 19.7319 17.1071 22.3923 17.1402 25.077C17.1402 27.526 20.6858 28.807 24.1872 28.807C27.4319 28.807 30.9263 27.642 30.9263 25.077V23.777C30.8463 21.4075 30.2848 19.0788 29.2758 16.932C28.6157 15.4059 28.1118 13.8171 27.7718 12.19C27.609 11.2861 27.5291 10.3693 27.5332 9.451V8.684L20.5313 8.681ZM24.1821 29.281C20.4421 29.281 16.6509 27.835 16.6489 25.07C16.6151 22.3252 17.1764 19.6054 18.2943 17.097C18.9755 15.4872 19.486 13.8107 19.8174 12.095C19.9744 11.2204 20.0512 10.3335 20.047 9.445V8.445C20.0465 8.41292 20.0523 8.38105 20.0642 8.35124C20.0761 8.32142 20.0938 8.29425 20.1163 8.27129C20.1387 8.24833 20.1655 8.23003 20.1951 8.21745C20.2247 8.20487 20.2565 8.19826 20.2887 8.198H27.7688C27.8332 8.19826 27.895 8.22398 27.9404 8.26952C27.9859 8.31507 28.0114 8.37672 28.0114 8.441V9.448C28.0077 10.3365 28.0852 11.2235 28.2431 12.098C28.5791 13.6947 29.0756 15.2536 29.7251 16.751C30.7519 18.9561 31.3247 21.3442 31.4096 23.774V25.074C31.4096 27.983 27.7788 29.285 24.1832 29.285L24.1821 29.281Z" fill="#33475B"/>
<path id="Path 2277" fill-rule="evenodd" clip-rule="evenodd" d="M19.5396 28.1979C23.6657 29.9489 31.1709 29.0259 31.1709 25.0759V23.7759C31.1709 19.1349 28.7795 16.3519 28.0064 12.1459C27.8468 11.2548 27.7686 10.3511 27.7728 9.44592V8.44092H22.4705C22.4566 9.33928 22.3846 10.2358 22.2549 11.1249C21.543 15.9519 19.2829 19.4389 19.2829 24.6549C19.2494 25.8415 19.3354 27.0285 19.5396 28.1979Z" fill="white"/>
<path id="Path 2278" fill-rule="evenodd" clip-rule="evenodd" d="M19.7434 28.0249C22.7064 29.2249 27.1964 28.9979 29.4385 27.5329C29.8783 27.2874 30.2464 26.9318 30.5063 26.5011C30.7662 26.0704 30.9089 25.5795 30.9204 25.0769V23.7769C30.8404 21.4074 30.2789 19.0787 29.27 16.9319C28.6099 15.4058 28.106 13.8171 27.766 12.1899C27.6031 11.286 27.5233 10.3693 27.5273 9.45092V8.68092H22.7144C22.6935 9.51338 22.6228 10.3439 22.5028 11.1679C22.1848 13.0535 21.7082 14.9091 21.078 16.7149C20.1306 19.2632 19.6053 21.9483 19.5228 24.6649C19.4945 25.7942 19.5677 26.9237 19.7414 28.0399L19.7434 28.0249ZM24.1693 29.2909C22.5533 29.3125 20.9487 29.0176 19.4466 28.4229C19.4104 28.4067 19.3786 28.3821 19.3538 28.3511C19.329 28.3201 19.312 28.2837 19.3042 28.2449C19.1002 27.0694 19.0136 25.8765 19.0455 24.6839C19.1297 21.9065 19.6629 19.1608 20.6248 16.5529C21.2397 14.77 21.7075 12.9399 22.0235 11.0809C22.1523 10.2025 22.2236 9.3166 22.2371 8.42892C22.2389 8.36568 22.2652 8.30559 22.3104 8.26122C22.3556 8.21686 22.4163 8.19167 22.4798 8.19092H27.767C27.8314 8.19118 27.8931 8.2169 27.9386 8.26244C27.9841 8.30799 28.0096 8.36964 28.0096 8.43392V9.44092C28.0059 10.3294 28.0834 11.2164 28.2412 12.0909C28.5765 13.6865 29.0719 15.2444 29.7202 16.7409C30.7471 18.946 31.3199 21.3341 31.4047 23.7639V25.0639C31.3929 25.646 31.2303 26.2151 30.9326 26.7159C30.635 27.2167 30.2125 27.6322 29.7062 27.9219C28.0245 28.884 26.1068 29.3581 24.1693 29.2909Z" fill="#33475B"/>
<path id="Path 2279" fill-rule="evenodd" clip-rule="evenodd" d="M20.2315 8.21793C21.4112 8.81476 22.7154 9.1258 24.0382 9.1258C25.361 9.1258 26.6652 8.81476 27.8449 8.21793C29.9506 7.00693 29.9506 5.04393 27.8449 3.83293C26.665 3.23562 25.3604 2.92432 24.0372 2.92432C22.714 2.92432 21.4094 3.23562 20.2295 3.83293C18.1358 5.04393 18.1298 7.00793 20.2315 8.21793Z" fill="#EAF0F6"/>
<path id="Path 2280" fill-rule="evenodd" clip-rule="evenodd" d="M24.0381 3.16601C22.7549 3.13995 21.4864 3.44186 20.3532 4.04301C19.9566 4.21572 19.6128 4.49007 19.3569 4.83819C19.101 5.18631 18.9421 5.59579 18.8963 6.02501C18.9418 6.45459 19.1005 6.86448 19.3565 7.21298C19.6124 7.56148 19.9563 7.83614 20.3532 8.00901C21.4956 8.58609 22.7581 8.8868 24.0386 8.8868C25.3192 8.8868 26.5817 8.58609 27.724 8.00901C28.1214 7.83707 28.4657 7.56262 28.7214 7.21391C28.9772 6.86519 29.1351 6.45481 29.1789 6.02501C29.1342 5.59721 28.977 5.18877 28.7233 4.84094C28.4696 4.49311 28.1284 4.21821 27.7341 4.04401C26.5998 3.44299 25.3303 3.1411 24.0462 3.16701L24.0381 3.16601ZM24.0381 9.36601C22.6733 9.39546 21.3239 9.07306 20.1206 8.43001C19.6472 8.21866 19.2392 7.88449 18.9394 7.46235C18.6396 7.0402 18.4588 6.54556 18.416 6.03001C18.4576 5.51489 18.6371 5.02037 18.9359 4.59816C19.2347 4.17596 19.6418 3.84158 20.1146 3.63001C21.3326 3.01699 22.6778 2.69763 24.0421 2.69763C25.4064 2.69763 26.7517 3.01699 27.9697 3.63001C28.4419 3.84225 28.8484 4.17682 29.147 4.59891C29.4455 5.021 29.6252 5.51518 29.6673 6.03001C29.6251 6.54495 29.4453 7.0392 29.1465 7.4613C28.8478 7.8834 28.4411 8.21791 27.9687 8.43001C26.759 9.06834 25.4064 9.38941 24.0381 9.36301V9.36601Z" fill="#33475B"/>
<path id="Path 2281" fill-rule="evenodd" clip-rule="evenodd" d="M26.9394 1.66504V3.41804L26.1562 4.12304V2.37204L26.9394 1.66504Z" fill="#C1CCD6"/>
<path id="Path 2282" fill-rule="evenodd" clip-rule="evenodd" d="M26.3975 2.47803V3.57803L26.6983 3.30603V2.20603L26.3975 2.47803ZM26.1548 4.36403C26.1204 4.36329 26.0864 4.35617 26.0545 4.34303C26.0128 4.32464 25.9772 4.29491 25.9516 4.25724C25.9261 4.21956 25.9117 4.17548 25.9102 4.13003V2.37203C25.9108 2.3385 25.9183 2.30545 25.9321 2.27487C25.9458 2.24428 25.9657 2.21678 25.9904 2.19403L26.7755 1.48403C26.8103 1.45314 26.8533 1.43286 26.8993 1.4256C26.9453 1.41833 26.9925 1.42438 27.0352 1.44303C27.0781 1.46171 27.1146 1.49248 27.1403 1.53156C27.1659 1.57063 27.1796 1.61633 27.1796 1.66303V3.42203C27.1793 3.45543 27.1722 3.48843 27.1588 3.51902C27.1453 3.54962 27.1258 3.57718 27.1014 3.60003L26.3142 4.31003C26.2699 4.34708 26.2137 4.36696 26.1558 4.36603L26.1548 4.36403Z" fill="#33475B"/>
<path id="Path 2283" fill-rule="evenodd" clip-rule="evenodd" d="M26.1544 2.37197V4.13197C25.155 3.78535 24.0857 3.68852 23.04 3.84997V2.08797C24.0859 1.92802 25.155 2.02552 26.1544 2.37197Z" fill="white"/>
<path id="Path 2284" fill-rule="evenodd" clip-rule="evenodd" d="M24.0531 3.52499C24.6824 3.52281 25.3087 3.61242 25.9121 3.79099V2.54799C25.0622 2.27726 24.1636 2.193 23.278 2.30099V3.56399C23.5334 3.5366 23.7901 3.52224 24.0471 3.52099L24.0531 3.52499ZM26.1587 4.36699C26.1313 4.36768 26.1041 4.36292 26.0785 4.35299C25.1167 4.01658 24.0863 3.92313 23.0795 4.08099C23.0451 4.08651 23.01 4.08425 22.9767 4.07438C22.9433 4.06452 22.9127 4.04729 22.8869 4.02399C22.8614 4.00173 22.8408 3.9744 22.8265 3.94375C22.8122 3.9131 22.8044 3.87981 22.8037 3.84599V2.08799C22.804 2.03027 22.825 1.97457 22.8629 1.93092C22.9008 1.88728 22.953 1.85858 23.0103 1.84999C24.0955 1.6833 25.2052 1.78635 26.241 2.14999C26.288 2.16627 26.3287 2.1968 26.3575 2.23733C26.3863 2.27785 26.4016 2.32634 26.4014 2.37599V4.13599C26.4012 4.17478 26.3921 4.213 26.3747 4.24769C26.3573 4.28238 26.3321 4.3126 26.3011 4.33599C26.2564 4.3601 26.2052 4.36987 26.1547 4.36399L26.1587 4.36699Z" fill="#33475B"/>
<path id="Path 2285" fill-rule="evenodd" clip-rule="evenodd" d="M23.0404 2.088V3.841L22.6724 3.028V1.276L23.0404 2.088Z" fill="#66CEEF"/>
<path id="Path 2286" fill-rule="evenodd" clip-rule="evenodd" d="M23.0403 4.08298C22.994 4.08302 22.9486 4.06962 22.9098 4.0444C22.871 4.01919 22.8404 3.98325 22.8217 3.94098L22.4527 3.12898C22.4386 3.09754 22.4314 3.06343 22.4316 3.02898V1.27598C22.4318 1.22083 22.4509 1.16739 22.4857 1.12453C22.5205 1.08166 22.5689 1.05193 22.623 1.04027C22.677 1.0286 22.7334 1.03569 22.7829 1.06037C22.8323 1.08505 22.8719 1.12584 22.8949 1.17598L23.2639 1.98798C23.2781 2.01938 23.2853 2.05351 23.2849 2.08798V3.84098C23.2849 3.87284 23.2786 3.90439 23.2664 3.93382C23.2541 3.96324 23.2362 3.98997 23.2135 4.01245C23.1909 4.03494 23.164 4.05274 23.1345 4.06484C23.1049 4.07695 23.0722 4.08311 23.0403 4.08298Z" fill="#33475B"/>
<path id="Path 2287" fill-rule="evenodd" clip-rule="evenodd" d="M21.5413 2.53394V4.28494C21.1868 4.4137 20.8704 4.6294 20.6214 4.91216C20.3724 5.19493 20.1988 5.53565 20.1165 5.90294C20.1165 5.58994 20.0954 4.23294 20.1346 4.03294C20.2376 3.692 20.4182 3.37938 20.6622 3.11939C20.9062 2.8594 21.207 2.65906 21.5413 2.53394Z" fill="white"/>
<path id="Path 2288" fill-rule="evenodd" clip-rule="evenodd" d="M21.2985 2.93694C21.0721 3.05045 20.8723 3.21043 20.7123 3.40639C20.5523 3.60234 20.4356 3.82984 20.37 4.07394C20.356 4.14994 20.35 4.49094 20.35 4.84694C20.6214 4.55434 20.9443 4.31372 21.3025 4.13694L21.2985 2.93694ZM20.1093 6.14094H20.0953C20.0336 6.13712 19.9756 6.10994 19.9333 6.06497C19.891 6.01999 19.8675 5.9606 19.8677 5.89894V5.60594C19.8491 5.06415 19.8585 4.52177 19.8957 3.98094C20.0043 3.6021 20.2003 3.25388 20.4681 2.96422C20.7359 2.67456 21.068 2.4515 21.4379 2.31294C21.4742 2.29342 21.5149 2.2832 21.5562 2.2832C21.5975 2.2832 21.6381 2.29342 21.6745 2.31294C21.7103 2.3369 21.7392 2.36984 21.7582 2.40846C21.7772 2.44708 21.7857 2.49001 21.7828 2.53294V4.28494C21.7826 4.3302 21.7699 4.37453 21.746 4.41301C21.7221 4.45149 21.688 4.48262 21.6474 4.50294C20.8563 4.88694 20.4181 5.36794 20.3489 5.93494C20.3401 5.99227 20.311 6.04455 20.2668 6.08233C20.2227 6.12011 20.1665 6.1409 20.1083 6.14094H20.1093Z" fill="#33475B"/>
<path id="Path 2289" fill-rule="evenodd" clip-rule="evenodd" d="M20.1092 4.14692V5.89692L18.6543 5.84692V4.09692L20.1092 4.14692Z" fill="#C1CCD6"/>
<path id="Path 2290" fill-rule="evenodd" clip-rule="evenodd" d="M18.8964 5.61698L19.867 5.64898V4.37998L18.8964 4.34398V5.61698ZM20.1097 6.14098H20.1007L18.6488 6.08598C18.5859 6.08316 18.5265 6.05638 18.4828 6.01117C18.4392 5.96595 18.4146 5.90575 18.4141 5.84298V4.09598C18.4134 4.0627 18.4197 4.02963 18.4326 3.99895C18.4456 3.96827 18.4649 3.94068 18.4893 3.91798C18.5118 3.89378 18.5397 3.87513 18.5707 3.86351C18.6016 3.85188 18.6349 3.84759 18.6678 3.85098L20.1207 3.90098C20.1837 3.90253 20.2436 3.92844 20.2877 3.97323C20.3319 4.01801 20.3568 4.07817 20.3573 4.14098V5.89198C20.3573 5.92523 20.3506 5.95814 20.3375 5.98873C20.3244 6.01932 20.3052 6.04695 20.2811 6.06998C20.2356 6.11528 20.174 6.1408 20.1097 6.14098Z" fill="#33475B"/>
<path id="Path 2291" fill-rule="evenodd" clip-rule="evenodd" d="M28.5743 2.60693C28.9469 2.88139 29.216 3.27286 29.3384 3.71834C29.4608 4.16382 29.4293 4.63742 29.2491 5.06293L27.8454 4.85193C27.977 4.5414 28 4.19569 27.9105 3.87057C27.821 3.54545 27.6243 3.25988 27.3521 3.05993L28.5743 2.60693Z" fill="white"/>
<path id="Path 2292" fill-rule="evenodd" clip-rule="evenodd" d="M28.164 4.66997L29.0955 4.80997C29.1994 4.46977 29.1998 4.10652 29.0969 3.76606C28.9939 3.42559 28.7921 3.12318 28.517 2.89697L27.778 3.17097C27.9583 3.37158 28.0875 3.61252 28.1546 3.87343C28.2218 4.13434 28.2251 4.40755 28.164 4.66997ZM29.2489 5.31997H29.2128L27.8091 5.10497C27.7716 5.10031 27.7358 5.08669 27.7047 5.06528C27.6737 5.04386 27.6482 5.01528 27.6306 4.98197C27.614 4.94856 27.6053 4.91176 27.6053 4.87447C27.6053 4.83717 27.614 4.80038 27.6306 4.76697C27.741 4.50192 27.758 4.20735 27.6787 3.93143C27.5995 3.65551 27.4288 3.41456 27.1944 3.24797C27.1645 3.22019 27.1421 3.18526 27.1295 3.14648C27.1168 3.10769 27.1143 3.06633 27.1221 3.0263C27.1299 2.98627 27.1479 2.94889 27.1742 2.91769C27.2005 2.88649 27.2344 2.86249 27.2726 2.84797L28.4979 2.38997C28.5395 2.37462 28.5845 2.3708 28.6281 2.3789C28.6717 2.387 28.7123 2.40672 28.7456 2.43597C29.1575 2.74486 29.4538 3.18245 29.5872 3.6789C29.7206 4.17535 29.6834 4.70205 29.4816 5.17497C29.4596 5.21622 29.4264 5.25042 29.3858 5.2736C29.3451 5.29679 29.2987 5.30801 29.252 5.30597L29.2489 5.31997Z" fill="#33475B"/>
<path id="Path 2293" fill-rule="evenodd" clip-rule="evenodd" d="M22.0714 7.16998C20.8712 6.97687 19.7837 6.35135 19.0151 5.41198L20.3718 5.10498C20.9334 5.79055 21.7268 6.24789 22.6028 6.39098L22.0714 7.16998Z" fill="white"/>
<path id="Path 2294" fill-rule="evenodd" clip-rule="evenodd" d="M19.4455 5.55295C20.138 6.2324 21.0133 6.69685 21.9653 6.88995L22.209 6.53495C21.4612 6.35077 20.7862 5.94661 20.2717 5.37495L19.4455 5.55295ZM22.0726 7.41095C22.0549 7.41267 22.0371 7.41267 22.0194 7.41095C20.7585 7.20121 19.6176 6.53985 18.8108 5.55095C18.7883 5.51854 18.7742 5.48112 18.7697 5.44197C18.7651 5.40283 18.7703 5.36317 18.7848 5.3265C18.7993 5.28983 18.8226 5.25728 18.8526 5.23172C18.8827 5.20616 18.9186 5.18838 18.9572 5.17995L20.3139 4.87495C20.3615 4.86426 20.4112 4.86808 20.4566 4.88591C20.502 4.90374 20.541 4.93476 20.5685 4.97495C21.097 5.60666 21.836 6.02734 22.6501 6.15995C22.6898 6.16724 22.727 6.18446 22.7583 6.20999C22.7895 6.23553 22.8137 6.26854 22.8286 6.30595C22.8429 6.34253 22.8481 6.38201 22.8437 6.42102C22.8393 6.46003 22.8256 6.49741 22.8036 6.52995L22.2691 7.31095C22.2465 7.34206 22.2168 7.36735 22.1825 7.38474C22.1481 7.40213 22.1111 7.41111 22.0726 7.41095Z" fill="#33475B"/>
<path id="Path 2295" fill-rule="evenodd" clip-rule="evenodd" d="M18.6484 4.097C18.7596 3.59205 18.9978 3.1236 19.3405 2.73576C19.6833 2.34792 20.1194 2.05343 20.6077 1.88L21.5412 2.534C21.1843 2.6588 20.8657 2.87325 20.6161 3.15668C20.3665 3.4401 20.1944 3.78291 20.1164 4.152L18.6484 4.097Z" fill="white"/>
<path id="Path 2296" fill-rule="evenodd" clip-rule="evenodd" d="M18.9433 3.86397L19.9089 3.89797C20.0981 3.2948 20.5197 2.79124 21.081 2.49797L20.5967 2.15697C20.2182 2.31279 19.876 2.54481 19.5915 2.83853C19.307 3.13224 19.0864 3.48133 18.9433 3.86397ZM20.1094 4.39697C20.108 4.3976 20.1065 4.39793 20.1049 4.39793C20.1034 4.39793 20.1018 4.3976 20.1004 4.39697L18.6485 4.33797C18.6145 4.33786 18.5809 4.33038 18.5501 4.31605C18.5193 4.30172 18.492 4.28088 18.47 4.25497C18.4481 4.23114 18.4315 4.20296 18.4213 4.17229C18.4111 4.14161 18.4076 4.10912 18.4109 4.07697C18.5254 3.52855 18.7792 3.01862 19.1479 2.59597C19.5165 2.17331 19.9878 1.85207 20.5165 1.66297C20.554 1.64438 20.5959 1.63616 20.6377 1.63915C20.6794 1.64214 20.7197 1.65623 20.7542 1.67997L21.6726 2.32797C21.7072 2.35234 21.7348 2.38528 21.7528 2.42355C21.7707 2.46181 21.7783 2.50407 21.7749 2.54617C21.7714 2.58826 21.757 2.62874 21.7331 2.6636C21.7092 2.69846 21.6766 2.72651 21.6385 2.74497C21.3206 2.8542 21.0358 3.04232 20.811 3.29161C20.5861 3.54091 20.4285 3.84318 20.3531 4.16997C20.347 4.22933 20.3194 4.28444 20.2754 4.32495C20.2315 4.36545 20.1743 4.38857 20.1144 4.38997L20.1094 4.39697Z" fill="#33475B"/>
<path id="Path 2297" fill-rule="evenodd" clip-rule="evenodd" d="M22.6724 1.27697C24.1076 1.05584 25.5754 1.18941 26.9469 1.66597L26.1617 2.37597C25.1626 2.02831 24.0931 1.93079 23.0474 2.09197L22.6724 1.27697Z" fill="white"/>
<path id="Path 2298" fill-rule="evenodd" clip-rule="evenodd" d="M24.0289 1.77398C24.7322 1.77093 25.4316 1.87997 26.1005 2.09698L26.4704 1.76298C25.3541 1.4375 24.1839 1.33721 23.0282 1.46798L23.1886 1.82298C23.4674 1.78876 23.748 1.77139 24.0289 1.77098V1.77398ZM26.1556 2.61598C26.127 2.6149 26.0988 2.6088 26.0724 2.59798C25.1112 2.26641 24.0835 2.17373 23.0783 2.32798C23.0261 2.33567 22.9728 2.32617 22.9264 2.3009C22.8801 2.27563 22.8433 2.23599 22.8216 2.18798L22.4526 1.37798C22.4359 1.34424 22.4272 1.30711 22.4272 1.26948C22.4272 1.23185 22.4359 1.19472 22.4526 1.16098C22.4707 1.12797 22.4962 1.09965 22.5272 1.07828C22.5582 1.05692 22.5938 1.04311 22.6311 1.03798C24.1045 0.812085 25.611 0.949417 27.0189 1.43798C27.058 1.45178 27.0929 1.47542 27.1201 1.50661C27.1473 1.5378 27.166 1.57547 27.1743 1.61598C27.1828 1.65753 27.1804 1.70057 27.1672 1.74088C27.154 1.7812 27.1306 1.81741 27.0991 1.84598L26.312 2.55598C26.2686 2.59366 26.2131 2.61559 26.1556 2.61598Z" fill="#33475B"/>
<path id="Path 2299" fill-rule="evenodd" clip-rule="evenodd" d="M22.6042 6.39001V8.14101L22.0718 8.92202V7.16802L22.6042 6.39001Z" fill="#C1CCD6"/>
<path id="Path 2300" fill-rule="evenodd" clip-rule="evenodd" d="M22.3131 7.24392V8.13192L22.3592 8.06092V7.17292L22.3131 7.23992V7.24392ZM22.0705 9.16192C22.0469 9.1653 22.0229 9.1653 21.9993 9.16192C21.9484 9.14801 21.9034 9.11793 21.8712 9.07625C21.839 9.03456 21.8213 8.98354 21.8208 8.93092V7.16892C21.8208 7.11994 21.8359 7.07213 21.8639 7.03192L22.3984 6.25192C22.4279 6.20999 22.47 6.17849 22.5187 6.16197C22.5673 6.14545 22.62 6.14475 22.669 6.15999C22.7181 6.17523 22.761 6.2056 22.7917 6.24675C22.8223 6.28789 22.8391 6.33767 22.8395 6.38892V8.13992C22.8394 8.18797 22.8251 8.23492 22.7984 8.27492L22.264 9.05592C22.2427 9.08757 22.2141 9.1137 22.1806 9.13213C22.1471 9.15057 22.1087 9.16078 22.0705 9.16192Z" fill="#33475B"/>
<path id="Path 2301" fill-rule="evenodd" clip-rule="evenodd" d="M27.9643 4.33702V6.08602C27.9635 5.84067 27.9076 5.59863 27.8007 5.37765C27.6939 5.15667 27.5387 4.96237 27.3467 4.80902V3.06702C27.5402 3.21751 27.6964 3.41025 27.8035 3.63042C27.9106 3.85059 27.9656 4.09232 27.9643 4.33702Z" fill="#C1CCD6"/>
<path id="Path 2302" fill-rule="evenodd" clip-rule="evenodd" d="M27.5895 4.70795C27.6376 4.75595 27.6807 4.80195 27.7228 4.84995V4.33095C27.7297 4.12678 27.6838 3.92428 27.5895 3.74295V4.70795ZM27.9655 6.32995C27.9026 6.32736 27.8432 6.30063 27.7996 6.25533C27.7561 6.21004 27.7318 6.1497 27.7319 6.08695V6.02295C27.722 5.82211 27.6691 5.6257 27.577 5.44686C27.4848 5.26802 27.3554 5.11088 27.1974 4.98595C27.1721 4.96381 27.152 4.93639 27.1384 4.90563C27.1249 4.87487 27.1184 4.84152 27.1192 4.80795V3.06695C27.1202 3.02106 27.1343 2.9764 27.1598 2.93818C27.1853 2.89996 27.2211 2.86976 27.2632 2.8511C27.3052 2.83244 27.3517 2.82609 27.3972 2.83279C27.4428 2.83949 27.4854 2.85897 27.5203 2.88895C27.7398 3.06355 27.917 3.28537 28.0386 3.53783C28.1601 3.7903 28.2229 4.06689 28.2222 4.34695V6.08395C28.2222 6.11716 28.2155 6.15003 28.2023 6.18054C28.1891 6.21104 28.1698 6.23853 28.1456 6.2613C28.1213 6.28407 28.0927 6.30165 28.0614 6.31294C28.03 6.32423 27.9967 6.329 27.9635 6.32695L27.9655 6.32995Z" fill="#33475B"/>
<path id="Path 2303" fill-rule="evenodd" clip-rule="evenodd" d="M24.3506 7.37894V9.12994L24.2656 8.28994V6.53894L24.3506 7.37894Z" fill="#66CEEF"/>
<path id="Path 2304" fill-rule="evenodd" clip-rule="evenodd" d="M24.3527 9.37194C24.2928 9.37176 24.2351 9.3495 24.1907 9.30944C24.1463 9.26938 24.1183 9.21435 24.1121 9.15494L24.0269 8.31494V6.53894C24.0273 6.47729 24.0513 6.41813 24.0939 6.37353C24.1366 6.32892 24.1947 6.30225 24.2565 6.29894C24.318 6.29713 24.3781 6.31809 24.4251 6.35777C24.4721 6.39746 24.5028 6.45308 24.5112 6.51394L24.5944 7.35394C24.5954 7.36224 24.5954 7.37063 24.5944 7.37894V9.12994C24.5945 9.19193 24.5707 9.25159 24.528 9.29662C24.4853 9.34165 24.4268 9.36861 24.3648 9.37194H24.3527Z" fill="#33475B"/>
<path id="Path 2305" fill-rule="evenodd" clip-rule="evenodd" d="M29.2479 5.06301V6.81801L27.9624 6.63601V4.88501L29.2479 5.06301Z" fill="#C1CCD6"/>
<path id="Path 2306" fill-rule="evenodd" clip-rule="evenodd" d="M28.2031 6.42698L29.0052 6.53698V5.27298L28.2031 5.16298V6.42698ZM29.2489 7.05798H29.2168L27.9293 6.87998C27.8712 6.87267 27.8177 6.84447 27.7789 6.80065C27.7402 6.75683 27.7188 6.70041 27.7188 6.64198V4.88498C27.7197 4.85121 27.7275 4.81799 27.7419 4.78737C27.7562 4.75676 27.7766 4.72939 27.802 4.70698C27.8562 4.66359 27.9253 4.64313 27.9945 4.64998L29.282 4.82798C29.3397 4.83573 29.3927 4.86413 29.4311 4.9079C29.4694 4.95167 29.4905 5.00784 29.4905 5.06598V6.82098C29.49 6.88481 29.4642 6.94585 29.4187 6.99081C29.3733 7.03576 29.3119 7.06098 29.2479 7.06098L29.2489 7.05798Z" fill="#33475B"/>
<path id="Path 2307" fill-rule="evenodd" clip-rule="evenodd" d="M28.2023 6.24792C27.0494 6.97743 25.7142 7.36931 24.3489 7.37892L24.2637 6.53892C25.2583 6.53324 26.2313 6.24837 27.0712 5.71692L28.2023 6.24792Z" fill="white"/>
<path id="Path 2308" fill-rule="evenodd" clip-rule="evenodd" d="M24.5262 6.76793L24.5623 7.12293C25.6569 7.07853 26.7275 6.78905 27.6947 6.27593L27.0931 5.98993C26.3142 6.45486 25.4328 6.72201 24.5262 6.76793ZM24.3477 7.61893C24.2877 7.61873 24.2298 7.59633 24.1854 7.55606C24.1409 7.51579 24.113 7.46052 24.1071 7.40093L24.0219 6.56393C24.0191 6.53181 24.0229 6.49947 24.0331 6.46887C24.0433 6.43827 24.0596 6.41006 24.081 6.38593C24.1034 6.3606 24.1308 6.34022 24.1616 6.3261C24.1923 6.31198 24.2257 6.30443 24.2595 6.30393C25.2057 6.29827 26.1312 6.02766 26.9307 5.52293C26.9657 5.49838 27.0066 5.48358 27.0493 5.48006C27.0919 5.47655 27.1347 5.48444 27.1733 5.50293L28.3004 6.03593C28.3387 6.05272 28.372 6.07898 28.3973 6.11223C28.4226 6.14548 28.4389 6.18462 28.4447 6.22593C28.4479 6.26733 28.4404 6.30886 28.4228 6.34651C28.4053 6.38417 28.3783 6.41668 28.3445 6.44093C27.154 7.19644 25.7747 7.60322 24.3638 7.61493L24.3477 7.61893Z" fill="#33475B"/>
<path id="Path 2309" fill-rule="evenodd" clip-rule="evenodd" d="M18.6484 6.027V8.084C18.6916 9.816 20.8243 10.721 22.2581 11.011C24.2294 11.411 26.9808 11.144 28.534 9.789C28.7957 9.58451 29.0105 9.32659 29.1641 9.03253C29.3177 8.73847 29.4064 8.41507 29.4244 8.084V4.354C29.4095 4.59965 29.349 4.8404 29.2459 5.064V6.796C29.1315 7.04142 28.9808 7.26829 28.7987 7.469L28.1971 7.991V6.247C27.0472 6.97905 25.7129 7.37119 24.3488 7.378V9.119C23.5833 9.14671 22.8174 9.07681 22.0696 8.911V7.169C20.8742 6.96569 19.7914 6.34201 19.0174 5.411V7.141C18.7851 6.815 18.6566 6.42685 18.6484 6.027Z" fill="white"/>
<path id="Path 2310" fill-rule="evenodd" clip-rule="evenodd" d="M18.8964 7.35094V8.08494C18.9285 9.56794 20.7534 10.4609 22.3056 10.7759C24.1596 11.1469 26.8468 10.9429 28.3749 9.60894C28.6109 9.42654 28.8048 9.19554 28.9432 8.93169C29.0816 8.66783 29.1614 8.37732 29.1771 8.07994V7.38594C29.0858 7.50994 28.9986 7.60794 28.9826 7.63294L28.3579 8.17594C28.323 8.20592 28.2803 8.22539 28.2348 8.23209C28.1893 8.23879 28.1428 8.23244 28.1007 8.21378C28.0587 8.19512 28.0228 8.16492 27.9973 8.1267C27.9719 8.08849 27.9578 8.04383 27.9568 7.99794V6.68594C26.9204 7.24602 25.7687 7.56081 24.5907 7.60594V9.11894C24.5908 9.18136 24.5668 9.24142 24.5237 9.28666C24.4806 9.3319 24.4216 9.35886 24.3591 9.36194C23.5724 9.38925 22.7853 9.31701 22.0168 9.14694C21.963 9.13494 21.9148 9.10505 21.8802 9.06218C21.8456 9.0193 21.8266 8.96598 21.8263 8.91094V7.35894C20.8707 7.15464 19.9846 6.70674 19.2544 6.05894V7.13894C19.2549 7.19182 19.2376 7.24334 19.2052 7.28522C19.1729 7.32711 19.1273 7.35695 19.0759 7.36994C19.0448 7.38023 19.0119 7.38368 18.9794 7.38006C18.9468 7.37643 18.9154 7.36581 18.8874 7.34894L18.8964 7.35094ZM24.0232 11.4149C23.4138 11.4157 22.8059 11.3561 22.2083 11.2369C20.4807 10.8819 18.4492 9.85194 18.4111 8.07894V6.02694C18.4116 5.96384 18.4365 5.90335 18.4806 5.85808C18.5246 5.81282 18.5845 5.78626 18.6478 5.78394C18.6916 5.78073 18.7353 5.79197 18.7721 5.81594V5.41594C18.7726 5.36476 18.7892 5.31503 18.8197 5.27385C18.8502 5.23268 18.893 5.20215 18.9419 5.18663C18.9908 5.17111 19.0434 5.17139 19.0921 5.18743C19.1408 5.20347 19.1832 5.23444 19.2133 5.27594C19.9465 6.16587 20.9807 6.7577 22.1211 6.93994C22.1728 6.95337 22.2185 6.98374 22.2509 7.02617C22.2833 7.0686 22.3004 7.12064 22.2996 7.17394V8.71894C22.89 8.84065 23.4915 8.90031 24.0944 8.89694V7.37894C24.0944 7.34669 24.1008 7.31476 24.1133 7.28501C24.1258 7.25527 24.1441 7.2283 24.1672 7.20568C24.1902 7.18307 24.2176 7.16525 24.2476 7.15328C24.2776 7.1413 24.3097 7.13541 24.3421 7.13594C25.662 7.13121 26.9537 6.75438 28.0681 6.04894C28.1042 6.02359 28.1468 6.00884 28.1909 6.00636C28.2351 6.00389 28.279 6.01379 28.3178 6.03494C28.357 6.05511 28.3899 6.08565 28.4129 6.12322C28.4359 6.16078 28.4481 6.20393 28.4481 6.24794V7.46294L28.6487 7.28494C28.7908 7.12165 28.9139 6.94285 29.0156 6.75194V5.06794C29.0235 5.00292 29.0415 4.9395 29.0688 4.87994C29.1434 4.71178 29.1846 4.53076 29.1901 4.34694C29.19 4.31511 29.1965 4.2836 29.2093 4.25443C29.2221 4.22525 29.2408 4.19906 29.2643 4.17751C29.2878 4.15596 29.3155 4.13953 29.3457 4.12928C29.376 4.11902 29.408 4.11516 29.4398 4.11794C29.5026 4.12052 29.5621 4.14726 29.6056 4.19255C29.6492 4.23785 29.6735 4.29819 29.6734 4.36094V8.09094C29.6585 8.45649 29.5641 8.81446 29.3969 9.14009C29.2297 9.46571 28.9935 9.75124 28.7048 9.97694C27.3555 10.9769 25.7028 11.4852 24.0232 11.4149Z" fill="#33475B"/>
<path id="Path 2311" fill-rule="evenodd" clip-rule="evenodd" d="M18.6484 6.02701V8.08401C18.6785 9.47301 20.1404 10.393 21.3086 10.759V6.95901C20.3986 6.69641 19.5945 6.15482 19.0104 5.41101V7.14101C18.7806 6.8142 18.6545 6.42612 18.6484 6.02701Z" fill="#EAF0F6"/>
<path id="Path 2312" fill-rule="evenodd" clip-rule="evenodd" d="M18.8963 7.35092V8.08492C18.9193 9.19492 20.0213 10.0069 21.0721 10.4169V7.13192C20.4002 6.90469 19.7824 6.54181 19.2573 6.06592V7.14792C19.2578 7.2008 19.2404 7.25232 19.2081 7.29421C19.1757 7.3361 19.1302 7.36593 19.0788 7.37892C19.0477 7.38921 19.0148 7.39266 18.9822 7.38904C18.9497 7.38541 18.9183 7.3748 18.8903 7.35792L18.8963 7.35092ZM21.3198 11.0009C21.2949 11.0015 21.27 10.9974 21.2466 10.9889C19.9 10.5569 18.4491 9.56792 18.417 8.08892V6.03192C18.4174 5.96965 18.4416 5.90986 18.4846 5.86472C18.5276 5.81958 18.5863 5.79248 18.6486 5.78892C18.6925 5.78571 18.7361 5.79695 18.7729 5.82092V5.42092C18.7734 5.36974 18.7901 5.32001 18.8206 5.27884C18.8511 5.23766 18.8938 5.20713 18.9427 5.19161C18.9916 5.17609 19.0442 5.17637 19.0929 5.19241C19.1417 5.20845 19.1841 5.23942 19.2141 5.28092C19.7667 5.98402 20.5284 6.49444 21.39 6.73892C21.4381 6.75503 21.48 6.78579 21.5096 6.82688C21.5393 6.86796 21.5553 6.91729 21.5554 6.96792V10.7679C21.5526 10.8283 21.5274 10.8855 21.4849 10.9285C21.4423 10.9715 21.3853 10.9973 21.3248 11.0009H21.3198Z" fill="#33475B"/>
</g>
</g>
</g>
</svg>
