<svg width="157" height="169" viewBox="0 0 157 169" fill="none" xmlns="http://www.w3.org/2000/svg">
<g id="Group 813">
<path id="Path 2042" d="M72.6697 68.781L1.96771 114.837C1.38012 115.217 0.899109 115.74 0.570126 116.358C0.241143 116.975 0.0750598 117.667 0.0875722 118.366C0.100085 119.066 0.290779 119.751 0.641634 120.356C0.992489 120.961 1.49192 121.467 2.09271 121.826L78.4107 167.064C79.7471 167.862 81.2813 168.268 82.8376 168.235C84.3939 168.202 85.9094 167.731 87.2107 166.877L155.167 122.01C155.74 121.634 156.209 121.119 156.53 120.513C156.85 119.907 157.012 119.229 156.999 118.543C156.987 117.858 156.801 117.187 156.458 116.592C156.116 115.998 155.629 115.501 155.042 115.146L77.6617 68.719C76.9095 68.2546 76.0406 68.0139 75.1567 68.0249C74.2728 68.0359 73.4102 68.2981 72.6697 68.781Z" fill="#FCE9C6"/>
<g id="unread-message-1354601">
<path id="Path 2152" d="M114.164 6.46096C113.661 6.22775 113.105 6.13333 112.553 6.18749C112.002 6.24164 111.474 6.44241 111.026 6.76896L64.6924 33.508C63.4216 34.3422 62.3642 35.4629 61.6052 36.7801C60.8462 38.0973 60.4069 39.5741 60.3224 41.092L60.5924 131.432C60.5353 131.971 60.6229 132.515 60.8461 133.009C61.0693 133.503 61.4201 133.929 61.8624 134.242L55.0864 130.296C54.6393 129.986 54.2837 129.561 54.0567 129.067C53.8298 128.572 53.7399 128.026 53.7964 127.485L53.5464 37.145C53.6229 35.6279 54.0591 34.1507 54.8189 32.8354C55.5788 31.52 56.6404 30.4042 57.9164 29.58L104.231 2.82296C104.68 2.49644 105.208 2.29597 105.761 2.24234C106.313 2.18871 106.87 2.28387 107.373 2.51796L114.164 6.46096Z" fill="#EAF0F6"/>
<path id="Path 2153" d="M115.69 99.608C115.614 101.13 115.177 102.612 114.414 103.931C113.652 105.251 112.587 106.37 111.307 107.196L64.9937 133.929C62.5537 135.335 60.5937 134.218 60.5937 131.429L60.3247 41.099C60.4086 39.579 60.8491 38.1 61.6105 36.7818C62.3719 35.4636 63.4329 34.3431 64.7077 33.511L111.017 6.77497C113.457 5.36897 115.417 6.48597 115.442 9.27497L115.69 99.608Z" fill="white"/>
<path id="Path 2154" d="M115.69 15.357L60.3208 47.333V41.097C60.4047 39.577 60.8452 38.098 61.6066 36.7798C62.368 35.4616 63.429 34.3411 64.7038 33.509L111.017 6.77497C113.457 5.36897 115.417 6.48597 115.442 9.27497L115.69 15.357Z" fill="#C1CCD6"/>
<path id="Path 2155" d="M60.6636 125.657L115.764 93.838L116.033 99.92C115.948 101.44 115.508 102.919 114.746 104.237C113.985 105.555 112.923 106.675 111.649 107.507L65.3366 134.24C62.8966 135.646 60.9366 134.529 60.9116 131.74L60.6636 125.657Z" fill="#C1CCD6"/>
<path id="Path 2156" d="M94.0167 21.759L81.2697 29.123C81.1847 29.1691 81.1098 29.2317 81.0493 29.3072C80.9889 29.3827 80.9443 29.4695 80.9179 29.5625C80.8916 29.6556 80.8842 29.7529 80.8962 29.8489C80.9081 29.9448 80.9391 30.0374 80.9874 30.1212C81.0357 30.2049 81.1003 30.2781 81.1773 30.3365C81.2544 30.3949 81.3424 30.4373 81.4361 30.4612C81.5298 30.485 81.6273 30.4898 81.7229 30.4754C81.8185 30.4609 81.9102 30.4275 81.9927 30.377L94.7397 23.015C94.9006 22.9164 95.0167 22.759 95.0633 22.5761C95.1098 22.3932 95.0831 22.1994 94.9888 22.0359C94.8946 21.8724 94.7402 21.7522 94.5586 21.7008C94.377 21.6495 94.1826 21.6711 94.0167 21.761V21.759Z" fill="#33475C"/>
<path id="Path 2157" d="M116.986 9.27098C117.044 8.46957 116.89 7.66701 116.54 6.94373C116.19 6.22045 115.656 5.60187 114.992 5.14998L108.153 1.17698C107.414 0.801653 106.588 0.631493 105.762 0.684264C104.935 0.737035 104.137 1.0108 103.453 1.47698L57.1466 28.233C55.6316 29.1923 54.3716 30.5044 53.4744 32.057C52.5772 33.6095 52.0694 35.3564 51.9946 37.148L52.2446 127.483C52.183 128.296 52.3418 129.111 52.7044 129.841C53.0669 130.571 53.6198 131.19 54.3046 131.633L61.0806 135.579C61.8135 135.957 62.6356 136.129 63.4587 136.077C64.2819 136.024 65.0751 135.748 65.7536 135.279L112.093 108.537C113.603 107.57 114.859 106.254 115.754 104.7C116.65 103.146 117.158 101.399 117.236 99.607L116.986 9.27098ZM55.4726 35.148L60.3496 37.691C59.8807 38.7668 59.6257 39.9237 59.5986 41.097V47.334C59.5986 47.359 59.6146 47.379 59.6176 47.404L59.8666 131.283L55.8466 128.942C55.6166 128.814 55.3466 128.354 55.3466 127.48L55.0966 37.133C55.1103 36.455 55.2374 35.784 55.4726 35.148ZM114.135 99.618C114.06 100.864 113.697 102.076 113.073 103.158C112.449 104.239 111.582 105.161 110.541 105.849L64.1976 132.595C63.969 132.781 63.694 132.9 63.4024 132.941C63.1108 132.982 62.8135 132.943 62.5426 132.827L62.5346 132.837L61.6956 132.348C61.6584 132.136 61.6381 131.922 61.6346 131.707L61.4046 126.064L114.123 95.618L114.135 99.618ZM61.2946 124.453L61.0656 47.738L113.906 17.224L114.119 93.951L61.2946 124.453ZM61.0606 46.067L61.0456 41.088C61.1405 39.6989 61.552 38.35 62.2487 37.1445C62.9453 35.9389 63.9085 34.9088 65.0646 34.133L111.373 7.40198C111.609 7.26773 111.858 7.15623 112.116 7.06898L113.18 7.68798C113.351 7.89498 113.88 7.80598 113.88 9.27498L113.897 15.555L61.0606 46.067ZM64.3276 32.879C62.9353 33.7479 61.7859 34.9555 60.9866 36.389L56.0576 33.818C56.6632 32.635 57.5722 31.6342 58.6916 30.918L105.009 4.16498C105.23 3.99424 105.489 3.87735 105.763 3.82355C106.038 3.76975 106.321 3.78051 106.591 3.85498L110.591 6.18298L64.3276 32.879Z" fill="#33475C"/>
<path id="Path 2158" d="M86.7198 117.025L89.9748 115.146C90.4158 114.86 90.7831 114.475 91.0469 114.02C91.3106 113.566 91.4634 113.056 91.4928 112.531C91.4928 111.569 90.8028 111.177 89.9648 111.661L86.7098 113.54C86.2692 113.827 85.9026 114.214 85.6399 114.669C85.3771 115.124 85.2256 115.635 85.1978 116.16C85.2048 117.122 85.8828 117.508 86.7198 117.025ZM58.0978 58.658L58.1098 52.739C58.101 52.5326 58.0425 52.3313 57.9393 52.1523C57.8361 51.9733 57.6911 51.8219 57.5168 51.711C57.1958 51.526 56.9168 51.666 56.9168 52.051L56.9048 57.97C56.9179 58.1754 56.9782 58.375 57.0811 58.5533C57.1839 58.7316 57.3265 58.8838 57.4978 58.998C57.8338 59.193 58.0978 59.031 58.0978 58.658ZM58.0768 68.831L58.0888 62.912C58.0799 62.7056 58.0214 62.5043 57.9182 62.3254C57.8149 62.1464 57.67 61.995 57.4958 61.884C57.1748 61.699 56.8958 61.839 56.8958 62.225L56.8838 68.144C56.8969 68.3494 56.9572 68.549 57.0601 68.7273C57.1629 68.9056 57.3055 69.0578 57.4768 69.172C57.8148 69.364 58.0748 69.198 58.0768 68.831Z" fill="#33475C"/>
<g id="Group 827">
<path id="Path 2159" d="M104.04 48.935C104.252 48.8177 104.486 48.7463 104.727 48.7255C104.968 48.7046 105.211 48.7348 105.44 48.814C105.723 48.9757 105.952 49.217 106.098 49.5079C106.245 49.7988 106.303 50.1264 106.265 50.45L106.329 73.187C106.284 74.034 106.04 74.8585 105.617 75.5937C105.195 76.329 104.604 76.9543 103.895 77.419L70.5339 96.681C69.1929 97.455 68.0749 96.834 68.0699 95.281L68.0059 72.544C68.0507 71.7423 68.273 70.9606 68.6565 70.2553C69.0401 69.5499 69.5754 68.9384 70.2239 68.465C69.6612 68.8655 69.1875 69.3783 68.8329 69.971L87.1839 75.522L105.44 48.826C105.213 48.7408 104.969 48.7066 104.727 48.7255C104.485 48.7443 104.251 48.8157 104.04 48.935Z" fill="#CBD6E2"/>
<path id="Path 2160" d="M103.816 49.054C103.892 49.01 103.967 48.9703 104.042 48.935C104.254 48.8172 104.489 48.7471 104.731 48.7299C104.973 48.7126 105.216 48.7485 105.442 48.835L87.1821 75.519L68.8311 69.967C69.1857 69.3743 69.6593 68.8615 70.2221 68.461C70.2981 68.4097 70.3747 68.3613 70.4521 68.316L103.816 49.054Z" fill="#7C98B6"/>
</g>
<g id="Group 828">
<path id="Path 2161" d="M111.717 43.5C111.588 45.794 110.923 48.0257 109.774 50.0153C108.624 52.0048 107.024 53.6965 105.101 54.954C101.462 57.063 98.4639 55.347 98.4639 51.154C98.5823 48.8651 99.2423 46.6369 100.39 44.6528C101.537 42.6687 103.139 40.9853 105.064 39.741C108.719 37.608 111.696 39.303 111.717 43.5Z" fill="#EA6E95"/>
</g>
<g id="Group 829">
<path id="Path 2162" d="M107.122 44.548C107.122 46.14 105.415 48.33 104.409 50.328L107.336 48.638V49.83L102.927 52.378V51.321L104.878 47.932C105.467 47.0956 105.878 46.1474 106.087 45.146C106.087 44.579 105.67 44.319 105.038 44.684C104.427 45.0889 103.966 45.6824 103.725 46.374L102.846 46.299C104.421 42.623 107.116 42.517 107.122 44.548Z" fill="white"/>
</g>
</g>
</g>
</svg>
