<svg width="19" height="18" viewBox="0 0 19 18" fill="none" xmlns="http://www.w3.org/2000/svg">
<g id="Group 832">
<g id="Ellipse 166">
<path id="Vector" d="M9.81381 18C14.7978 18 18.8381 13.9706 18.8381 9C18.8381 4.02944 14.7978 0 9.81381 0C4.82985 0 0.789551 4.02944 0.789551 9C0.789551 13.9706 4.82985 18 9.81381 18Z" fill="#22B7CE"/>
<path id="Vector_2" d="M9.81404 17C14.2442 17 17.8356 13.4183 17.8356 9C17.8356 4.58172 14.2442 1 9.81404 1C5.38386 1 1.79248 4.58172 1.79248 9C1.79248 13.4183 5.38386 17 9.81404 17Z" stroke="#00A4BD" stroke-width="2"/>
</g>
<path id="Line 43" d="M5.84424 9.81799L8.67886 12.175" stroke="white" stroke-width="1.5" stroke-linecap="round"/>
<path id="Line 44" d="M14.1128 5.85205L8.6792 12.1741" stroke="white" stroke-width="1.5" stroke-linecap="round"/>
</g>
</svg>
