<svg width="50" height="45" viewBox="0 0 50 45" fill="none" xmlns="http://www.w3.org/2000/svg">
<g id="Group 930">
<path id="Path 2317" d="M23.5761 13.4971L1.42258 27.8881C1.23827 28.0067 1.08736 28.1704 0.984145 28.3634C0.880927 28.5565 0.82881 28.7726 0.832725 28.9914C0.83664 29.2102 0.896458 29.4243 1.00652 29.6136C1.11658 29.8029 1.27325 29.961 1.46169 30.0731L25.375 44.2111C25.7938 44.4605 26.2745 44.5872 26.7622 44.5768C27.2498 44.5664 27.7247 44.4192 28.1324 44.1521L49.4256 30.1311C49.6055 30.0137 49.7525 29.8528 49.853 29.6633C49.9535 29.4739 50.0042 29.2621 50.0003 29.0478C49.9964 28.8335 49.938 28.6237 49.8307 28.438C49.7233 28.2523 49.5705 28.0968 49.3865 27.9861L25.1403 13.4731C24.9042 13.3286 24.6317 13.2542 24.3547 13.2585C24.0778 13.2627 23.8077 13.3455 23.5761 13.4971Z" fill="#FFE0CB"/>
<g id="Layer 2">
<g id="&#60;Layer&#62;">
<path id="Path 2243" fill-rule="evenodd" clip-rule="evenodd" d="M27.9228 18.296C27.6521 18.3104 27.3896 18.3941 27.1607 18.539C26.6101 18.8993 26.1515 19.383 25.8216 19.9515C25.4917 20.5199 25.2996 21.1574 25.2606 21.813C25.209 22.0144 25.2248 22.2271 25.3057 22.4187C25.3865 22.6103 25.5279 22.7703 25.7084 22.8743C25.8889 22.9783 26.0985 23.0206 26.3053 22.9947C26.5121 22.9688 26.7048 22.8762 26.8539 22.731C27.4062 22.3704 27.8661 21.8858 28.197 21.3161C28.5278 20.7463 28.7203 20.1073 28.759 19.45C28.7843 19.2493 28.756 19.0455 28.6769 18.8592C28.5979 18.6729 28.4709 18.5107 28.3088 18.389C28.1931 18.3223 28.0615 18.2878 27.9278 18.289L27.9228 18.296ZM26.0859 23.585C25.8487 23.5852 25.6156 23.5231 25.41 23.405C25.153 23.2316 24.9475 22.9923 24.815 22.7124C24.6825 22.4325 24.628 22.1222 24.657 21.814C24.696 21.0506 24.9164 20.3073 25.2999 19.6454C25.6834 18.9835 26.2191 18.422 26.8629 18.007C27.1064 17.8089 27.4045 17.6894 27.7178 17.6643C28.031 17.6392 28.3444 17.7097 28.6165 17.8665C28.8885 18.0234 29.1063 18.259 29.2408 18.5422C29.3754 18.8254 29.4203 19.1428 29.3697 19.452C29.3321 20.2178 29.1125 20.9636 28.729 21.628C28.3454 22.2924 27.8089 22.8562 27.1638 23.273C26.8383 23.4693 26.4671 23.5775 26.0869 23.587L26.0859 23.585Z" fill="#33475B"/>
<path id="Path 2244" fill-rule="evenodd" clip-rule="evenodd" d="M30.4324 22.64C30.3781 22.6398 30.3247 22.626 30.277 22.6L28.418 21.525C28.3778 21.5084 28.3416 21.4835 28.3118 21.4519C28.282 21.4203 28.2593 21.3827 28.2452 21.3417C28.231 21.3007 28.2258 21.2571 28.2298 21.2139C28.2339 21.1707 28.2471 21.1288 28.2686 21.0911C28.2901 21.0534 28.3194 21.0207 28.3545 20.9951C28.3896 20.9695 28.4298 20.9517 28.4724 20.9428C28.515 20.9339 28.559 20.9341 28.6015 20.9435C28.644 20.9528 28.684 20.9711 28.7188 20.997L30.5848 22.069C30.6433 22.1027 30.6891 22.1547 30.7149 22.2169C30.7407 22.2792 30.7453 22.3482 30.7278 22.4132C30.7103 22.4783 30.6718 22.5358 30.6182 22.5768C30.5646 22.6178 30.5 22.64 30.4324 22.64Z" fill="#33475B"/>
<path id="Path 2245" fill-rule="evenodd" clip-rule="evenodd" d="M23.5735 26.4789C23.5195 26.4786 23.4665 26.4638 23.4201 26.4359C23.3502 26.3954 23.2992 26.3289 23.2781 26.251C23.2571 26.1731 23.2678 26.09 23.3078 26.0199L25.1267 22.8739C25.1433 22.8338 25.1683 22.7977 25.2 22.768C25.2317 22.7383 25.2694 22.7156 25.3105 22.7015C25.3517 22.6874 25.3954 22.6822 25.4387 22.6863C25.482 22.6903 25.524 22.7034 25.5618 22.7249C25.5996 22.7463 25.6324 22.7755 25.6581 22.8106C25.6837 22.8456 25.7016 22.8857 25.7105 22.9282C25.7194 22.9707 25.7192 23.0145 25.7098 23.0569C25.7005 23.0993 25.6822 23.1392 25.6561 23.1739L23.8403 26.3199C23.814 26.3677 23.7755 26.4076 23.7286 26.4356C23.6817 26.4635 23.6282 26.4785 23.5735 26.4789Z" fill="#33475B"/>
<path id="Path 2246" fill-rule="evenodd" clip-rule="evenodd" d="M26.5491 9.04801C27.0528 8.68958 27.6417 8.46887 28.2574 8.40782C28.873 8.34677 29.494 8.4475 30.0586 8.70001C29.1284 8.03498 28.0981 7.52158 27.0064 7.17901C26.1012 7.12604 25.2019 7.35455 24.4324 7.83301C23.0477 8.73515 21.8846 9.93685 21.0295 11.3488C20.1744 12.7608 19.6493 14.3468 19.4932 15.989L21.6089 17.204C21.761 15.5607 22.2846 13.973 23.1402 12.5604C23.9959 11.1478 25.1614 9.94695 26.5491 9.04801Z" fill="#00BDA5"/>
<path id="Path 2247" fill-rule="evenodd" clip-rule="evenodd" d="M19.8148 15.8181L21.352 16.7011C21.5703 15.0967 22.1333 13.5583 23.0026 12.191C23.8718 10.8236 25.0267 9.65942 26.3885 8.77805H26.4015C27.0229 8.40955 27.7131 8.17135 28.43 8.07805C27.9829 7.79459 27.4895 7.59151 26.9721 7.47805C26.132 7.43297 25.2987 7.64965 24.5877 8.09805C23.2758 8.95923 22.1692 10.0968 21.3457 11.4306C20.5223 12.7644 20.0022 14.2621 19.8218 15.8181H19.8148ZM21.6197 17.51C21.5655 17.5107 21.5122 17.4958 21.4663 17.467L19.3496 16.253C19.2993 16.2251 19.2578 16.184 19.2295 16.134C19.2012 16.0841 19.1872 16.0274 19.1891 15.97C19.3425 14.2774 19.8804 12.6418 20.7621 11.1873C21.6438 9.73293 22.8461 8.49792 24.2778 7.57605C25.1015 7.05517 26.0702 6.80994 27.0433 6.87605C27.9605 7.10952 28.8252 7.5136 29.5921 8.06705C29.8177 8.20205 30.0182 8.33005 30.2078 8.43805C30.2792 8.47704 30.3321 8.54272 30.355 8.62064C30.3778 8.69856 30.3687 8.78234 30.3296 8.85355C30.2905 8.92476 30.2246 8.97757 30.1465 9.00035C30.0684 9.02314 29.9844 9.01404 29.913 8.97505C28.9845 8.49005 28.0269 8.59305 26.7043 9.31405C25.3646 10.1939 24.2394 11.3618 23.4112 12.7319C22.5831 14.102 22.073 15.6397 21.9185 17.232C21.9143 17.2835 21.8973 17.3331 21.8689 17.3762C21.8405 17.4194 21.8017 17.4548 21.756 17.4791C21.7114 17.4993 21.6627 17.5092 21.6137 17.508L21.6197 17.51Z" fill="#33475B"/>
<path id="Path 2248" fill-rule="evenodd" clip-rule="evenodd" d="M26.55 9.046L24.4343 7.828L26.55 9.044V9.046ZM28.6085 1.731C27.78 1.16118 26.8867 0.691237 25.9473 0.331001C23.0716 -0.0259987 19.9462 6.163 22.3757 7.631L24.4914 8.851C21.8293 7.164 25.827 0.274001 28.6085 1.731Z" fill="#7FDED2"/>
<path id="Path 2249" fill-rule="evenodd" clip-rule="evenodd" d="M25.7007 0.62299C24.2518 0.62299 22.7287 2.44799 22.1061 4.24399C21.5857 5.72699 21.7481 6.89599 22.5342 7.36999L23.4216 7.87999C23.1903 6.51566 23.4832 5.11453 24.2418 3.95599C24.8744 2.71278 25.9595 1.75765 27.275 1.28599C26.8526 1.0046 26.3916 0.785665 25.9063 0.63599C25.8382 0.626049 25.7695 0.621701 25.7007 0.62299ZM24.4905 9.16299C24.4356 9.16367 24.3817 9.14875 24.3351 9.11999L22.2214 7.89299C21.1645 7.25699 20.9099 5.81899 21.5255 4.04099C22.2735 1.88999 24.1415 -0.19301 25.9825 0.0289903C26.7939 0.282546 27.5604 0.66185 28.2536 1.15299L28.7549 1.45899C28.8201 1.50064 28.8671 1.56532 28.8865 1.64008C28.9059 1.71483 28.8962 1.79413 28.8594 1.86207C28.8226 1.93001 28.7615 1.98157 28.6881 2.00641C28.6148 2.03124 28.5348 2.02752 28.4642 1.99599C27.2609 1.36899 25.6967 2.66999 24.7712 4.25899C23.8457 5.84799 23.5028 7.85899 24.6469 8.58299C24.7026 8.61837 24.7453 8.67072 24.7688 8.73224C24.7922 8.79377 24.7952 8.86121 24.7771 8.92454C24.7591 8.98786 24.7211 9.04371 24.6688 9.08379C24.6164 9.12386 24.5525 9.14602 24.4865 9.14699L24.4905 9.16299ZM26.548 9.36299C26.4939 9.36267 26.4409 9.34782 26.3946 9.31999L24.2809 8.10399C24.2146 8.06053 24.1674 7.9935 24.1489 7.91654C24.1304 7.83959 24.1421 7.7585 24.1814 7.6898C24.2208 7.62109 24.2849 7.56993 24.3608 7.54675C24.4367 7.52356 24.5185 7.53008 24.5897 7.56499L26.7014 8.77899C26.7471 8.80501 26.7855 8.84211 26.813 8.88686C26.8406 8.93161 26.8563 8.98256 26.8588 9.03499C26.8613 9.08654 26.8506 9.13787 26.8278 9.1842C26.805 9.23053 26.7709 9.27037 26.7285 9.29999C26.6757 9.3368 26.6124 9.35573 26.548 9.35399V9.36299Z" fill="#33475B"/>
<path id="Path 2250" fill-rule="evenodd" clip-rule="evenodd" d="M30.0541 8.70003C29.4908 8.44225 28.8689 8.33863 28.2521 8.39978C27.6354 8.46094 27.0461 8.68467 26.5447 9.04803C25.0832 9.95903 23.8788 11.2266 23.0453 12.731C22.2291 14.0923 21.7371 15.6222 21.6074 17.203L31.487 11.515C31.5044 10.9636 31.3823 10.4166 31.1318 9.92462C30.8814 9.43264 30.5108 9.01149 30.0541 8.70003Z" fill="#7FDED2"/>
<path id="Path 2251" fill-rule="evenodd" clip-rule="evenodd" d="M28.7568 8.67802C28.0263 8.70871 27.3162 8.9271 26.6953 9.31203C25.2793 10.1947 24.1151 11.4262 23.3152 12.888C22.6308 14.0427 22.1753 15.3179 21.9736 16.644L31.1723 11.344C31.1677 10.8741 31.0495 10.4123 30.8278 9.99764C30.6061 9.58299 30.2875 9.22774 29.8989 8.96203C29.5547 8.77032 29.1661 8.67205 28.7718 8.67703L28.7568 8.67802ZM21.6116 17.512C21.5541 17.5122 21.4977 17.4959 21.4492 17.465C21.4017 17.4361 21.363 17.3949 21.3372 17.3457C21.3114 17.2966 21.2995 17.2414 21.3028 17.186C21.4395 15.5604 21.946 13.9872 22.7838 12.586C23.6453 11.0352 24.8872 9.72772 26.3935 8.78603C26.9398 8.39462 27.5812 8.15597 28.2511 8.09479C28.921 8.0336 29.5951 8.15211 30.2037 8.43803C30.7053 8.77365 31.1141 9.22976 31.3926 9.76434C31.671 10.2989 31.8101 10.8948 31.797 11.497C31.8002 11.5544 31.7876 11.6116 31.7606 11.6624C31.7335 11.7131 31.6931 11.7556 31.6436 11.785L21.776 17.473C21.7262 17.5026 21.6694 17.5162 21.6116 17.512Z" fill="#33475B"/>
<path id="Path 2252" fill-rule="evenodd" clip-rule="evenodd" d="M26.5475 8.64403C27.4072 8.10876 28.1155 7.36315 28.605 6.47803C29.1309 5.61045 29.4257 4.6232 29.4613 3.61003C29.4987 3.24914 29.4394 2.8848 29.2893 2.55429C29.1392 2.22379 28.9037 1.93899 28.607 1.72903C28.2771 1.57591 27.9121 1.5137 27.5499 1.54887C27.1877 1.58404 26.8416 1.71531 26.5475 1.92903C25.688 2.46597 24.9799 3.21245 24.49 4.09803C23.9647 4.96406 23.6699 5.94954 23.6336 6.96103C23.5967 7.32209 23.6566 7.68644 23.807 8.0169C23.9574 8.34736 24.1931 8.6321 24.49 8.84203C24.8192 8.99621 25.1839 9.05919 25.5459 9.02435C25.908 8.98951 26.2539 8.85814 26.5475 8.64403Z" fill="white"/>
<path id="Path 2253" fill-rule="evenodd" clip-rule="evenodd" d="M27.8546 1.84299C27.4469 1.86 27.0508 1.98307 26.7055 2.19999C25.8914 2.70682 25.2218 3.41419 24.7613 4.25399C24.261 5.0736 23.9809 6.00799 23.9481 6.96699C23.9132 7.27404 23.9596 7.58485 24.0828 7.86841C24.206 8.15197 24.4015 8.39835 24.65 8.58299C24.9335 8.70861 25.2455 8.75632 25.5537 8.72115C25.8619 8.68598 26.155 8.56923 26.4027 8.38299H26.4207C27.2273 7.87533 27.8907 7.17076 28.3479 6.33599C28.8481 5.51324 29.1268 4.57566 29.1571 3.61399C29.1918 3.30695 29.1453 2.99621 29.0221 2.71269C28.899 2.42917 28.7035 2.18276 28.4552 1.99799C28.2724 1.89387 28.0651 1.84036 27.8546 1.84299ZM25.2476 9.34899C24.931 9.35071 24.6196 9.26858 24.3452 9.11099C23.9987 8.87757 23.722 8.55509 23.5442 8.17767C23.3665 7.80026 23.2944 7.38194 23.3355 6.96699C23.3711 5.90098 23.6819 4.86217 24.2379 3.95099C24.748 3.01756 25.4917 2.23174 26.3967 1.66999C26.7377 1.42915 27.1372 1.28361 27.5536 1.24845C27.97 1.21329 28.3882 1.28977 28.765 1.46999C29.1095 1.70494 29.3843 2.0279 29.5607 2.40508C29.7371 2.78227 29.8086 3.1998 29.7677 3.61399C29.7313 4.67988 29.4206 5.71851 28.8653 6.62999C28.3518 7.56059 27.6075 8.34423 26.7035 8.90599C26.2649 9.17868 25.7621 9.33147 25.2456 9.34899H25.2476Z" fill="#33475B"/>
<path id="Path 2254" fill-rule="evenodd" clip-rule="evenodd" d="M27.008 18.577C26.968 18.5778 26.9282 18.5706 26.891 18.5559C26.8539 18.5412 26.82 18.5192 26.7914 18.4912C26.7628 18.4633 26.7401 18.43 26.7246 18.3932C26.7092 18.3564 26.7012 18.3169 26.7012 18.277V15.387C26.6988 15.3454 26.705 15.3037 26.7193 15.2646C26.7336 15.2255 26.7558 15.1897 26.7844 15.1594C26.8131 15.1291 26.8477 15.105 26.8861 15.0885C26.9244 15.072 26.9657 15.0635 27.0075 15.0635C27.0493 15.0635 27.0906 15.072 27.129 15.0885C27.1673 15.105 27.2019 15.1291 27.2306 15.1594C27.2593 15.1897 27.2814 15.2255 27.2958 15.2646C27.3101 15.3037 27.3162 15.3454 27.3138 15.387V18.277C27.3138 18.3169 27.3059 18.3564 27.2904 18.3932C27.2749 18.43 27.2522 18.4633 27.2236 18.4912C27.195 18.5192 27.1612 18.5412 27.124 18.5559C27.0868 18.5706 27.048 18.5778 27.008 18.577Z" fill="#33475B"/>
<path id="Path 2255" fill-rule="evenodd" clip-rule="evenodd" d="M19.4471 30.5779C19.9504 30.2211 20.5384 30.0013 21.153 29.9402C21.7675 29.8792 22.3874 29.9791 22.9515 30.23C22.0206 29.5659 20.991 29.0516 19.9003 28.706C18.9963 28.6516 18.0979 28.881 17.3314 29.362C15.9449 30.2648 14.7806 31.4681 13.9254 32.8822C13.0702 34.2963 12.546 35.8847 12.3921 37.529L14.5078 38.745C14.6616 37.1007 15.1857 35.5122 16.0409 34.0981C16.8961 32.684 18.0605 31.4807 19.4471 30.5779Z" fill="#6A78D1"/>
<path id="Path 2256" fill-rule="evenodd" clip-rule="evenodd" d="M12.7068 37.3589L14.2439 38.2439C14.4601 36.639 15.0234 35.1001 15.895 33.7337C16.7665 32.3674 17.9254 31.2064 19.2915 30.3309H19.3035C19.9246 29.9619 20.615 29.7237 21.332 29.6309C20.885 29.3473 20.3915 29.1442 19.874 29.0309C19.0334 28.9837 18.199 29.1998 17.4876 29.6489C16.172 30.5052 15.0616 31.6399 14.2354 32.9724C13.4091 34.3049 12.8872 35.8026 12.7068 37.3589ZM14.5116 39.0509C14.4572 39.0515 14.4036 39.0377 14.3562 39.0109L12.2335 37.7949C12.183 37.7661 12.1417 37.7235 12.1146 37.6722C12.0874 37.6208 12.0754 37.5628 12.0801 37.5049C12.2341 35.8124 12.7724 34.1771 13.654 32.7228C14.5357 31.2685 15.7376 30.0334 17.1688 29.1109C17.9919 28.589 18.9611 28.3436 19.9342 28.4109C20.8499 28.6432 21.7131 29.0467 22.478 29.5999C22.7036 29.7349 22.9082 29.8649 23.0977 29.9729C23.1671 30.0126 23.2183 30.0779 23.2402 30.1546C23.2621 30.2314 23.2531 30.3137 23.215 30.3839C23.176 30.4535 23.1116 30.5054 23.0353 30.5288C22.9589 30.5523 22.8764 30.5455 22.8049 30.5099C21.8784 30.0269 20.9188 30.1279 19.5963 30.8489C18.2556 31.7281 17.1295 32.8957 16.3008 34.2659C15.472 35.6361 14.9618 37.1742 14.8074 38.7669C14.8033 38.8184 14.7862 38.868 14.7578 38.9111C14.7294 38.9543 14.6906 38.9896 14.645 39.0139C14.6006 39.0356 14.552 39.0472 14.5026 39.0479L14.5116 39.0509Z" fill="#33475B"/>
<path id="Path 2257" fill-rule="evenodd" clip-rule="evenodd" d="M21.5006 23.2609C20.6712 22.6972 19.7788 22.2317 18.8414 21.8739C15.9707 21.5169 12.8423 27.7169 15.2718 29.1739L17.3875 30.3899C14.7213 28.7109 18.7171 21.8159 21.4986 23.2729L21.5006 23.2609Z" fill="#B4BBE8"/>
<path id="Path 2258" fill-rule="evenodd" clip-rule="evenodd" d="M18.5938 22.166C17.1449 22.166 15.6218 23.989 14.9991 25.784C14.4807 27.265 14.6411 28.436 15.4252 28.91L16.3277 29.422C16.094 28.0579 16.3863 26.6561 17.1459 25.498C17.7784 24.2538 18.8633 23.2974 20.179 22.824C19.755 22.5455 19.294 22.3277 18.8093 22.177C18.7428 22.169 18.6758 22.1654 18.6088 22.166H18.5938ZM17.3835 30.706C17.3287 30.7063 17.2749 30.6915 17.2281 30.663L15.1124 29.447C14.0576 28.809 13.8009 27.37 14.4205 25.593C15.1686 23.431 17.0386 21.348 18.8755 21.572C19.6874 21.8264 20.4539 22.207 21.1466 22.7C21.3472 22.819 21.5166 22.925 21.656 23.008C21.7212 23.05 21.768 23.1151 21.787 23.1901C21.806 23.2651 21.7958 23.3446 21.7584 23.4124C21.721 23.4803 21.6593 23.5314 21.5856 23.5557C21.5119 23.5799 21.4317 23.5754 21.3612 23.543C20.158 22.914 18.5897 24.217 17.6683 25.806C16.7468 27.395 16.3999 29.406 17.5469 30.13C17.6154 30.1725 17.6643 30.2403 17.6831 30.3185C17.7018 30.3967 17.6889 30.4792 17.6472 30.548C17.6205 30.5926 17.5826 30.6295 17.5372 30.6551C17.4919 30.6807 17.4406 30.6941 17.3885 30.694L17.3835 30.706ZM19.441 30.906C19.3865 30.9048 19.333 30.89 19.2856 30.863L17.1739 29.647C17.1304 29.6211 17.0937 29.5852 17.067 29.5422C17.0403 29.4992 17.0243 29.4504 17.0205 29.4C17.0183 29.3462 17.0304 29.2928 17.0555 29.2451C17.0806 29.1974 17.1178 29.1572 17.1635 29.1285C17.2092 29.0998 17.2616 29.0836 17.3156 29.0816C17.3695 29.0796 17.423 29.0918 17.4707 29.117L19.5844 30.333C19.6285 30.3582 19.6658 30.3936 19.6932 30.4363C19.7206 30.4789 19.7373 30.5275 19.7418 30.578C19.7428 30.63 19.7305 30.6814 19.7061 30.7274C19.6817 30.7734 19.6461 30.8125 19.6025 30.841C19.5547 30.8743 19.4983 30.8931 19.44 30.895L19.441 30.906Z" fill="#33475B"/>
<path id="Path 2259" fill-rule="evenodd" clip-rule="evenodd" d="M22.9472 30.239C22.3835 29.9829 21.7618 29.8802 21.1455 29.9414C20.5291 30.0025 19.9399 30.2252 19.4378 30.587C17.976 31.5004 16.7712 32.7695 15.9363 34.275C15.123 35.6366 14.6319 37.1654 14.5005 38.745L24.3821 33.0499C24.3972 32.4992 24.2738 31.9534 24.0232 31.4624C23.7726 30.9714 23.4026 30.5508 22.9472 30.239Z" fill="#B4BBE8"/>
<path id="Path 2260" fill-rule="evenodd" clip-rule="evenodd" d="M21.6577 30.2159C20.9259 30.2459 20.2145 30.4651 19.5932 30.8519C18.1772 31.7346 17.0131 32.9662 16.2131 34.4279C15.5286 35.5821 15.0734 36.857 14.8725 38.1829L24.0712 32.8879C24.0666 32.4178 23.9484 31.9557 23.7268 31.5407C23.5051 31.1257 23.1865 30.7701 22.7978 30.5039C22.4536 30.312 22.0651 30.2128 21.6708 30.2159H21.6577ZM14.5035 39.0499C14.4461 39.051 14.3897 39.0354 14.3411 39.0049C14.2941 38.9756 14.2557 38.9342 14.23 38.8852C14.2043 38.8362 14.1921 38.7812 14.1947 38.7259C14.3313 37.0985 14.8367 35.5232 15.6727 34.1189C16.5344 32.5699 17.7765 31.2645 19.2824 30.3249C19.8284 29.9331 20.4696 29.6939 21.1396 29.6322C21.8095 29.5705 22.4838 29.6884 23.0926 29.9739C23.5934 30.3106 24.0016 30.7673 24.2796 31.3021C24.5576 31.8369 24.6966 32.4327 24.6839 33.0349C24.6874 33.0915 24.6751 33.1478 24.6483 33.1978C24.6216 33.2478 24.5815 33.2894 24.5325 33.3179L14.6559 39.0079C14.6099 39.0344 14.5576 39.0482 14.5045 39.0479L14.5035 39.0499Z" fill="#33475B"/>
<path id="Path 2261" fill-rule="evenodd" clip-rule="evenodd" d="M19.4407 30.185C20.2989 29.6484 21.0062 28.9031 21.4962 28.019C22.0219 27.1526 22.3161 26.1662 22.3505 25.154C22.3877 24.7929 22.3282 24.4283 22.1781 24.0975C22.0281 23.7668 21.7928 23.4816 21.4962 23.271C21.1658 23.1185 20.8003 23.0572 20.4381 23.0936C20.0758 23.13 19.7299 23.2628 19.4367 23.478C18.59 24.0307 17.8856 24.7744 17.3804 25.6489C16.8753 26.5235 16.5836 27.5042 16.5289 28.512C16.4907 28.8724 16.5497 29.2364 16.6999 29.5664C16.8501 29.8964 17.086 30.1804 17.3832 30.389C17.7135 30.5397 18.0781 30.6003 18.4396 30.5644C18.8011 30.5286 19.1466 30.3977 19.4407 30.185Z" fill="white"/>
<path id="Path 2262" fill-rule="evenodd" clip-rule="evenodd" d="M20.7445 23.385C20.3381 23.4045 19.9436 23.5285 19.5995 23.745C18.7978 24.2698 18.1304 24.9744 17.6507 25.8025C17.171 26.6306 16.8923 27.5592 16.837 28.514C16.8013 28.8208 16.8473 29.1317 16.9706 29.4151C17.0938 29.6985 17.2899 29.9444 17.5389 30.128C17.8224 30.2536 18.1344 30.3013 18.4426 30.2662C18.7508 30.231 19.0439 30.1142 19.2916 29.928C20.0932 29.4035 20.7603 28.6988 21.2393 27.8706C21.7184 27.0423 21.9961 26.1136 22.0501 25.159C22.0854 24.8519 22.0391 24.541 21.9159 24.2573C21.7927 23.9737 21.5969 23.7274 21.3482 23.543C21.165 23.4389 20.9573 23.3854 20.7465 23.388L20.7445 23.385ZM18.1375 30.885C17.8209 30.8869 17.5094 30.8048 17.2351 30.647C16.89 30.4132 16.6146 30.0907 16.4381 29.7137C16.2616 29.3366 16.1905 28.919 16.2324 28.505C16.285 27.443 16.5899 26.4086 17.122 25.4871C17.654 24.5657 18.398 23.7835 19.2926 23.205C19.6328 22.963 20.032 22.8167 20.4483 22.7815C20.8647 22.7463 21.2829 22.8235 21.659 23.005C22.0043 23.2391 22.2798 23.562 22.4563 23.9394C22.6328 24.3168 22.7038 24.7347 22.6617 25.149C22.6041 26.2102 22.2961 27.2429 21.7628 28.163C21.2295 29.0831 20.4858 29.8647 19.5924 30.444C19.1557 30.7178 18.6541 30.8716 18.1385 30.89L18.1375 30.885Z" fill="#33475B"/>
<path id="Path 2263" fill-rule="evenodd" clip-rule="evenodd" d="M37.2527 20.334C37.7552 19.9753 38.3432 19.7541 38.958 19.6925C39.5729 19.6309 40.1932 19.7311 40.7572 19.983C39.8281 19.3163 38.7989 18.8005 37.708 18.455C36.8042 18.4005 35.906 18.6292 35.1391 19.109C33.7517 20.0096 32.5866 21.2114 31.7307 22.6244C30.8748 24.0375 30.3504 25.6253 30.1968 27.269L32.3125 28.487C32.4664 26.8446 32.9908 25.2581 33.8463 23.8462C34.7018 22.4344 35.8663 21.2337 37.2527 20.334Z" fill="#F2547D"/>
<path id="Path 2264" fill-rule="evenodd" clip-rule="evenodd" d="M30.5186 27.106L32.0507 27.989C32.2682 26.3846 32.8314 24.8462 33.7015 23.4794C34.5715 22.1126 35.728 20.9499 37.0913 20.071H37.1043C37.7246 19.7002 38.4153 19.4619 39.1328 19.371C38.6864 19.0862 38.1927 18.883 37.6748 18.771C36.8348 18.7231 36.0008 18.9392 35.2904 19.389C33.9754 20.2467 32.8661 21.3828 32.0413 22.7166C31.2166 24.0504 30.6967 25.5491 30.5186 27.106ZM32.3235 28.796C32.2693 28.7961 32.2162 28.7812 32.17 28.753L30.0574 27.537C30.0067 27.5088 29.9652 27.4667 29.938 27.4156C29.9108 27.3645 29.899 27.3066 29.904 27.249C30.0563 25.5556 30.5934 23.919 31.4746 22.4636C32.3558 21.0081 33.5579 19.772 34.9896 18.849C35.8142 18.3285 36.7835 18.0834 37.7571 18.149C38.6733 18.3833 39.5373 18.7874 40.3039 19.34C40.5295 19.475 40.7321 19.605 40.9216 19.715C40.9924 19.754 41.0449 19.8194 41.0674 19.897C41.0898 19.9745 41.0805 20.0578 41.0414 20.1285C41.0023 20.1992 40.9367 20.2515 40.8589 20.2739C40.7811 20.2963 40.6976 20.287 40.6268 20.248C39.7003 19.767 38.7447 19.868 37.4182 20.587C36.0778 21.4678 34.9521 22.6366 34.1236 24.0078C33.2952 25.3789 32.7849 26.9176 32.6303 28.511C32.6253 28.5625 32.608 28.612 32.5797 28.6553C32.5514 28.6987 32.513 28.7346 32.4678 28.76C32.4196 28.7838 32.3662 28.7955 32.3124 28.794L32.3235 28.796Z" fill="#33475B"/>
<path id="Path 2265" fill-rule="evenodd" clip-rule="evenodd" d="M37.2566 20.33L35.138 19.116L37.2536 20.332L37.2566 20.33ZM39.3122 13.017C38.4805 12.4482 37.585 11.9784 36.644 11.617C33.7713 11.26 30.6479 17.46 33.0724 18.917L35.1881 20.133C32.5309 18.442 36.5287 11.563 39.3122 13.017Z" fill="#F9AABE"/>
<path id="Path 2266" fill-rule="evenodd" clip-rule="evenodd" d="M36.4022 11.911C34.9554 11.911 33.4323 13.734 32.7925 15.529C32.2762 17.012 32.4346 18.179 33.2207 18.653L34.1231 19.168C33.9657 17.8018 34.2553 16.4215 34.9486 15.2329C35.6419 14.0442 36.7019 13.1109 37.9705 12.572C37.5477 12.2909 37.0864 12.0723 36.6008 11.923C36.5342 11.915 36.4673 11.9113 36.4002 11.912L36.4022 11.911ZM35.192 20.451C35.1384 20.4497 35.0859 20.436 35.0386 20.411L32.9249 19.183C31.8681 18.545 31.6114 17.106 32.229 15.331C32.977 13.176 34.8521 11.092 36.686 11.317C37.4966 11.5712 38.2622 11.9505 38.9551 12.441L39.4645 12.749C39.4994 12.7681 39.5303 12.7939 39.5551 12.825C39.58 12.8561 39.5984 12.8918 39.6094 12.93C39.6203 12.9683 39.6235 13.0083 39.6187 13.0478C39.614 13.0873 39.6014 13.1254 39.5818 13.16C39.5421 13.2293 39.4772 13.2809 39.4005 13.3039C39.3239 13.327 39.2412 13.3199 39.1697 13.284C37.9735 12.657 36.4022 13.958 35.4768 15.545C34.5513 17.132 34.2124 19.145 35.3574 19.871C35.3917 19.8915 35.4215 19.9186 35.4451 19.9507C35.4687 19.9828 35.4857 20.0193 35.495 20.058C35.5043 20.0968 35.5058 20.137 35.4994 20.1763C35.493 20.2156 35.4789 20.2532 35.4577 20.287C35.4304 20.3319 35.392 20.369 35.3462 20.3949C35.3003 20.4208 35.2487 20.4346 35.196 20.435L35.192 20.451ZM37.2515 20.651C37.1979 20.6503 37.1452 20.6365 37.0981 20.611L34.9824 19.391C34.9368 19.3617 34.8996 19.321 34.8746 19.2729C34.8496 19.2249 34.8377 19.1711 34.84 19.117C34.8413 19.0619 34.8578 19.0081 34.8877 18.9618C34.9176 18.9154 34.9597 18.8781 35.0095 18.854C35.0548 18.8308 35.105 18.8186 35.1559 18.8186C35.2068 18.8186 35.257 18.8308 35.3023 18.854L37.418 20.07C37.4626 20.0968 37.5 20.1342 37.5268 20.1789C37.5535 20.2235 37.5688 20.2741 37.5714 20.326C37.5729 20.378 37.5613 20.4294 37.5376 20.4757C37.514 20.5221 37.4791 20.5617 37.436 20.591C37.3809 20.6256 37.3166 20.6427 37.2515 20.64V20.651Z" fill="#33475B"/>
<path id="Path 2267" fill-rule="evenodd" clip-rule="evenodd" d="M40.7547 19.984C40.1916 19.7284 39.5706 19.6262 38.955 19.6879C38.3394 19.7495 37.7512 19.9728 37.2503 20.335C35.7877 21.2458 34.583 22.5147 33.7509 24.021C32.9351 25.3825 32.4426 26.9123 32.311 28.493L42.1946 22.8C42.21 22.2479 42.0863 21.7008 41.8347 21.2089C41.5832 20.7169 41.2118 20.2957 40.7547 19.984Z" fill="#F9AABE"/>
<path id="Path 2268" fill-rule="evenodd" clip-rule="evenodd" d="M39.4668 19.961C38.7361 19.9902 38.026 20.2102 37.4073 20.599C35.9894 21.478 34.8247 22.7092 34.0272 24.172C33.3399 25.3259 32.8811 26.6006 32.6755 27.927L41.8743 22.627C41.8697 22.1583 41.7519 21.6977 41.531 21.2841C41.31 20.8705 40.9923 20.5161 40.6049 20.251C40.2611 20.0575 39.8725 19.9575 39.4778 19.961H39.4668ZM32.3126 28.796C32.2554 28.7957 32.1993 28.7802 32.1501 28.751C32.1029 28.722 32.0647 28.6807 32.0396 28.6315C32.0144 28.5822 32.0034 28.527 32.0078 28.472C32.1433 26.8461 32.6499 25.2726 33.4887 23.872C34.3496 22.3207 35.5917 21.0131 37.0984 20.072C37.6445 19.6797 38.286 19.4407 38.9562 19.3798C39.6263 19.319 40.3006 19.4385 40.9087 19.726C41.4104 20.0613 41.8193 20.5174 42.0974 21.0521C42.3756 21.5868 42.514 22.1828 42.5 22.785C42.5042 22.8416 42.4922 22.8982 42.4654 22.9483C42.4386 22.9984 42.3981 23.0399 42.3485 23.068L32.469 28.756C32.4215 28.7833 32.3674 28.7971 32.3126 28.796Z" fill="#33475B"/>
<path id="Path 2269" fill-rule="evenodd" clip-rule="evenodd" d="M37.2518 19.93C38.1111 19.3954 38.8199 18.6513 39.3113 17.768C39.8363 16.9003 40.1297 15.9129 40.1636 14.9C40.2357 14.537 40.192 14.1606 40.0387 13.8236C39.8854 13.4867 39.6301 13.206 39.3087 13.021C38.9874 12.8361 38.616 12.7561 38.2467 12.7923C37.8775 12.8285 37.5288 12.9792 37.2498 13.223C36.4016 13.7747 35.6958 14.518 35.1895 15.3927C34.6833 16.2673 34.3908 17.2486 34.3359 18.257C34.2634 18.6203 34.307 18.9972 34.4605 19.3345C34.6141 19.6718 34.8699 19.9525 35.1919 20.1371C35.5139 20.3218 35.8859 20.401 36.2554 20.3637C36.625 20.3263 36.9734 20.1753 37.2518 19.93Z" fill="white"/>
<path id="Path 2270" fill-rule="evenodd" clip-rule="evenodd" d="M38.5523 13.127C38.146 13.1448 37.7513 13.2678 37.4072 13.484C36.6057 14.0089 35.9384 14.7136 35.4587 15.5417C34.9791 16.3697 34.7003 17.2983 34.6448 18.253C34.5729 18.5614 34.6024 18.8846 34.7289 19.175C34.8553 19.4654 35.0721 19.7075 35.3471 19.8656C35.6221 20.0238 35.9408 20.0896 36.2561 20.0533C36.5715 20.0169 36.8667 19.8805 37.0984 19.664H37.1144C37.9115 19.1383 38.5746 18.4342 39.0507 17.6078C39.5268 16.7814 39.8028 15.8556 39.8568 14.904C39.8922 14.5972 39.8459 14.2865 39.7227 14.0032C39.5995 13.7199 39.4037 13.4739 39.1549 13.29C38.9717 13.1861 38.764 13.1326 38.5533 13.135L38.5523 13.127ZM35.9523 20.635C35.6325 20.6383 35.3177 20.5569 35.0398 20.399C34.6967 20.1623 34.4229 19.8387 34.2467 19.4616C34.0705 19.0844 33.9981 18.6673 34.0371 18.253C34.0958 17.1921 34.4035 16.1599 34.9354 15.2393C35.4673 14.3187 36.2085 13.5356 37.0994 12.953C37.4257 12.6822 37.8273 12.5178 38.2502 12.4818C38.6732 12.4457 39.097 12.5399 39.4646 12.7515C39.8322 12.9632 40.1259 13.2821 40.3061 13.6654C40.4863 14.0486 40.5444 14.4778 40.4724 14.895C40.415 15.9569 40.1071 16.9904 39.5738 17.9113C39.0405 18.8322 38.2968 19.6147 37.4032 20.195C36.966 20.4646 36.466 20.6162 35.9523 20.635Z" fill="#33475B"/>
</g>
</g>
</g>
</svg>
