<svg xmlns="http://www.w3.org/2000/svg" width="131.412" height="202.597" viewBox="0 0 131.412 202.597">
  <g id="Group_851" data-name="Group 851" transform="translate(-1286.088 -219.901)">
    <g id="Group_813" data-name="Group 813" transform="translate(1286.088 281.869)">
      <path id="Path_2042" data-name="Path 2042" d="M63.273,76.921,4.061,115.49a3.446,3.446,0,0,0,.1,5.853l63.915,37.889a6.942,6.942,0,0,0,7.369-.157L132.362,121.5a3.4,3.4,0,0,0-.1-5.749l-64.8-38.882A3.9,3.9,0,0,0,63.273,76.921Z" transform="translate(-2.486 -19.585)" fill="#b0e6e9"/>
      <g id="datacenter-1354526" transform="translate(27.892 0)">
        <path id="Path_2129" data-name="Path 2129" d="M74.975,47.035l-.031,11.012L34.069,81.8,34.1,70.788Z" transform="translate(7.731 36.156)" fill="#98acc3"/>
        <path id="Path_2130" data-name="Path 2130" d="M52.8,70.792,52.773,81.8,11.614,58.04l.031-11.01Z" transform="translate(-10.973 36.152)" fill="#98acc3"/>
        <path id="Path_2131" data-name="Path 2131" d="M93.664,57.833,52.79,81.586,11.631,57.824,52.505,34.071Z" transform="translate(-10.959 25.358)" fill="#7b97b7"/>
        <path id="Path_2132" data-name="Path 2132" d="M63.889,11.4l-.277,64.38L33.981,93l.279-64.38Z" transform="translate(7.657 6.475)" fill="#eaf0f6"/>
        <path id="Path_2133" data-name="Path 2133" d="M36.727,28.207l20.457-11.89-.231,7.592L36.5,35.8Z" transform="translate(9.752 10.57)" fill="#eaf0f6"/>
        <path id="Path_2134" data-name="Path 2134" d="M36.727,36.225,57.184,24.337l-.231,7.59L36.5,43.816Z" transform="translate(9.752 17.25)" fill="#eaf0f6"/>
        <path id="Path_2135" data-name="Path 2135" d="M36.727,44.244,57.184,32.356l-.231,7.59L36.5,51.835Z" transform="translate(9.752 23.93)" fill="#eaf0f6"/>
        <path id="Path_2136" data-name="Path 2136" d="M36.727,52.263,57.184,40.375l-.231,7.592L36.5,59.855Z" transform="translate(9.752 30.609)" fill="#eaf0f6"/>
        <path id="Path_2137" data-name="Path 2137" d="M47.819,28.624,47.54,93,17.7,75.776l.277-64.38Z" transform="translate(-5.902 6.471)" fill="#cbd6e3"/>
        <path id="Path_2138" data-name="Path 2138" d="M20.2,69.55l.233-53.841,20.71,11.958-.231,53.841Z" transform="translate(-3.818 10.064)" fill="#98acc3"/>
        <path id="Path_2139" data-name="Path 2139" d="M77.328,19.237,47.7,36.459,17.849,19.218,47.478,2Z" transform="translate(-5.779 -1.357)" fill="#c1ccd6"/>
        <path id="Path_2140" data-name="Path 2140" d="M59.871,16.088,42.224,26.347,24.4,16.055,42.035,5.8Z" transform="translate(-0.32 1.807)" fill="#eaf0f6"/>
        <path id="Path_2141" data-name="Path 2141" d="M94.611,84.838a.622.622,0,0,0-.045-.168.648.648,0,0,0-.041-.152.641.641,0,0,0-.235-.235L83.2,77.882l.251-58.347s0,0,0-.007a.655.655,0,0,0-.322-.559s-.008,0-.011,0L53.285,1.734a.644.644,0,0,0-.643,0L23.013,18.956a.643.643,0,0,0-.32.556c0,.008.006.015.006.023l-.252,58.445-10.832,6.3c-.041.024-.064.067-.1.1a.644.644,0,0,0-.135.136.654.654,0,0,0-.038.141.624.624,0,0,0-.048.178L11.264,95.84a.641.641,0,0,0,.321.558L52.743,120.16a.64.64,0,0,0,.641,0h0L94.26,96.406a.643.643,0,0,0,.32-.553l.031-11.012h0ZM52.267,100.015,23.707,83.526l.27-62.9,28.56,16.494-.063,14.725Zm1.555-62.894L82.165,20.647l-.271,62.886L53.55,100.006ZM52.965,3.03l28.563,16.5L53.18,36,24.615,19.509Zm-.54,115.464L12.548,95.472l.027-9.532,32.355,18.68,7.522,4.343Zm.669-10.643L13.217,84.828l9.224-5.361-.019,4.426a.643.643,0,0,0,.321.558l29.838,17.226h0a.643.643,0,0,0,.641,0h0l29.63-17.22a.642.642,0,0,0,.32-.552l.02-4.547,9.494,5.481ZM93.3,95.482,53.709,118.487l.021-7.3.006-2.222L93.325,85.956Z" transform="translate(-11.264 -1.648)" fill="#33475c"/>
        <path id="Path_2142" data-name="Path 2142" d="M70.724,16.561,50.267,28.45a.642.642,0,0,0-.319.535l-.232,7.591a.641.641,0,0,0,.963.575L71.138,25.263a.642.642,0,0,0,.319-.535l.231-7.592a.641.641,0,0,0-.963-.575Zm-.539,7.771L51.035,35.461l.185-6.081L70.37,18.25Zm.539,6.928L50.267,43.148a.642.642,0,0,0-.319.535l-.232,7.591a.641.641,0,0,0,.963.575L71.138,39.961a.642.642,0,0,0,.319-.535l.231-7.591a.641.641,0,0,0-.963-.575Zm-.539,7.77L51.035,50.159l.185-6.081L70.37,32.95Zm.539,6.928L50.267,57.846a.642.642,0,0,0-.319.535l-.232,7.591a.641.641,0,0,0,.963.575L71.138,54.659a.642.642,0,0,0,.319-.535l.231-7.591a.641.641,0,0,0-.963-.575Zm-.539,7.77L51.035,64.858l.185-6.081L70.37,47.648Zm.539,6.928L50.267,72.545a.642.642,0,0,0-.319.535l-.232,7.592a.641.641,0,0,0,.963.575L71.138,69.358a.642.642,0,0,0,.319-.535l.231-7.591a.641.641,0,0,0-.963-.575Zm-.539,7.77L51.034,79.557l.185-6.081L70.37,62.346ZM41.759,27.4,21.048,15.445a.641.641,0,0,0-.962.553l-.232,53.84a.643.643,0,0,0,.321.558L40.887,82.355a.637.637,0,0,0,.32.086.641.641,0,0,0,.642-.639l.231-53.841A.642.642,0,0,0,41.759,27.4ZM40.57,80.69,21.139,69.47l.225-52.362,19.431,11.22Z" transform="translate(-4.109 9.772)" fill="#33475c"/>
        <path id="Path_2143" data-name="Path 2143" d="M22.13,38.641,35.907,46.6a.642.642,0,1,0,.641-1.112L22.771,37.53a.642.642,0,0,0-.641,1.112Zm0,10.062,13.777,7.955a.642.642,0,1,0,.641-1.112L22.771,47.592A.642.642,0,0,0,22.13,48.7Zm0,10.061L35.907,66.72a.642.642,0,1,0,.641-1.112L22.771,57.653a.642.642,0,0,0-.641,1.112Zm0,10.062,13.777,7.956a.642.642,0,1,0,.641-1.112L22.771,67.716a.642.642,0,1,0-.641,1.112ZM26.244,16.9,44.063,27.194a.643.643,0,0,0,.643,0L62.354,16.935a.641.641,0,0,0,0-1.111L44.516,5.531a.648.648,0,0,0-.643,0L26.243,15.79a.642.642,0,0,0,0,1.111ZM44.2,6.828l16.555,9.554L44.384,25.9,27.844,16.343Z" transform="translate(-2.481 1.516)" fill="#33475c"/>
        <g id="Group_823" data-name="Group 823" transform="translate(48.928 31.44)">
          <path id="Path_2144" data-name="Path 2144" d="M40.135,23.712a2.429,2.429,0,0,1-1.079,1.877c-.6.34-1.1.06-1.1-.619a2.434,2.434,0,0,1,1.079-1.9C39.656,22.733,40.135,23.013,40.135,23.712Z" transform="translate(-37.958 -15.363)" fill="#f77b9d"/>
          <path id="Path_2145" data-name="Path 2145" d="M51.646,20.3,39.961,27.029l-.02-1.477L51.626,18.8Z" transform="translate(-36.306 -18.801)" fill="#f77b9d"/>
        </g>
        <g id="Group_824" data-name="Group 824" transform="translate(48.928 46.14)">
          <path id="Path_2146" data-name="Path 2146" d="M51.646,28.319,39.961,35.051l-.02-1.479,11.685-6.751Z" transform="translate(-36.306 -26.821)" fill="#ba753c"/>
          <path id="Path_2147" data-name="Path 2147" d="M40.135,31.732a2.429,2.429,0,0,1-1.079,1.877c-.6.34-1.1.06-1.1-.619a2.4,2.4,0,0,1,1.079-1.9C39.656,30.753,40.135,31.033,40.135,31.732Z" transform="translate(-37.958 -23.383)" fill="#ba753c"/>
        </g>
        <g id="Group_825" data-name="Group 825" transform="translate(48.928 60.84)">
          <path id="Path_2148" data-name="Path 2148" d="M40.135,39.752a2.429,2.429,0,0,1-1.079,1.877c-.6.34-1.1.06-1.1-.619a2.4,2.4,0,0,1,1.079-1.9C39.656,38.773,40.135,39.053,40.135,39.752Z" transform="translate(-37.958 -31.403)" fill="#98acc3"/>
          <path id="Path_2149" data-name="Path 2149" d="M51.646,36.339,39.961,43.071l-.02-1.479,11.685-6.751Z" transform="translate(-36.306 -34.841)" fill="#98acc3"/>
        </g>
        <g id="Group_826" data-name="Group 826" transform="translate(48.928 75.541)">
          <path id="Path_2150" data-name="Path 2150" d="M40.135,47.776a2.429,2.429,0,0,1-1.079,1.877c-.6.34-1.1.06-1.1-.619a2.4,2.4,0,0,1,1.079-1.9C39.656,46.777,40.135,47.077,40.135,47.776Z" transform="translate(-37.958 -39.427)" fill="#40cebb"/>
          <path id="Path_2151" data-name="Path 2151" d="M51.646,44.338,39.961,51.091l-.02-1.479,11.685-6.751Z" transform="translate(-36.306 -42.861)" fill="#40cebb"/>
        </g>
      </g>
    </g>
    <g id="Group_808" data-name="Group 808" transform="translate(1384.406 238.745)">
      <path id="Path_2103" data-name="Path 2103" d="M1436.247,140.853l3.043,1.756a.429.429,0,0,1-.123-.428l1.445-8.244a.864.864,0,0,0-.279-.935l-3.045-1.754-.047-.028c.369.22.379.569.32.96l-1.441,8.243C1436.106,140.582,1436.1,140.753,1436.247,140.853Z" transform="translate(-1431.964 -112.935)" fill="#f6c364" fill-rule="evenodd"/>
      <path id="Path_2104" data-name="Path 2104" d="M1435.19,139.53l2.627,1.515v-.054l1.445-8.25c.059-.392,0-.615-.194-.741l-2.455-1.416a1.918,1.918,0,0,1-.021.464l-1.441,8.247c-.025.162,0,.212.033.237Zm2.943,2.107a.2.2,0,0,1-.1-.028L1435,139.855l-.017-.01a.6.6,0,0,1-.2-.612l1.441-8.248c.063-.418,0-.624-.231-.765a.189.189,0,0,1-.07-.255.2.2,0,0,1,.256-.075l.049.028,3.05,1.759a1.061,1.061,0,0,1,.365,1.126l-1.446,8.248c-.021.169,0,.216.042.24a.188.188,0,0,1,.056.258A.2.2,0,0,1,1438.133,141.637Z" transform="translate(-1430.808 -111.772)" fill="#33475c" fill-rule="evenodd"/>
      <path id="Path_2105" data-name="Path 2105" d="M1509.22,24.106l3.045,1.757a.7.7,0,0,0,.6-.038l6.549-3.066a.31.31,0,0,1,.305,0L1516.673,21a.311.311,0,0,0-.3.007l-6.549,3.066a.7.7,0,0,1-.6.038Z" transform="translate(-1494.884 -18.04)" fill="#fae0b5" fill-rule="evenodd"/>
      <path id="Path_2106" data-name="Path 2106" d="M1508.659,23.075l2.494,1.446a.509.509,0,0,0,.439-.047l6.384-2.989-2.595-1.506c-.027-.014-.045-.024-.14.015L1508.7,23.06a.156.156,0,0,0-.044.018Zm2.647,1.851a.8.8,0,0,1-.326-.072l-3.066-1.767a.191.191,0,0,1,.177-.337.494.494,0,0,0,.45-.036l6.549-3.066a.5.5,0,0,1,.476,0l3.045,1.759a.191.191,0,1,1-.194.329c-.021-.014-.036-.024-.132.015l-6.537,3.064a1.114,1.114,0,0,1-.442.111Z" transform="translate(-1493.681 -16.857)" fill="#33475c" fill-rule="evenodd"/>
      <path id="Path_2107" data-name="Path 2107" d="M1414.651,11.686l-6.55,4.488a.951.951,0,0,0-.321.383c-.1.2-.2.543.016.707l3.046,1.756c-.227-.17-.109-.543,0-.747a1,1,0,0,1,.3-.343l6.55-4.488a2.272,2.272,0,0,0,.836-1.194l2.611-8.481c.091-.252.433-.8.775-.615L1418.878,1.4c-.337-.18-.686.354-.771.613l-2.611,8.482a2.308,2.308,0,0,1-.844,1.194Z" transform="translate(-1407.484 -1.17)" fill="#fae0b5" fill-rule="evenodd"/>
      <path id="Path_2108" data-name="Path 2108" d="M1413.507,10.516ZM1417.594.38a.152.152,0,0,0-.059.013.932.932,0,0,0-.39.507l-2.618,8.478a2.459,2.459,0,0,1-.91,1.293h0l-6.549,4.488a.836.836,0,0,0-.26.315c-.081.173-.13.4-.038.468l2.621,1.509a1.312,1.312,0,0,1,.139-.439,1.179,1.179,0,0,1,.358-.407l6.549-4.491a2.049,2.049,0,0,0,.765-1.1l2.618-8.478a1.547,1.547,0,0,1,.432-.638L1417.641.39a.106.106,0,0,0-.047-.01Zm-7.9,17.66a.179.179,0,0,1-.1-.025l-3.045-1.757c-.256-.194-.279-.543-.091-.95a1.2,1.2,0,0,1,.379-.456l6.549-4.491a2.078,2.078,0,0,0,.775-1.1l2.612-8.478a1.32,1.32,0,0,1,.616-.743.5.5,0,0,1,.428.015l3.052,1.756a.191.191,0,0,1-.187.333.108.108,0,0,0-.1,0,.962.962,0,0,0-.4.514l-2.6,8.475a2.462,2.462,0,0,1-.916,1.29l-6.549,4.493a.751.751,0,0,0-.247.279c-.1.185-.151.429-.054.5a.188.188,0,0,1-.11.34Z" transform="translate(-1406.34 -0.001)" fill="#33475c" fill-rule="evenodd"/>
      <path id="Path_2109" data-name="Path 2109" d="M1436.449,24.287l-6.549,4.488c-.418.279-.584.989-.268,1.115l4.933,2.175c.286.125.4.479.322.959l-1.444,8.238c-.085.518.343.635.707.183l5.662-7.135a1.275,1.275,0,0,1,1.037-.6l5.666.6c.358.039.792-.577.7-.994l-1.435-6.587a1.888,1.888,0,0,1,.326-1.328l4.934-7.869c.315-.5.139-.994-.268-.8l-6.549,3.066a.578.578,0,0,1-.847-.219l-2.593-5.475c-.166-.344-.707-.033-.868.5l-2.615,8.482A2.3,2.3,0,0,1,1436.449,24.287Z" transform="translate(-1426.244 -12.016)" fill="#fce9c6" fill-rule="evenodd"/>
      <path id="Path_2110" data-name="Path 2110" d="M1435.443,23.34l-6.538,4.487a.836.836,0,0,0-.347.688c0,.021.01.074.036.085l4.944,2.178c.369.164.53.6.435,1.165l-1.447,8.243c-.026.15.011.226.038.238s.177-.008.331-.2l5.662-7.136a1.456,1.456,0,0,1,1.209-.67l5.66.6a.409.409,0,0,0,.279-.164.787.787,0,0,0,.22-.6l-1.434-6.586a2.026,2.026,0,0,1,.347-1.47l4.933-7.868c.171-.269.15-.484.1-.539-.025-.031-.095,0-.123.013l-6.549,3.066a.767.767,0,0,1-1.1-.305l-2.606-5.475c-.022-.036-.032-.039-.06-.036a.7.7,0,0,0-.454.511l-2.609,8.481a2.449,2.449,0,0,1-.927,1.3ZM1432.6,40.808a.48.48,0,0,1-.187-.038.553.553,0,0,1-.256-.649l1.445-8.244c.063-.383-.011-.663-.215-.752l-4.934-2.174a.451.451,0,0,1-.267-.392,1.213,1.213,0,0,1,.509-1.048l6.549-4.488h.016a2.149,2.149,0,0,0,.754-1.087l2.619-8.481a1.047,1.047,0,0,1,.791-.779.418.418,0,0,1,.428.254l2.606,5.469c.038.077.165.327.594.13l6.549-3.066a.468.468,0,0,1,.573.079.866.866,0,0,1-.064.994l-4.948,7.861a1.7,1.7,0,0,0-.3,1.189l1.434,6.584a1.161,1.161,0,0,1-.3.935.731.731,0,0,1-.6.288l-5.651-.608a1.136,1.136,0,0,0-.874.53l-5.666,7.135a.8.8,0,0,1-.594.358Z" transform="translate(-1425.136 -10.908)" fill="#33475c" fill-rule="evenodd"/>
      <path id="Path_2111" data-name="Path 2111" d="M1462.76,13.217a2.43,2.43,0,0,0,.573-.967l2.615-8.482c.081-.255.435-.793.771-.613L1463.675,1.4c-.322-.173-.665.322-.754.566l-2.628,8.53a2.456,2.456,0,0,1-.573.966Z" transform="translate(-1452.282 -1.173)" fill="#f6c364" fill-rule="evenodd"/>
      <path id="Path_2112" data-name="Path 2112" d="M1458.819,10.265l2.708,1.562a2.111,2.111,0,0,0,.428-.783l2.619-8.478a1.453,1.453,0,0,1,.432-.637L1462.388.414a.123.123,0,0,0-.1,0,.931.931,0,0,0-.39.471L1459.274,9.4a2.6,2.6,0,0,1-.454.863Zm2.745,1.993a.183.183,0,0,1-.091-.024l-3.049-1.757a.194.194,0,0,1-.042-.3,2.29,2.29,0,0,0,.528-.9L1461.54.761a1.233,1.233,0,0,1,.615-.7.5.5,0,0,1,.418.024l3.049,1.749a.191.191,0,0,1-.187.333.116.116,0,0,0-.109,0,.977.977,0,0,0-.394.509l-2.6,8.481a2.6,2.6,0,0,1-.617,1.041.187.187,0,0,1-.145.057Z" transform="translate(-1451.087 -0.025)" fill="#33475c" fill-rule="evenodd"/>
    </g>
    <g id="Group_811" data-name="Group 811" transform="translate(1294.996 263.089)">
      <path id="Path_2103-2" data-name="Path 2103" d="M1436.247,140.853l3.043,1.756a.429.429,0,0,1-.123-.428l1.445-8.244a.864.864,0,0,0-.279-.935l-3.045-1.754-.047-.028c.369.22.379.569.32.96l-1.441,8.243C1436.106,140.582,1436.1,140.753,1436.247,140.853Z" transform="translate(-1431.964 -112.935)" fill="#f6c364" fill-rule="evenodd"/>
      <path id="Path_2104-2" data-name="Path 2104" d="M1435.19,139.53l2.627,1.515v-.054l1.445-8.25c.059-.392,0-.615-.194-.741l-2.455-1.416a1.918,1.918,0,0,1-.021.464l-1.441,8.247c-.025.162,0,.212.033.237Zm2.943,2.107a.2.2,0,0,1-.1-.028L1435,139.855l-.017-.01a.6.6,0,0,1-.2-.612l1.441-8.248c.063-.418,0-.624-.231-.765a.189.189,0,0,1-.07-.255.2.2,0,0,1,.256-.075l.049.028,3.05,1.759a1.061,1.061,0,0,1,.365,1.126l-1.446,8.248c-.021.169,0,.216.042.24a.188.188,0,0,1,.056.258A.2.2,0,0,1,1438.133,141.637Z" transform="translate(-1430.808 -111.772)" fill="#33475c" fill-rule="evenodd"/>
      <path id="Path_2105-2" data-name="Path 2105" d="M1509.22,24.106l3.045,1.757a.7.7,0,0,0,.6-.038l6.549-3.066a.31.31,0,0,1,.305,0L1516.673,21a.311.311,0,0,0-.3.007l-6.549,3.066a.7.7,0,0,1-.6.038Z" transform="translate(-1494.884 -18.04)" fill="#fae0b5" fill-rule="evenodd"/>
      <path id="Path_2106-2" data-name="Path 2106" d="M1508.659,23.075l2.494,1.446a.509.509,0,0,0,.439-.047l6.384-2.989-2.595-1.506c-.027-.014-.045-.024-.14.015L1508.7,23.06a.156.156,0,0,0-.044.018Zm2.647,1.851a.8.8,0,0,1-.326-.072l-3.066-1.767a.191.191,0,0,1,.177-.337.494.494,0,0,0,.45-.036l6.549-3.066a.5.5,0,0,1,.476,0l3.045,1.759a.191.191,0,1,1-.194.329c-.021-.014-.036-.024-.132.015l-6.537,3.064a1.114,1.114,0,0,1-.442.111Z" transform="translate(-1493.681 -16.857)" fill="#33475c" fill-rule="evenodd"/>
      <path id="Path_2107-2" data-name="Path 2107" d="M1414.651,11.686l-6.55,4.488a.951.951,0,0,0-.321.383c-.1.2-.2.543.016.707l3.046,1.756c-.227-.17-.109-.543,0-.747a1,1,0,0,1,.3-.343l6.55-4.488a2.272,2.272,0,0,0,.836-1.194l2.611-8.481c.091-.252.433-.8.775-.615L1418.878,1.4c-.337-.18-.686.354-.771.613l-2.611,8.482a2.308,2.308,0,0,1-.844,1.194Z" transform="translate(-1407.484 -1.17)" fill="#fae0b5" fill-rule="evenodd"/>
      <path id="Path_2108-2" data-name="Path 2108" d="M1413.507,10.516ZM1417.594.38a.152.152,0,0,0-.059.013.932.932,0,0,0-.39.507l-2.618,8.478a2.459,2.459,0,0,1-.91,1.293h0l-6.549,4.488a.836.836,0,0,0-.26.315c-.081.173-.13.4-.038.468l2.621,1.509a1.312,1.312,0,0,1,.139-.439,1.179,1.179,0,0,1,.358-.407l6.549-4.491a2.049,2.049,0,0,0,.765-1.1l2.618-8.478a1.547,1.547,0,0,1,.432-.638L1417.641.39a.106.106,0,0,0-.047-.01Zm-7.9,17.66a.179.179,0,0,1-.1-.025l-3.045-1.757c-.256-.194-.279-.543-.091-.95a1.2,1.2,0,0,1,.379-.456l6.549-4.491a2.078,2.078,0,0,0,.775-1.1l2.612-8.478a1.32,1.32,0,0,1,.616-.743.5.5,0,0,1,.428.015l3.052,1.756a.191.191,0,0,1-.187.333.108.108,0,0,0-.1,0,.962.962,0,0,0-.4.514l-2.6,8.475a2.462,2.462,0,0,1-.916,1.29l-6.549,4.493a.751.751,0,0,0-.247.279c-.1.185-.151.429-.054.5a.188.188,0,0,1-.11.34Z" transform="translate(-1406.34 -0.001)" fill="#33475c" fill-rule="evenodd"/>
      <path id="Path_2109-2" data-name="Path 2109" d="M1436.449,24.287l-6.549,4.488c-.418.279-.584.989-.268,1.115l4.933,2.175c.286.125.4.479.322.959l-1.444,8.238c-.085.518.343.635.707.183l5.662-7.135a1.275,1.275,0,0,1,1.037-.6l5.666.6c.358.039.792-.577.7-.994l-1.435-6.587a1.888,1.888,0,0,1,.326-1.328l4.934-7.869c.315-.5.139-.994-.268-.8l-6.549,3.066a.578.578,0,0,1-.847-.219l-2.593-5.475c-.166-.344-.707-.033-.868.5l-2.615,8.482A2.3,2.3,0,0,1,1436.449,24.287Z" transform="translate(-1426.244 -12.016)" fill="#fce9c6" fill-rule="evenodd"/>
      <path id="Path_2110-2" data-name="Path 2110" d="M1435.443,23.34l-6.538,4.487a.836.836,0,0,0-.347.688c0,.021.01.074.036.085l4.944,2.178c.369.164.53.6.435,1.165l-1.447,8.243c-.026.15.011.226.038.238s.177-.008.331-.2l5.662-7.136a1.456,1.456,0,0,1,1.209-.67l5.66.6a.409.409,0,0,0,.279-.164.787.787,0,0,0,.22-.6l-1.434-6.586a2.026,2.026,0,0,1,.347-1.47l4.933-7.868c.171-.269.15-.484.1-.539-.025-.031-.095,0-.123.013l-6.549,3.066a.767.767,0,0,1-1.1-.305l-2.606-5.475c-.022-.036-.032-.039-.06-.036a.7.7,0,0,0-.454.511l-2.609,8.481a2.449,2.449,0,0,1-.927,1.3ZM1432.6,40.808a.48.48,0,0,1-.187-.038.553.553,0,0,1-.256-.649l1.445-8.244c.063-.383-.011-.663-.215-.752l-4.934-2.174a.451.451,0,0,1-.267-.392,1.213,1.213,0,0,1,.509-1.048l6.549-4.488h.016a2.149,2.149,0,0,0,.754-1.087l2.619-8.481a1.047,1.047,0,0,1,.791-.779.418.418,0,0,1,.428.254l2.606,5.469c.038.077.165.327.594.13l6.549-3.066a.468.468,0,0,1,.573.079.866.866,0,0,1-.064.994l-4.948,7.861a1.7,1.7,0,0,0-.3,1.189l1.434,6.584a1.161,1.161,0,0,1-.3.935.731.731,0,0,1-.6.288l-5.651-.608a1.136,1.136,0,0,0-.874.53l-5.666,7.135a.8.8,0,0,1-.594.358Z" transform="translate(-1425.136 -10.908)" fill="#33475c" fill-rule="evenodd"/>
      <path id="Path_2111-2" data-name="Path 2111" d="M1462.76,13.217a2.43,2.43,0,0,0,.573-.967l2.615-8.482c.081-.255.435-.793.771-.613L1463.675,1.4c-.322-.173-.665.322-.754.566l-2.628,8.53a2.456,2.456,0,0,1-.573.966Z" transform="translate(-1452.282 -1.173)" fill="#f6c364" fill-rule="evenodd"/>
      <path id="Path_2112-2" data-name="Path 2112" d="M1458.819,10.265l2.708,1.562a2.111,2.111,0,0,0,.428-.783l2.619-8.478a1.453,1.453,0,0,1,.432-.637L1462.388.414a.123.123,0,0,0-.1,0,.931.931,0,0,0-.39.471L1459.274,9.4a2.6,2.6,0,0,1-.454.863Zm2.745,1.993a.183.183,0,0,1-.091-.024l-3.049-1.757a.194.194,0,0,1-.042-.3,2.29,2.29,0,0,0,.528-.9L1461.54.761a1.233,1.233,0,0,1,.615-.7.5.5,0,0,1,.418.024l3.049,1.749a.191.191,0,0,1-.187.333.116.116,0,0,0-.109,0,.977.977,0,0,0-.394.509l-2.6,8.481a2.6,2.6,0,0,1-.617,1.041.187.187,0,0,1-.145.057Z" transform="translate(-1451.087 -0.025)" fill="#33475c" fill-rule="evenodd"/>
    </g>
    <g id="Group_812" data-name="Group 812" transform="translate(1333.948 219.901)">
      <path id="Path_2103-3" data-name="Path 2103" d="M1436.331,146.924l4.961,2.862a.7.7,0,0,1-.2-.7l2.356-13.44a1.408,1.408,0,0,0-.454-1.524l-4.964-2.86-.077-.045c.6.359.618.927.523,1.565l-2.349,13.437C1436.1,146.481,1436.087,146.761,1436.331,146.924Z" transform="translate(-1429.349 -101.411)" fill="#f6c364" fill-rule="evenodd"/>
      <path id="Path_2104-3" data-name="Path 2104" d="M1435.456,145.619l4.282,2.469V148l2.356-13.449c.1-.638,0-1-.316-1.209l-4-2.308a3.121,3.121,0,0,1-.034.756l-2.349,13.444c-.041.264,0,.345.055.386Zm4.8,3.435a.318.318,0,0,1-.157-.045l-4.955-2.86-.027-.016a.971.971,0,0,1-.323-1l2.349-13.446c.1-.682,0-1.018-.377-1.247a.309.309,0,0,1-.113-.416.318.318,0,0,1,.418-.123l.08.045,4.973,2.867a1.729,1.729,0,0,1,.595,1.836l-2.358,13.446c-.034.275,0,.352.068.391a.307.307,0,0,1,.091.42A.323.323,0,0,1,1440.253,149.054Z" transform="translate(-1428.311 -100.366)" fill="#33475c" fill-rule="evenodd"/>
      <path id="Path_2105-3" data-name="Path 2105" d="M1509.22,26.088l4.964,2.865a1.135,1.135,0,0,0,.986-.061l10.677-5a.5.5,0,0,1,.5,0l-4.975-2.876a.507.507,0,0,0-.486.011l-10.677,5a1.135,1.135,0,0,1-.986.061Z" transform="translate(-1485.849 -16.199)" fill="#fae0b5" fill-rule="evenodd"/>
      <path id="Path_2106-3" data-name="Path 2106" d="M1509.185,25.273l4.066,2.358a.829.829,0,0,0,.715-.077l10.407-4.873-4.23-2.456c-.043-.023-.073-.039-.227.025l-10.666,5a.255.255,0,0,0-.073.03Zm4.316,3.017a1.3,1.3,0,0,1-.532-.118l-5-2.881a.311.311,0,0,1,.288-.55.805.805,0,0,0,.734-.059l10.677-5a.816.816,0,0,1,.777,0l4.964,2.867a.311.311,0,1,1-.316.536c-.034-.023-.059-.039-.216.025l-10.657,5a1.817,1.817,0,0,1-.72.182Z" transform="translate(-1484.769 -15.137)" fill="#33475c" fill-rule="evenodd"/>
      <path id="Path_2107-3" data-name="Path 2107" d="M1419.051,18.193l-10.677,7.317a1.547,1.547,0,0,0-.523.625c-.159.327-.325.886.025,1.152l4.966,2.862c-.37-.277-.177-.886,0-1.218a1.624,1.624,0,0,1,.495-.559l10.677-7.317a3.7,3.7,0,0,0,1.363-1.947l4.257-13.826c.148-.411.706-1.3,1.263-1l-4.957-2.862c-.55-.293-1.118.577-1.256,1l-4.257,13.828a3.761,3.761,0,0,1-1.377,1.947Z" transform="translate(-1407.368 -1.051)" fill="#fae0b5" fill-rule="evenodd"/>
      <path id="Path_2108-3" data-name="Path 2108" d="M1418.023,17.143ZM1424.686.619a.248.248,0,0,0-.1.02,1.517,1.517,0,0,0-.636.827l-4.269,13.821A4.01,4.01,0,0,1,1418.2,17.4h0l-10.677,7.317a1.362,1.362,0,0,0-.425.513c-.132.282-.211.647-.061.763l4.273,2.46a2.143,2.143,0,0,1,.227-.716,1.927,1.927,0,0,1,.584-.663l10.677-7.322a3.338,3.338,0,0,0,1.247-1.788l4.269-13.821a2.524,2.524,0,0,1,.7-1.04L1424.763.635a.17.17,0,0,0-.077-.016Zm-12.874,28.79a.29.29,0,0,1-.159-.041L1406.69,26.5c-.418-.316-.454-.886-.148-1.549a1.958,1.958,0,0,1,.618-.743l10.677-7.322a3.391,3.391,0,0,0,1.263-1.79l4.257-13.821a2.151,2.151,0,0,1,1-1.211.822.822,0,0,1,.7.025l4.975,2.862a.311.311,0,1,1-.3.543.177.177,0,0,0-.166,0,1.567,1.567,0,0,0-.654.838l-4.246,13.817a4.012,4.012,0,0,1-1.493,2.1l-10.677,7.324a1.225,1.225,0,0,0-.4.454c-.157.3-.245.7-.088.82a.307.307,0,0,1-.18.554Z" transform="translate(-1406.34 -0.001)" fill="#33475c" fill-rule="evenodd"/>
      <path id="Path_2109-3" data-name="Path 2109" d="M1440.849,30.794l-10.677,7.317c-.682.454-.952,1.613-.436,1.817l8.042,3.546c.466.2.654.781.525,1.563l-2.354,13.43c-.139.845.559,1.036,1.152.3l9.23-11.631a2.078,2.078,0,0,1,1.69-.981l9.237.984c.584.064,1.29-.94,1.136-1.62l-2.34-10.738a3.079,3.079,0,0,1,.532-2.165l8.044-12.828c.513-.813.227-1.62-.436-1.3l-10.677,5a.943.943,0,0,1-1.381-.357l-4.228-8.926c-.27-.561-1.152-.055-1.415.816l-4.264,13.828A3.745,3.745,0,0,1,1440.849,30.794Z" transform="translate(-1424.213 -10.79)" fill="#fce9c6" fill-rule="evenodd"/>
      <path id="Path_2110-3" data-name="Path 2110" d="M1440.02,30.061l-10.659,7.315a1.363,1.363,0,0,0-.566,1.122c0,.034.016.12.059.139l8.06,3.551c.6.268.863.979.709,1.9l-2.358,13.437c-.043.245.018.368.062.388s.289-.014.541-.334l9.23-11.633a2.374,2.374,0,0,1,1.972-1.093l9.228.986a.666.666,0,0,0,.454-.268,1.283,1.283,0,0,0,.359-.981l-2.338-10.736a3.3,3.3,0,0,1,.566-2.4l8.042-12.826c.279-.438.245-.788.166-.879-.041-.05-.154,0-.2.02l-10.677,5a1.25,1.25,0,0,1-1.788-.5l-4.248-8.926c-.036-.059-.052-.064-.1-.059a1.14,1.14,0,0,0-.741.834l-4.253,13.826a3.991,3.991,0,0,1-1.511,2.115Zm-4.641,28.478a.783.783,0,0,1-.3-.061.9.9,0,0,1-.418-1.059l2.356-13.44c.1-.625-.018-1.081-.35-1.227l-8.044-3.544a.736.736,0,0,1-.436-.638,1.979,1.979,0,0,1,.829-1.708l10.677-7.317h.025a3.5,3.5,0,0,0,1.229-1.772l4.269-13.826a1.707,1.707,0,0,1,1.29-1.27.681.681,0,0,1,.7.413l4.248,8.917c.061.125.268.534.968.211l10.677-5a.763.763,0,0,1,.934.129,1.412,1.412,0,0,1-.1,1.62l-8.067,12.815a2.773,2.773,0,0,0-.488,1.938l2.338,10.734a1.892,1.892,0,0,1-.5,1.524,1.191,1.191,0,0,1-.986.47l-9.212-.99a1.853,1.853,0,0,0-1.424.863l-9.237,11.631a1.3,1.3,0,0,1-.968.584Z" transform="translate(-1423.218 -9.795)" fill="#33475c" fill-rule="evenodd"/>
      <path id="Path_2111-3" data-name="Path 2111" d="M1464.675,20.688a3.959,3.959,0,0,0,.934-1.577l4.264-13.828c.132-.416.709-1.293,1.256-1l-4.961-2.862c-.525-.282-1.084.525-1.229.922l-4.284,13.905a4.006,4.006,0,0,1-.934,1.574Z" transform="translate(-1447.594 -1.053)" fill="#f6c364" fill-rule="evenodd"/>
      <path id="Path_2112-3" data-name="Path 2112" d="M1459.127,16.715l4.414,2.547a3.443,3.443,0,0,0,.7-1.277l4.269-13.821a2.371,2.371,0,0,1,.7-1.038L1464.944.656a.2.2,0,0,0-.156,0,1.517,1.517,0,0,0-.636.768l-4.285,13.885a4.225,4.225,0,0,1-.74,1.406Zm4.475,3.249a.3.3,0,0,1-.147-.039l-4.971-2.865a.316.316,0,0,1-.068-.482,3.73,3.73,0,0,0,.861-1.461l4.284-13.9a2.01,2.01,0,0,1,1-1.136.813.813,0,0,1,.681.039l4.97,2.851a.311.311,0,1,1-.3.543.189.189,0,0,0-.177,0,1.591,1.591,0,0,0-.643.829l-4.246,13.826a4.239,4.239,0,0,1-1.006,1.7A.3.3,0,0,1,1463.6,19.964Z" transform="translate(-1446.521 -0.023)" fill="#33475c" fill-rule="evenodd"/>
    </g>
  </g>
</svg>
