<svg width="137" height="120" viewBox="0 0 137 120" fill="none" xmlns="http://www.w3.org/2000/svg">
<g id="landline (1)">
<path id="Path 2346" d="M119.196 67.4948L117.631 65.1578C122.826 61.6858 127.342 58.4288 130.014 53.7248C132.477 49.3868 132.952 42.8028 128.984 39.1448C127.544 37.8128 125.535 36.8318 124.384 34.7688C122.554 31.5098 124.057 27.4508 124.705 25.0928C125.37 22.5758 125.249 19.6388 123.489 18.7508C122.759 18.4598 121.972 18.3414 121.189 18.4048C116.268 18.5263 111.571 20.4823 108.018 23.8888L106.063 21.8678C110.124 17.9721 115.495 15.7344 121.121 15.5938C127.315 15.4788 128.847 20.3938 127.421 25.8098C125.836 31.5778 126.255 32.3648 126.831 33.3928C127.617 34.7858 129.431 35.7298 130.892 37.0788C135.927 41.7198 135.458 49.8348 132.46 55.1138C129.487 60.3448 124.49 63.9548 119.196 67.4948ZM99.3539 97.0768L99.3169 110.664C99.2579 111.298 99.0317 111.905 98.6616 112.423C98.2915 112.941 97.7905 113.351 97.2099 113.613C95.6218 114.421 93.865 114.843 92.0829 114.843C90.3008 114.843 88.544 114.421 86.9559 113.613C86.3652 113.35 85.8554 112.935 85.4792 112.409C85.103 111.883 84.874 111.267 84.8159 110.623L84.8529 97.0358C84.9111 97.6796 85.1401 98.2961 85.5163 98.8218C85.8926 99.3474 86.4023 99.7631 86.9929 100.026C88.581 100.834 90.3378 101.256 92.1199 101.256C93.902 101.256 95.6588 100.834 97.2469 100.026C97.8275 99.7645 98.3285 99.3538 98.6986 98.8358C99.0687 98.3177 99.2949 97.7107 99.3539 97.0768Z" fill="#CBD6E5"/>
<path id="Path 2347" d="M97.213 92.8321C95.6249 92.0235 93.8681 91.602 92.086 91.602C90.3039 91.602 88.5471 92.0235 86.959 92.8321C86.3161 93.1884 85.7808 93.711 85.4092 94.3452C85.0376 94.9794 84.8433 95.7018 84.8467 96.4368C84.8501 97.1719 85.051 97.8925 85.4284 98.5232C85.8058 99.1539 86.3459 99.6716 86.992 100.022C88.5801 100.831 90.3369 101.252 92.119 101.252C93.9011 101.252 95.6579 100.831 97.246 100.022C97.8889 99.6657 98.4241 99.1431 98.7957 98.5089C99.1673 97.8747 99.3616 97.1523 99.3582 96.4173C99.3549 95.6823 99.154 94.9617 98.7765 94.3309C98.3991 93.7002 97.8591 93.1825 97.213 92.8321ZM132.428 77.9761L132.391 91.5631C132.332 92.197 132.106 92.804 131.736 93.3221C131.366 93.8401 130.865 94.2507 130.284 94.5121C128.696 95.3206 126.939 95.7421 125.157 95.7421C123.375 95.7421 121.618 95.3206 120.03 94.5121C119.439 94.2495 118.929 93.8339 118.553 93.3082C118.177 92.7826 117.948 92.1659 117.89 91.5221L117.928 77.9351C117.986 78.5789 118.215 79.1956 118.591 79.7212C118.967 80.2469 119.477 80.6625 120.068 80.9251C121.656 81.7336 123.413 82.1551 125.195 82.1551C126.977 82.1551 128.734 81.7336 130.322 80.9251C130.902 80.6636 131.403 80.2529 131.773 79.7349C132.143 79.2168 132.369 78.6099 132.428 77.9761Z" fill="#CBD6E5"/>
<path id="Path 2348" d="M130.288 74.9859C128.7 74.1773 126.943 73.7559 125.161 73.7559C123.379 73.7559 121.622 74.1773 120.034 74.9859C117.212 76.6259 117.226 79.2859 120.067 80.9249C121.655 81.7335 123.412 82.155 125.194 82.155C126.976 82.155 128.733 81.7335 130.321 80.9249C133.144 79.2849 133.129 76.6259 130.288 74.9859Z" fill="#CBD6E5"/>
<path id="Path 2349" d="M84.18 23.2192C84.062 23.2582 83.945 23.3002 83.827 23.3402C82.349 23.8232 80.586 24.2402 78.765 24.7022L78.751 27.4332C78.744 30.0402 80.464 32.6512 83.909 34.6402C90.755 38.5922 101.819 38.5922 108.619 34.6402C111.998 32.6762 113.689 30.1062 113.696 27.5342L113.718 23.2202L84.18 23.2192Z" fill="#CBD6E5"/>
<path id="Path 2350" d="M95.7181 36.8048L80.1001 27.7158C79.5786 27.3549 79.164 26.8601 78.9 26.2834C78.636 25.7067 78.5324 25.0694 78.6001 24.4388L78.5761 18.6258C78.6389 17.9909 78.5356 17.3506 78.2766 16.7675C78.0175 16.1845 77.6114 15.6788 77.0981 15.2998L92.7131 24.3888C93.229 24.7605 93.6388 25.2605 93.9019 25.8394C94.165 26.4182 94.2723 27.0557 94.2131 27.6888V33.5038C94.1571 34.1372 94.2663 34.7743 94.5301 35.3529C94.7938 35.9315 95.2032 36.4317 95.7181 36.8048Z" fill="#CBD6E5"/>
<path id="Path 2351" d="M82.5879 118.964L135.901 87.9859L135.954 74.2769L82.6389 105.255L82.5879 118.964Z" fill="#DDE4EB" stroke="#CBD6E5" stroke-linecap="round" stroke-linejoin="round"/>
<path id="Path 2352" d="M135.943 74.2598L82.6252 105.246L37.4912 57.6098L90.8062 26.6548L135.943 74.2598Z" fill="#CBD6E5"/>
<path id="Path 2353" d="M135.943 74.2598L82.6252 105.246L37.4912 57.6098L90.8062 26.6548L135.943 74.2598Z" fill="#EAECEF" stroke="#CBD6E5" stroke-linecap="round" stroke-linejoin="round"/>
<path id="Path 2354" d="M37.4891 57.6272L90.8001 26.6442L77.2651 18.8442L23.9531 49.8252L37.4891 57.6272Z" fill="#CBD6E5"/>
<path id="Path 2355" d="M82.642 105.26L82.597 118.96L19.812 82.6809L19.854 47.4409L37.497 57.6219L82.642 105.26Z" fill="#DDE4EB" stroke="#CBD6E5" stroke-linecap="round" stroke-linejoin="round"/>
<path id="Path 2356" d="M113.492 74.3759C109.088 84.5129 93.759 88.0979 79.242 82.4069C64.725 76.7159 56.515 63.8559 60.922 53.7469C65.297 43.6149 80.622 40.0279 95.142 45.7189C109.662 51.4099 117.866 64.2469 113.492 74.3759Z" fill="#B4BED7"/>
<path id="Path 2357" d="M110.844 71.1328C107.056 79.8588 93.856 82.9458 81.362 78.0458C68.868 73.1458 61.795 62.0768 65.589 53.3738C69.356 44.6518 82.556 41.5688 95.047 46.4638C107.538 51.3588 114.61 62.4088 110.844 71.1328Z" fill="#9DA9C1"/>
<path id="Path 2358" d="M94.1232 48.9493C96.4752 49.8733 97.8012 51.9493 97.0892 53.5873C96.3772 55.2253 93.9012 55.8063 91.5512 54.8823C89.2012 53.9583 87.8732 51.8822 88.5832 50.2472C89.2932 48.6122 91.7762 48.0273 94.1232 48.9493ZM81.1282 47.7493C82.196 48.1433 83.1148 48.8597 83.7572 49.7992C84.9162 51.6122 84.1032 53.4893 81.9372 53.9993C80.8039 54.2363 79.6256 54.1283 78.5542 53.6893C77.4855 53.2944 76.5659 52.5773 75.9222 51.6373C74.7672 49.8263 75.5812 47.9493 77.7422 47.4373C78.877 47.2023 80.0561 47.3116 81.1282 47.7513V47.7493ZM104.228 56.8213C105.296 57.2154 106.214 57.9319 106.856 58.8713C108.015 60.6842 107.202 62.5613 105.036 63.0713C103.903 63.3079 102.725 63.1999 101.653 62.7612C100.586 62.3671 99.6673 61.6507 99.0252 60.7113C97.8662 58.8983 98.6792 57.0212 100.845 56.5112C101.979 56.2752 103.157 56.3839 104.228 56.8232V56.8213ZM72.8492 53.9313C75.1962 54.8533 76.5252 56.9312 75.8152 58.5693C75.1052 60.2073 72.6222 60.7893 70.2752 59.8693C67.9282 58.9493 66.5982 56.8693 67.3092 55.2313C68.0202 53.5933 70.5012 53.0083 72.8492 53.9323V53.9313ZM105.518 66.7612C107.865 67.6833 109.194 69.7612 108.484 71.3993C107.774 73.0373 105.292 73.6192 102.944 72.6992C100.596 71.7792 99.2672 69.6992 99.9782 68.0612C100.689 66.4232 103.171 65.8403 105.518 66.7612ZM97.2382 72.9432C98.3053 73.3376 99.2238 74.0531 99.8672 74.9912C101.026 76.8042 100.211 78.6842 98.0472 79.1912C96.9142 79.4277 95.7364 79.3197 94.6652 78.8813C93.5978 78.4871 92.6794 77.7706 92.0372 76.8312C90.8762 75.0212 91.6912 73.1413 93.8572 72.6313C94.9904 72.3968 96.1677 72.5061 97.2382 72.9453V72.9432Z" fill="#F9F9F9"/>
<path id="Path 2359" d="M95.057 46.4648C107.557 51.3728 114.623 62.4208 110.842 71.1418C107.061 79.8628 93.862 82.9548 81.364 78.0418C68.866 73.1288 61.804 62.0878 65.585 53.3648C69.366 44.6418 82.557 41.5548 95.057 46.4648ZM101.163 55.4518C98.997 55.9588 98.183 57.8358 99.343 59.6518C99.9851 60.5912 100.904 61.3076 101.971 61.7018C103.042 62.1404 104.221 62.2484 105.354 62.0118C107.519 61.5048 108.333 59.6278 107.174 57.8118C106.531 56.8735 105.613 56.1582 104.546 55.7648C103.475 55.3263 102.297 55.2183 101.164 55.4548M78.057 46.3768C75.896 46.8858 75.082 48.7628 76.237 50.5768C76.8806 51.5169 77.8003 52.2339 78.869 52.6288C79.9404 53.0674 81.1186 53.1754 82.252 52.9388C84.417 52.4318 85.231 50.5548 84.072 48.7388C83.4298 47.7994 82.5114 47.083 81.444 46.6888C80.3713 46.2496 79.1918 46.1409 78.057 46.3768ZM98.364 78.1278C100.528 77.6278 101.343 75.7438 100.184 73.9278C99.5406 72.9911 98.6229 72.2767 97.557 71.8828C96.4862 71.4442 95.3089 71.3356 94.176 71.5708C92.01 72.0778 91.195 73.9578 92.356 75.7708C92.9981 76.7102 93.9165 77.4266 94.984 77.8208C96.055 78.2597 97.233 78.3676 98.366 78.1308M75.266 69.0588C77.43 68.5588 78.245 66.6748 77.086 64.8588C76.4423 63.9205 75.5234 63.205 74.456 62.8108C73.384 62.3718 72.2054 62.2625 71.071 62.4968C68.91 63.0058 68.095 64.8858 69.251 66.6968C69.8946 67.6369 70.8143 68.3539 71.883 68.7488C72.9544 69.1874 74.1326 69.2954 75.266 69.0588ZM103.266 71.6388C105.613 72.5608 108.096 71.9788 108.806 70.3388C109.516 68.6988 108.187 66.6218 105.84 65.7008C103.493 64.7798 101.01 65.3608 100.3 67.0008C99.59 68.6408 100.919 70.7178 103.266 71.6388ZM70.593 58.8058C72.94 59.7278 75.423 59.1458 76.133 57.5058C76.843 55.8658 75.514 53.7898 73.167 52.8678C70.82 51.9458 68.337 52.5278 67.627 54.1678C66.917 55.8078 68.242 57.8828 70.593 58.8058ZM81.982 76.6208C84.334 77.5448 86.812 76.9618 87.522 75.3208C88.232 73.6798 86.908 71.6058 84.556 70.6828C82.204 69.7598 79.727 70.3388 79.016 71.9828C78.305 73.6268 79.635 75.6998 81.982 76.6208ZM94.44 47.8868C92.093 46.9648 89.611 47.5438 88.9 49.1868C88.189 50.8298 89.521 52.8998 91.868 53.8218C94.215 54.7438 96.696 54.1658 97.406 52.5278C98.116 50.8898 96.792 48.8128 94.44 47.8898" fill="#D3DBEA"/>
<path id="Path 2360" d="M90.4492 57.0932C94.5362 58.6932 96.8492 62.3102 95.6102 65.1582C94.3712 68.0062 90.0612 69.0172 85.9752 67.4122C81.8892 65.8072 79.5822 62.2012 80.8192 59.3492C82.0562 56.4972 86.3672 55.4892 90.4492 57.0932Z" fill="#B0BAD2"/>
<path id="Path 2361" d="M74.1382 63.8722C75.2056 64.2664 76.1245 64.982 76.7682 65.9202C77.9282 67.7332 77.1122 69.6132 74.9482 70.1202C73.8149 70.3569 72.6367 70.2489 71.5652 69.8102C70.4959 69.415 69.5758 68.6972 68.9322 67.7562C67.7762 65.9482 68.5912 64.0682 70.7522 63.5562C71.8872 63.3226 73.0661 63.4326 74.1382 63.8722ZM84.2382 71.7472C86.5902 72.6712 87.9162 74.7472 87.2042 76.3852C86.4922 78.0232 84.0162 78.6062 81.6642 77.6852C79.3122 76.7642 77.9872 74.6852 78.6982 73.0472C79.4092 71.4092 81.8902 70.8252 84.2382 71.7472Z" fill="#F9F9F9"/>
<path id="Path 2362" d="M110.843 71.1409C109.967 73.1263 108.614 74.8647 106.905 76.2019C101.687 80.3689 93.0739 81.5879 84.4049 79.0799C83.3909 78.7866 82.3776 78.4416 81.3649 78.0449C79.4832 77.3099 77.6719 76.4062 75.9529 75.3449C67.2579 69.9589 62.7249 61.3789 65.2669 54.1689L64.5059 56.3229C61.9669 63.5329 66.4979 72.1139 75.1909 77.4979C76.9105 78.5587 78.7221 79.4624 80.6039 80.1979C81.6146 80.5946 82.6279 80.9396 83.6439 81.2329C92.3129 83.7409 100.926 82.5219 106.144 78.3549C107.853 77.0172 109.206 75.2781 110.082 73.2919C110.119 73.2079 110.155 73.1239 110.189 73.0389L110.949 70.8849C110.915 70.9703 110.88 71.0556 110.843 71.1409Z" fill="#9DA9C1"/>
<path id="Path 2363" d="M32.5708 41.8071L48.6418 51.1441L82.7658 31.2721L66.8418 22.0181L32.5708 41.8071Z" fill="#CBD6E5"/>
<path id="Path 2364" d="M1.02603 68.6348L1.00003 72.5398C0.992028 75.1458 2.71303 77.7568 6.15803 79.7448C13.003 83.6968 24.067 83.6968 30.868 79.7448C34.247 77.7808 35.938 75.2128 35.945 72.6388L35.971 67.4238L1.02603 68.6348Z" fill="#CBD6E5"/>
<path id="Path 2365" d="M110.089 32.2578C112.92 30.6248 113.845 25.4428 113.836 22.1918C113.79 6.26977 101.614 8.09777 88.451 10.7018C81.484 12.0798 71.675 16.4168 61.875 22.0818C52.075 27.7468 42.268 34.7218 35.308 41.3818C22.175 53.9648 16.592 62.3868 16.637 78.3088C16.646 81.5618 18.95 82.8748 21.781 81.2398L31.108 75.8558C32.5972 74.8876 33.8364 73.5812 34.7246 72.043C35.6129 70.5048 36.1249 68.7785 36.219 67.0048L36.202 61.1848C36.2847 59.6709 36.668 58.1886 37.3295 56.8243C37.991 55.4601 38.9175 54.2412 40.055 53.2388C47.8867 46.6742 56.3017 40.8386 65.195 35.8048C74.486 30.4418 83.78 26.0478 90.352 24.1988C92.619 23.5608 94.198 24.9988 94.206 27.6988L94.213 30.2518L99.833 36.1798L110.089 32.2578Z" fill="#DDE4EB" stroke="#CBD6E5" stroke-linecap="round" stroke-linejoin="round"/>
<g id="Group 947">
<path id="Path 2366" d="M75.992 26.5708L75.922 33.0378L71.564 35.5708L71.634 29.1038L75.992 26.5708Z" fill="#9DA9C1"/>
<path id="Path 2367" d="M71.6308 29.1041L71.5608 35.5711L69.9668 34.6491L70.0368 28.1821L71.6308 29.1041Z" fill="#B4BED7"/>
<path id="Path 2368" d="M75.9916 26.5709L71.6306 29.1039L70.0366 28.1819L74.3976 25.6489L75.9916 26.5709Z" fill="#D3DBEA"/>
</g>
<g id="Group 948">
<path id="Path 2369" d="M56.7532 37.6763L56.6862 44.1433L52.3252 46.6763L52.3952 40.2093L56.7532 37.6763Z" fill="#9DA9C1"/>
<path id="Path 2370" d="M52.395 40.209L52.325 46.676L50.731 45.757L50.798 39.29L52.395 40.209Z" fill="#B4BED7"/>
<path id="Path 2371" d="M56.7529 37.6762L52.3949 40.2142L50.7949 39.2952L55.1559 36.7622L56.7529 37.6762Z" fill="#D3DBEA"/>
</g>
<g id="Group 949">
<path id="Path 2372" d="M109.645 11.188C109.751 11.1985 109.855 11.2231 109.955 11.261L94.3041 2.17401C88.8741 -0.737995 81.4631 2.22801 76.3521 5.10401L86.7191 11.115C87.3041 10.969 87.901 10.815 88.451 10.702C96.9211 9.02701 104.961 7.70101 109.645 11.188Z" fill="#DDE4EB" stroke="#CBD6E5" stroke-linecap="round" stroke-linejoin="round"/>
</g>
<g id="Group 950">
<path id="Path 2373" d="M22.8432 55.5722C18.5722 62.1362 16.6232 68.9302 16.6512 78.3042C16.636 78.9444 16.7549 79.5807 17.0002 80.1722C17.0059 80.242 17.0253 80.3099 17.0572 80.3722C17.1012 80.4353 17.1393 80.5022 17.1712 80.5722C17.2862 80.7442 17.4002 80.9442 17.5152 81.0882C17.6886 81.2808 17.8911 81.4451 18.1152 81.5752L2.31516 74.6872C1.42316 74.1432 1.02916 70.8552 1.00016 69.2212C0.971159 59.9632 4.90016 54.1432 11.0332 48.7542C13.0682 46.9482 15.3902 45.1712 17.8552 43.3652L27.8002 49.1272C26.0107 51.1665 24.3549 53.3193 22.8432 55.5722Z" fill="#DDE4EB" stroke="#CBD6E5" stroke-linecap="round" stroke-linejoin="round"/>
<path id="Path 2374" d="M35.307 41.385C42.267 34.723 52.07 27.743 61.874 22.085C70.904 16.869 79.906 12.806 86.72 11.119L76.353 5.104C75.772 5.432 75.212 5.758 74.697 6.074C71.572 7.965 68.448 9.8 65.266 11.574C52.1136 19.2487 39.3694 27.6023 27.085 36.601C23.816 39.057 20.722 41.249 17.855 43.361L27.811 49.135C29.971 46.667 32.444 44.127 35.307 41.385Z" fill="#EAECEF" stroke="#CBD6E5" stroke-linecap="round" stroke-linejoin="round"/>
</g>
<g id="Group 951">
<path id="Path 2375" d="M35.945 68.8798C35.938 71.4528 34.245 74.0208 30.868 75.9858C24.068 79.9378 13.003 79.9378 6.15802 75.9858C2.83802 74.0728 1.13702 71.5728 1.02302 69.0638L1.00002 72.5388C0.993021 75.1458 2.71302 77.7558 6.15802 79.7448C13.004 83.6968 24.067 83.6968 30.868 79.7448C34.247 77.7818 35.938 75.2128 35.945 72.6388L35.971 67.4238H35.952L35.945 68.8798Z" fill="#CBD6E5"/>
</g>
<g id="Group 952">
<path id="Path 2376" d="M108.619 34.6392C111.998 32.6752 113.689 30.1052 113.696 27.5322L113.718 23.2192H113.704L113.696 24.7192C113.689 27.2922 111.996 29.8622 108.619 31.8252C105.471 33.5243 101.983 34.4971 98.4102 34.6722L100.817 37.2112C103.553 36.8388 106.198 35.967 108.619 34.6392Z" fill="#CBD6E5"/>
</g>
</g>
</svg>
