<svg width="42" height="41" viewBox="0 0 42 41" fill="none" xmlns="http://www.w3.org/2000/svg">
<g id="failed-calls">
<path id="Ellipse 14" d="M21.0599 40.694C32.0205 40.694 40.9059 31.8086 40.9059 20.848C40.9059 9.88731 32.0205 1.00195 21.0599 1.00195C10.0992 1.00195 1.21387 9.88731 1.21387 20.848C1.21387 31.8086 10.0992 40.694 21.0599 40.694Z" fill="white"/>
<path id="&#60;Compound Path&#62;" d="M21.2118 0.5C16.5271 0.500136 11.9874 2.1246 8.36621 5.09661C4.74498 8.06863 2.26627 12.2043 1.35242 16.799C0.438567 21.3937 1.14612 26.1631 3.35451 30.2945C5.5629 34.426 9.1355 37.664 13.4636 39.4567C17.7917 41.2494 22.6075 41.486 27.0904 40.1261C31.5734 38.7662 35.4461 35.894 38.0488 31.9988C40.6515 28.1036 41.8231 23.4266 41.3639 18.7644C40.9048 14.1023 38.8433 9.74361 35.5308 6.431C33.6504 4.55057 31.4181 3.05895 28.9612 2.04131C26.5044 1.02366 23.8711 0.499923 21.2118 0.5ZM34.5678 34.1C31.9263 36.7416 28.5608 38.5406 24.8969 39.2695C21.2329 39.9984 17.4351 39.6244 13.9837 38.1948C10.5324 36.7653 7.5824 34.3443 5.50692 31.2382C3.43144 28.1321 2.32365 24.4802 2.32365 20.7445C2.32365 17.0088 3.43144 13.3569 5.50692 10.2508C7.5824 7.14466 10.5324 4.72373 13.9837 3.29417C17.4351 1.86461 21.2329 1.49062 24.8969 2.2195C28.5608 2.94837 31.9263 4.74737 34.5678 7.389C38.1098 10.9312 40.0997 15.7353 40.0997 20.7445C40.0997 25.7537 38.1098 30.5578 34.5678 34.1Z" fill="#CBD6E2"/>
<path id="&#240;&#159;&#148;&#185;-Secondary-Color" fill-rule="evenodd" clip-rule="evenodd" d="M15.2089 13.064H13.5679C13.6655 14.4786 13.941 15.8752 14.3879 17.221L15.7009 15.908C15.4372 14.9799 15.2723 14.0266 15.2089 13.064ZM24.6829 27.516C26.0255 27.9746 27.4237 28.2507 28.8399 28.337V26.706C27.8787 26.63 26.9267 26.4653 25.9959 26.214L24.6829 27.516Z" fill="#FFE9C5"/>
<path id="&#240;&#159;&#148;&#185;-Primary-Color" fill-rule="evenodd" clip-rule="evenodd" d="M29.9359 24.562C28.609 24.563 27.2905 24.3523 26.0299 23.938C25.9214 23.8985 25.8064 23.8798 25.6909 23.883C25.4007 23.8841 25.1221 23.9977 24.9139 24.2L22.5059 26.608C19.4046 25.0221 16.8819 22.4993 15.2959 19.398L17.7029 16.991C17.847 16.8483 17.9489 16.6686 17.9973 16.4716C18.0456 16.2747 18.0386 16.0682 17.9769 15.875C17.5627 14.6165 17.3524 13.2999 17.3539 11.975C17.3539 11.6843 17.2389 11.4054 17.0339 11.1993C16.8289 10.9932 16.5506 10.8766 16.2599 10.875H12.4299C12.1399 10.8766 11.8623 10.9926 11.6574 11.1979C11.4525 11.4031 11.337 11.681 11.3359 11.971C11.3359 16.904 13.2956 21.635 16.7838 25.1232C20.2719 28.6114 25.0029 30.571 29.9359 30.571C30.2254 30.5692 30.5025 30.4533 30.7071 30.2485C30.9117 30.0437 31.0274 29.7665 31.0289 29.477V25.656C31.0274 25.3665 30.9117 25.0893 30.7071 24.8845C30.5025 24.6797 30.2254 24.5638 29.9359 24.562ZM13.5569 13.064H15.1979C15.2684 14.0231 15.4359 14.9727 15.6979 15.898L14.3879 17.21C13.9312 15.8702 13.6518 14.4763 13.5569 13.064ZM28.8359 28.348C27.4213 28.2504 26.0247 27.9749 24.6789 27.528L25.9789 26.228C26.9074 26.4899 27.8605 26.6548 28.8229 26.72V28.35L28.8359 28.348Z" fill="#F5C26B"/>
<path id="error (1)" d="M28.6568 19.0669L24.8238 11.4019C24.7 11.1584 24.4851 10.9735 24.2258 10.8874C23.9665 10.8013 23.6838 10.8208 23.4388 10.9419C23.2409 11.0429 23.0799 11.2039 22.9788 11.4019L19.1358 19.0669C19.0572 19.225 19.0203 19.4006 19.0285 19.577C19.0366 19.7534 19.0897 19.9248 19.1826 20.075C19.2755 20.2252 19.4052 20.3492 19.5594 20.4352C19.7136 20.5213 19.8872 20.5666 20.0638 20.5669H27.7288C28.0041 20.5669 28.2681 20.4575 28.4628 20.2628C28.6575 20.0682 28.7668 19.8042 28.7668 19.5289C28.7678 19.3675 28.7297 19.2083 28.6558 19.0649L28.6568 19.0669ZM23.8918 18.9459C23.8272 18.9459 23.7639 18.9267 23.7102 18.8908C23.6564 18.8548 23.6145 18.8038 23.5897 18.744C23.565 18.6843 23.5585 18.6185 23.5711 18.5551C23.5837 18.4916 23.6149 18.4334 23.6606 18.3876C23.7063 18.3419 23.7646 18.3108 23.828 18.2982C23.8915 18.2855 23.9572 18.292 24.017 18.3168C24.0767 18.3415 24.1278 18.3834 24.1637 18.4372C24.1996 18.491 24.2188 18.5542 24.2188 18.6189C24.2188 18.7056 24.1844 18.7888 24.1231 18.8501C24.0617 18.9114 23.9786 18.9459 23.8918 18.9459ZM24.2188 17.3219C24.2232 17.3672 24.218 17.413 24.2036 17.4563C24.1893 17.4995 24.166 17.5393 24.1354 17.573C24.1047 17.6068 24.0673 17.6337 24.0257 17.6522C23.984 17.6706 23.9389 17.6802 23.8933 17.6802C23.8477 17.6802 23.8027 17.6706 23.761 17.6522C23.7193 17.6337 23.6819 17.6068 23.6513 17.573C23.6206 17.5393 23.5974 17.4995 23.583 17.4563C23.5686 17.413 23.5635 17.3672 23.5678 17.3219V14.0739C23.5756 13.9929 23.6133 13.9178 23.6734 13.8631C23.7336 13.8084 23.812 13.7782 23.8933 13.7782C23.9746 13.7782 24.053 13.8084 24.1132 13.8631C24.1734 13.9178 24.211 13.9929 24.2188 14.0739V17.3219Z" fill="#F5B74D"/>
</g>
</svg>
