<svg width="42" height="41" viewBox="0 0 42 41" fill="none" xmlns="http://www.w3.org/2000/svg">
<g id="calls-incoming">
<path id="Ellipse 14" d="M20.8397 40.694C31.8003 40.694 40.6857 31.8086 40.6857 20.848C40.6857 9.88731 31.8003 1.00195 20.8397 1.00195C9.87901 1.00195 0.993652 9.88731 0.993652 20.848C0.993652 31.8086 9.87901 40.694 20.8397 40.694Z" fill="white"/>
<path id="&#60;Compound Path&#62;" d="M20.9916 0.5C16.3069 0.500136 11.7672 2.1246 8.14599 5.09661C4.52476 8.06863 2.04605 12.2043 1.1322 16.799C0.218352 21.3937 0.925902 26.1631 3.1343 30.2945C5.34269 34.426 8.91529 37.664 13.2434 39.4567C17.5715 41.2494 22.3873 41.486 26.8702 40.1261C31.3532 38.7662 35.2259 35.894 37.8286 31.9988C40.4313 28.1036 41.6028 23.4266 41.1437 18.7644C40.6846 14.1023 38.6231 9.74361 35.3106 6.431C33.4302 4.55057 31.1979 3.05895 28.741 2.04131C26.2841 1.02366 23.6509 0.499923 20.9916 0.5ZM34.3476 34.1C31.7061 36.7416 28.3406 38.5406 24.6767 39.2695C21.0127 39.9984 17.2149 39.6244 13.7635 38.1948C10.3121 36.7653 7.36219 34.3443 5.28671 31.2382C3.21123 28.1321 2.10344 24.4802 2.10344 20.7445C2.10344 17.0088 3.21123 13.3569 5.28671 10.2508C7.36219 7.14466 10.3121 4.72373 13.7635 3.29417C17.2149 1.86461 21.0127 1.49062 24.6767 2.2195C28.3406 2.94837 31.7061 4.74737 34.3476 7.389C37.8896 10.9312 39.8794 15.7353 39.8794 20.7445C39.8794 25.7537 37.8896 30.5578 34.3476 34.1Z" fill="#CBD6E2"/>
<path id="&#240;&#159;&#148;&#185;-Secondary-Color" fill-rule="evenodd" clip-rule="evenodd" d="M15.0054 12.874H13.3574C13.4555 14.2951 13.7324 15.6982 14.1814 17.05L15.5004 15.731C15.2352 14.7988 15.0693 13.8411 15.0054 12.874ZM24.5174 27.389C25.8659 27.8495 27.2701 28.1266 28.6924 28.213V26.574C27.7272 26.4974 26.7711 26.3317 25.8364 26.079L24.5174 27.389Z" fill="#90EBFB"/>
<path id="&#240;&#159;&#148;&#185;-Primary-Color" fill-rule="evenodd" clip-rule="evenodd" d="M29.7957 24.4231C28.4631 24.4243 27.1388 24.213 25.8727 23.7971C25.7635 23.7575 25.6478 23.7388 25.5317 23.7421C25.2402 23.7435 24.9606 23.8578 24.7517 24.0611L22.3347 26.4791C19.2195 24.8852 16.6859 22.3502 15.0937 19.2341L17.5157 16.8181C17.66 16.6745 17.7617 16.4937 17.8094 16.2958C17.857 16.0979 17.8489 15.8906 17.7857 15.6971C17.3691 14.4316 17.1577 13.1075 17.1597 11.7751C17.1597 11.4834 17.0438 11.2036 16.8375 10.9973C16.6312 10.791 16.3515 10.6751 16.0597 10.6751H12.2157C11.924 10.6751 11.6442 10.791 11.4379 10.9973C11.2316 11.2036 11.1157 11.4834 11.1157 11.7751C11.1156 14.2283 11.5987 16.6575 12.5375 18.924C13.4763 21.1905 14.8523 23.2499 16.587 24.9845C18.3218 26.7191 20.3812 28.0951 22.6477 29.0337C24.9143 29.9724 27.3435 30.4554 29.7967 30.4551C30.0885 30.4551 30.3682 30.3392 30.5745 30.1329C30.7808 29.9266 30.8967 29.6468 30.8967 29.3551V25.5211C30.8962 25.2295 30.7799 24.9501 30.5735 24.7442C30.367 24.5383 30.0873 24.4228 29.7957 24.4231ZM13.3467 12.8741H14.9947C15.0664 13.8374 15.2356 14.7909 15.4997 15.7201L14.1807 17.0341C13.7226 15.6897 13.4422 14.2912 13.3467 12.8741ZM28.6967 28.2241C27.2756 28.126 25.8726 27.8491 24.5207 27.4001L25.8287 26.0921C26.7614 26.3551 27.7189 26.5207 28.6857 26.5861V28.2241H28.6967ZM27.5967 17.2701H24.7517L30.2677 11.7531L28.7157 10.2041L23.2027 15.7201V12.8741H21.0027V19.4671H27.5957L27.5967 17.2701Z" fill="#45CFE4"/>
</g>
</svg>
