<svg width="42" height="42" viewBox="0 0 42 42" fill="none" xmlns="http://www.w3.org/2000/svg">
<g id="missed-calls">
<path id="Ellipse 14" d="M20.7498 40.9072C31.9048 40.9072 40.9478 31.8643 40.9478 20.7092C40.9478 9.55418 31.9048 0.51123 20.7498 0.51123C9.59471 0.51123 0.551758 9.55418 0.551758 20.7092C0.551758 31.8643 9.59471 40.9072 20.7498 40.9072Z" fill="white"/>
<path id="&#60;Compound Path&#62;" d="M20.9059 5.26198e-08C16.1379 0.000340753 11.5176 1.65388 7.83213 4.67887C4.14665 7.70387 1.62405 11.9132 0.694137 16.5896C-0.235775 21.2659 0.48454 26.1201 2.73235 30.3249C4.98016 34.5298 8.61639 37.8252 13.0215 39.6496C17.4266 41.474 22.328 41.7146 26.8906 40.3304C31.4532 38.9461 35.3947 36.0227 38.0435 32.0582C40.6923 28.0937 41.8845 23.3335 41.4171 18.5885C40.9496 13.8435 38.8514 9.4074 35.4799 6.036C33.566 4.12217 31.2939 2.60408 28.7933 1.56842C26.2926 0.532758 23.6125 -0.000193351 20.9059 5.26198e-08ZM34.4989 34.2C31.8104 36.8886 28.385 38.7197 24.6559 39.4615C20.9268 40.2034 17.0614 39.8228 13.5486 38.3678C10.0358 36.9128 7.03338 34.4488 4.92097 31.2874C2.80856 28.126 1.68106 24.4092 1.68106 20.607C1.68106 16.8048 2.80856 13.088 4.92097 9.92659C7.03338 6.7652 10.0358 4.30121 13.5486 2.84623C17.0614 1.39124 20.9268 1.01061 24.6559 1.75247C28.385 2.49433 31.8104 4.32536 34.4989 7.014C38.1038 10.6192 40.1291 15.5087 40.1291 20.607C40.1291 25.7053 38.1038 30.5948 34.4989 34.2Z" fill="#CBD6E2"/>
<path id="&#240;&#159;&#148;&#185;-Secondary-Color" fill-rule="evenodd" clip-rule="evenodd" d="M29.9397 27.8928L31.0308 26.8018C30.0248 25.926 28.9125 25.1804 27.7201 24.5829L27.7208 26.3287C28.5135 26.7705 29.2572 27.2947 29.9397 27.8928ZM14.0284 24.5821C12.8304 25.1701 11.7169 25.9164 10.7177 26.8011L11.8031 27.8865C12.4927 27.2975 13.2352 26.7737 14.0213 26.3216L14.0284 24.5821Z" fill="#F8A9AD"/>
<path id="&#240;&#159;&#148;&#185;-Primary-Color" fill-rule="evenodd" clip-rule="evenodd" d="M12.5015 30.0398C13.383 29.1567 14.3996 28.4198 15.5131 27.8569C15.6114 27.8108 15.7002 27.7465 15.7747 27.6674C15.9666 27.4732 16.0756 27.2121 16.0788 26.9391L16.0809 23.7324C19.1985 22.7268 22.5537 22.729 25.67 23.7388L25.67 26.9405C25.6688 27.1316 25.7206 27.3192 25.8198 27.4825C25.9189 27.6458 26.0614 27.7783 26.2314 27.8654C27.3456 28.4278 28.3626 29.165 29.2437 30.049C29.4372 30.2403 29.6985 30.3474 29.9707 30.347C30.2428 30.3466 30.5038 30.2387 30.6968 30.0469L33.2424 27.5013C33.4349 27.308 33.5431 27.0463 33.5432 26.7734C33.5434 26.5006 33.4355 26.2388 33.2431 26.0453C31.6189 24.4208 29.6906 23.1321 27.5683 22.253C25.446 21.3738 23.1713 20.9214 20.8741 20.9215C18.5769 20.9216 16.3022 21.3743 14.18 22.2537C12.0578 23.1331 10.1297 24.422 8.50567 26.0468C8.31435 26.2403 8.20723 26.5016 8.20763 26.7737C8.20803 27.0459 8.31591 27.3069 8.50779 27.4999L11.047 30.0391C11.2404 30.2313 11.502 30.3392 11.7746 30.3392C12.0473 30.3392 12.3082 30.232 12.5015 30.0398ZM31.0383 26.7949L29.9473 27.8859C29.2619 27.2956 28.5185 26.7763 27.7284 26.336V24.5894C28.9234 25.1767 30.0357 25.9186 31.0383 26.7949ZM10.7118 26.7949C11.7178 25.9191 12.8301 25.1736 14.0225 24.576V26.307C13.2308 26.7502 12.4872 27.2744 11.8036 27.8711L10.7189 26.7864L10.7118 26.7949Z" fill="#FE7575"/>
<path id="missed-call (1)" d="M13.2138 15.7372C13.3679 15.7372 13.5157 15.676 13.6246 15.5671C13.7336 15.4581 13.7948 15.3103 13.7948 15.1562V13.0692L20.3618 19.6302C20.4157 19.6846 20.4797 19.7278 20.5504 19.7573C20.621 19.7867 20.6968 19.8019 20.7733 19.8019C20.8498 19.8019 20.9256 19.7867 20.9963 19.7573C21.0669 19.7278 21.131 19.6846 21.1848 19.6302L28.7428 12.0762C28.7985 12.0227 28.843 11.9586 28.8737 11.8877C28.9043 11.8168 28.9205 11.7405 28.9213 11.6632C28.9221 11.586 28.9075 11.5093 28.8784 11.4378C28.8492 11.3663 28.8061 11.3013 28.7515 11.2466C28.6969 11.1919 28.6319 11.1487 28.5604 11.1194C28.4889 11.0902 28.4123 11.0755 28.335 11.0762C28.2578 11.0769 28.1814 11.093 28.1105 11.1236C28.0395 11.1542 27.9754 11.1986 27.9218 11.2542L20.7728 18.4022L14.6178 12.2472H16.7028C16.857 12.2472 17.0049 12.186 17.114 12.0769C17.2231 11.9679 17.2843 11.8199 17.2843 11.6657C17.2843 11.5115 17.2231 11.3636 17.114 11.2545C17.0049 11.1455 16.857 11.0842 16.7028 11.0842H13.2138C13.0598 11.0845 12.9122 11.1458 12.8033 11.2547C12.6944 11.3636 12.6331 11.5112 12.6328 11.6652V15.1542C12.6326 15.2307 12.6474 15.3065 12.6765 15.3772C12.7055 15.4479 12.7483 15.5122 12.8023 15.5663C12.8563 15.6205 12.9204 15.6635 12.991 15.6928C13.0616 15.7221 13.1373 15.7372 13.2138 15.7372Z" fill="#FE7575"/>
</g>
</svg>
