<svg width="42" height="41" viewBox="0 0 42 41" fill="none" xmlns="http://www.w3.org/2000/svg">
<g id="call-outgoing">
<path id="Ellipse 14" d="M20.8397 40.694C31.8003 40.694 40.6857 31.8086 40.6857 20.848C40.6857 9.88731 31.8003 1.00195 20.8397 1.00195C9.87901 1.00195 0.993652 9.88731 0.993652 20.848C0.993652 31.8086 9.87901 40.694 20.8397 40.694Z" fill="white"/>
<path id="&#60;Compound Path&#62;" d="M20.9916 0.5C16.3069 0.500136 11.7672 2.1246 8.14599 5.09661C4.52476 8.06863 2.04605 12.2043 1.1322 16.799C0.218352 21.3937 0.925902 26.1631 3.1343 30.2945C5.34269 34.426 8.91529 37.664 13.2434 39.4567C17.5715 41.2494 22.3873 41.486 26.8702 40.1261C31.3532 38.7662 35.2259 35.894 37.8286 31.9988C40.4313 28.1036 41.6028 23.4266 41.1437 18.7644C40.6846 14.1023 38.6231 9.74361 35.3106 6.431C33.4302 4.55057 31.1979 3.05895 28.741 2.04131C26.2841 1.02366 23.6509 0.499923 20.9916 0.5ZM34.3476 34.1C31.7061 36.7416 28.3406 38.5406 24.6767 39.2695C21.0127 39.9984 17.2149 39.6244 13.7635 38.1948C10.3121 36.7653 7.36219 34.3443 5.28671 31.2382C3.21123 28.1321 2.10344 24.4802 2.10344 20.7445C2.10344 17.0088 3.21123 13.3569 5.28671 10.2508C7.36219 7.14466 10.3121 4.72373 13.7635 3.29417C17.2149 1.86461 21.0127 1.49062 24.6767 2.2195C28.3406 2.94837 31.7061 4.74737 34.3476 7.389C37.8896 10.9312 39.8794 15.7353 39.8794 20.7445C39.8794 25.7537 37.8896 30.5578 34.3476 34.1Z" fill="#CBD6E2"/>
<path id="&#240;&#159;&#148;&#185;-Secondary-Color" fill-rule="evenodd" clip-rule="evenodd" d="M14.9887 13.0649H13.3477C13.4453 14.4796 13.7208 15.8762 14.1677 17.2219L15.4807 15.9089C15.217 14.9809 15.0521 14.0276 14.9887 13.0649ZM24.4627 27.5169C25.8053 27.9756 27.2035 28.2517 28.6197 28.3379V26.7069C27.6585 26.631 26.7065 26.4663 25.7757 26.2149L24.4627 27.5169Z" fill="#90EBFB"/>
<path id="&#240;&#159;&#148;&#185;-Primary-Color" fill-rule="evenodd" clip-rule="evenodd" d="M29.7157 24.563C28.3888 24.5639 27.0703 24.3533 25.8097 23.939C25.7012 23.8995 25.5862 23.8808 25.4707 23.884C25.1804 23.8851 24.9019 23.9987 24.6937 24.201L22.2857 26.609C19.1844 25.0231 16.6616 22.5003 15.0757 19.399L17.4827 16.992C17.6268 16.8493 17.7287 16.6695 17.777 16.4726C17.8254 16.2757 17.8184 16.0692 17.7567 15.876C17.3425 14.6175 17.1322 13.3009 17.1337 11.976C17.1337 11.6853 17.0187 11.4064 16.8137 11.2003C16.6087 10.9942 16.3304 10.8776 16.0397 10.876H12.2097C11.9197 10.8776 11.6421 10.9936 11.4372 11.1989C11.2323 11.4041 11.1168 11.682 11.1157 11.972C11.1157 16.905 13.0754 21.636 16.5635 25.1242C20.0517 28.6123 24.7827 30.572 29.7157 30.572C30.0052 30.5701 30.2823 30.4543 30.4869 30.2495C30.6915 30.0447 30.8071 29.7675 30.8087 29.478V25.657C30.8071 25.3675 30.6915 25.0903 30.4869 24.8855C30.2823 24.6807 30.0052 24.5648 29.7157 24.563ZM13.3367 13.065H14.9777C15.0481 14.0241 15.2157 14.9736 15.4777 15.899L14.1677 17.211C13.711 15.8712 13.4316 14.4773 13.3367 13.065ZM28.6157 28.349C27.2011 28.2514 25.8044 27.9759 24.4587 27.529L25.7587 26.229C26.6872 26.4909 27.6403 26.6557 28.6027 26.721V28.351L28.6157 28.349Z" fill="#45CFE4"/>
<path id="&#240;&#159;&#148;&#185;-Primary-Color_2" fill-rule="evenodd" clip-rule="evenodd" d="M23.6206 13.593H26.4536L20.9616 19.084L22.5046 20.627L27.9966 15.135V17.968H30.1846V11.404H23.6206V13.593Z" fill="#45CFE4"/>
</g>
</svg>
