<svg width="42" height="42" viewBox="0 0 42 42" fill="none" xmlns="http://www.w3.org/2000/svg">
<g id="calls-voicemail">
<path id="Ellipse 14" d="M20.8738 40.9072C32.0288 40.9072 41.0718 31.8643 41.0718 20.7092C41.0718 9.55418 32.0288 0.51123 20.8738 0.51123C9.71873 0.51123 0.675781 9.55418 0.675781 20.7092C0.675781 31.8643 9.71873 40.9072 20.8738 40.9072Z" fill="white"/>
<path id="voice-mail" d="M29.3261 14.7778C27.9948 14.7818 26.7193 15.3124 25.7779 16.2537C24.8366 17.195 24.306 18.4706 24.3021 19.8018C24.3 20.6955 24.5623 21.5699 25.0561 22.3148H18.5211C19.0145 21.5698 19.2765 20.6954 19.2741 19.8018C19.2741 18.8082 18.9794 17.8368 18.4274 17.0106C17.8753 16.1845 17.0907 15.5405 16.1727 15.1603C15.2547 14.78 14.2445 14.6805 13.2699 14.8744C12.2954 15.0682 11.4002 15.5467 10.6976 16.2493C9.99495 16.9519 9.51646 17.8471 9.32261 18.8217C9.12876 19.7963 9.22825 20.8064 9.60851 21.7244C9.98876 22.6425 10.6327 23.4271 11.4589 23.9791C12.2851 24.5312 13.2564 24.8258 14.2501 24.8258H29.3261C30.6585 24.8258 31.9364 24.2965 32.8786 23.3543C33.8208 22.4122 34.3501 21.1343 34.3501 19.8018C34.3501 18.4694 33.8208 17.1915 32.8786 16.2493C31.9364 15.3071 30.6585 14.7778 29.3261 14.7778ZM14.2501 22.3148C13.7531 22.3148 13.2672 22.1674 12.8539 21.8913C12.4407 21.6152 12.1186 21.2227 11.9284 20.7635C11.7382 20.3043 11.6884 19.799 11.7854 19.3116C11.8823 18.8241 12.1217 18.3763 12.4731 18.0249C12.8246 17.6734 13.2723 17.4341 13.7598 17.3371C14.2473 17.2402 14.7526 17.2899 15.2118 17.4801C15.671 17.6703 16.0634 17.9924 16.3396 18.4057C16.6157 18.8189 16.7631 19.3048 16.7631 19.8018C16.7631 20.4683 16.4983 21.1075 16.027 21.5788C15.5558 22.0501 14.9166 22.3148 14.2501 22.3148ZM29.3231 22.3148C28.8261 22.3148 28.3402 22.1674 27.9269 21.8913C27.5137 21.6152 27.1916 21.2227 27.0014 20.7635C26.8112 20.3043 26.7614 19.799 26.8584 19.3116C26.9553 18.8241 27.1947 18.3763 27.5461 18.0249C27.8976 17.6734 28.3453 17.4341 28.8328 17.3371C29.3203 17.2402 29.8256 17.2899 30.2848 17.4801C30.7439 17.6703 31.1364 17.9924 31.4126 18.4057C31.6887 18.8189 31.8361 19.3048 31.8361 19.8018C31.8361 20.4678 31.5717 21.1065 31.1011 21.5777C30.6305 22.0489 29.992 22.314 29.3261 22.3148H29.3231Z" fill="#8994DA"/>
<path id="&#60;Compound Path&#62;" d="M21.0299 5.26198e-08C16.262 0.000340753 11.6416 1.65388 7.95616 4.67887C4.27068 7.70387 1.74807 11.9132 0.81816 16.5896C-0.111752 21.2659 0.608564 26.1201 2.85637 30.3249C5.10418 34.5298 8.74041 37.8252 13.1455 39.6496C17.5506 41.474 22.452 41.7146 27.0146 40.3304C31.5772 38.9461 35.5187 36.0227 38.1675 32.0582C40.8163 28.0937 42.0086 23.3335 41.5411 18.5885C41.0737 13.8435 38.9754 9.4074 35.6039 6.036C33.69 4.12217 31.4179 2.60408 28.9173 1.56842C26.4167 0.532758 23.7365 -0.000193351 21.0299 5.26198e-08ZM34.6229 34.2C31.9344 36.8886 28.5091 38.7197 24.7799 39.4615C21.0508 40.2034 17.1854 39.8228 13.6727 38.3678C10.1599 36.9128 7.1574 34.4488 5.04499 31.2874C2.93258 28.126 1.80508 24.4092 1.80508 20.607C1.80508 16.8048 2.93258 13.088 5.04499 9.92659C7.1574 6.7652 10.1599 4.30121 13.6727 2.84623C17.1854 1.39124 21.0508 1.01061 24.7799 1.75247C28.5091 2.49433 31.9344 4.32536 34.6229 7.014C38.2279 10.6192 40.2531 15.5087 40.2531 20.607C40.2531 25.7053 38.2279 30.5948 34.6229 34.2Z" fill="#CBD6E2"/>
</g>
</svg>
